STARTFONT 2.1
FONT -FreeType-Montserrat Medium-Medium-R-Normal--19-180-75-75-P-104-ISO10646-1
SIZE 18 75 75
FONTBOUNDINGBOX 46 24 -16 -5
COMMENT "Generated by fontforge, http://fontforge.sourceforge.net"
COMMENT ""
COMMENT "Converted from OpenType font "Montserrat-Medium.otf" by "otf2bdf 3.0"."
COMMENT ""
STARTPROPERTIES 19
FOUNDRY "FreeType"
FAMILY_NAME "Montserrat Medium"
WEIGHT_NAME "Medium"
SLANT "R"
SETWIDTH_NAME "Normal"
ADD_STYLE_NAME ""
PIXEL_SIZE 19
POINT_SIZE 180
RESOLUTION_X 75
RESOLUTION_Y 75
SPACING "P"
AVERAGE_WIDTH 104
CHARSET_REGISTRY "ISO10646"
CHARSET_ENCODING "1"
FONT_ASCENT 18
FONT_DESCENT 4
COPYRIGHT "Copyright 2011 The Montserrat Project Authors (https://github.com/JulietaUla/Montserrat)"
_OTF_FONTFILE "Montserrat-Medium.otf"
_OTF_PSNAME "Montserrat-Medium"
ENDPROPERTIES
CHARS 969
STARTCHAR $0000
ENCODING 0
SWIDTH 0 0
DWIDTH 0 0
BBX 0 0 0 0
BITMAP
ENDCHAR
STARTCHAR $000D
ENCODING 13
SWIDTH 266 0
DWIDTH 5 0
BBX 0 0 0 0
BITMAP
ENDCHAR
STARTCHAR $0020
ENCODING 32
SWIDTH 266 0
DWIDTH 5 0
BBX 0 0 0 0
BITMAP
ENDCHAR
STARTCHAR $0021
ENCODING 33
SWIDTH 266 0
DWIDTH 5 0
BBX 2 13 2 0
BITMAP
C0
C0
C0
C0
C0
C0
C0
C0
C0
00
00
C0
C0
ENDCHAR
STARTCHAR $0022
ENCODING 34
SWIDTH 373 0
DWIDTH 7 0
BBX 6 5 1 8
BITMAP
CC
CC
CC
CC
CC
ENDCHAR
STARTCHAR $0023
ENCODING 35
SWIDTH 693 0
DWIDTH 13 0
BBX 13 13 0 0
BITMAP
0C60
0C60
0C60
0C60
FFF8
18C0
18C0
18C0
FFF0
3180
3180
3180
3180
ENDCHAR
STARTCHAR $0024
ENCODING 36
SWIDTH 640 0
DWIDTH 12 0
BBX 10 17 1 -2
BITMAP
0C00
0C00
3F00
7F80
CC80
CC00
CC00
7C00
3F00
0F80
0CC0
0CC0
8CC0
FF80
7F00
0C00
0C00
ENDCHAR
STARTCHAR $0025
ENCODING 37
SWIDTH 853 0
DWIDTH 16 0
BBX 14 13 1 0
BITMAP
7830
CC20
8440
84C0
8480
CD00
7B78
06CC
0484
0C84
1884
10CC
2078
ENDCHAR
STARTCHAR $0026
ENCODING 38
SWIDTH 693 0
DWIDTH 13 0
BBX 11 13 1 0
BITMAP
1E00
3300
6100
6300
3300
1C00
3C00
6620
C360
C1C0
C0C0
7FE0
3E20
ENDCHAR
STARTCHAR $0027
ENCODING 39
SWIDTH 213 0
DWIDTH 4 0
BBX 2 5 1 8
BITMAP
C0
C0
C0
C0
C0
ENDCHAR
STARTCHAR $0028
ENCODING 40
SWIDTH 320 0
DWIDTH 6 0
BBX 3 18 2 -4
BITMAP
20
60
60
C0
C0
C0
C0
C0
C0
C0
C0
C0
C0
C0
C0
60
60
20
ENDCHAR
STARTCHAR $0029
ENCODING 41
SWIDTH 320 0
DWIDTH 6 0
BBX 3 18 1 -4
BITMAP
80
C0
C0
60
60
60
60
60
60
60
60
60
60
60
60
C0
C0
80
ENDCHAR
STARTCHAR $002A
ENCODING 42
SWIDTH 426 0
DWIDTH 8 0
BBX 5 6 1 8
BITMAP
20
A8
70
70
A8
20
ENDCHAR
STARTCHAR $002B
ENCODING 43
SWIDTH 586 0
DWIDTH 11 0
BBX 9 9 1 2
BITMAP
0800
0800
0800
0800
FF80
0800
0800
0800
0800
ENDCHAR
STARTCHAR $002C
ENCODING 44
SWIDTH 213 0
DWIDTH 4 0
BBX 2 5 1 -3
BITMAP
C0
C0
40
C0
80
ENDCHAR
STARTCHAR $002D
ENCODING 45
SWIDTH 373 0
DWIDTH 7 0
BBX 5 2 1 4
BITMAP
F8
F8
ENDCHAR
STARTCHAR $002E
ENCODING 46
SWIDTH 213 0
DWIDTH 4 0
BBX 2 2 1 0
BITMAP
C0
C0
ENDCHAR
STARTCHAR $002F
ENCODING 47
SWIDTH 373 0
DWIDTH 7 0
BBX 8 18 0 -2
BITMAP
03
03
06
06
06
0C
0C
0C
18
18
18
30
30
60
60
60
C0
C0
ENDCHAR
STARTCHAR $0030
ENCODING 48
SWIDTH 693 0
DWIDTH 13 0
BBX 10 13 1 0
BITMAP
3F00
7F80
E1C0
C0C0
C0C0
C0C0
C0C0
C0C0
C0C0
C0C0
E1C0
7F80
3F00
ENDCHAR
STARTCHAR $0031
ENCODING 49
SWIDTH 373 0
DWIDTH 7 0
BBX 5 13 0 0
BITMAP
F8
F8
18
18
18
18
18
18
18
18
18
18
18
ENDCHAR
STARTCHAR $0032
ENCODING 50
SWIDTH 586 0
DWIDTH 11 0
BBX 9 13 1 0
BITMAP
7E00
FF00
C380
0180
0180
0300
0600
0C00
1800
3000
6000
FF80
FF80
ENDCHAR
STARTCHAR $0033
ENCODING 51
SWIDTH 586 0
DWIDTH 11 0
BBX 10 13 0 0
BITMAP
7F80
7F80
0300
0700
0600
0C00
0F80
0180
00C0
00C0
C1C0
FF80
3F00
ENDCHAR
STARTCHAR $0034
ENCODING 52
SWIDTH 693 0
DWIDTH 13 0
BBX 11 13 1 0
BITMAP
0300
0600
0E00
0C00
1800
3000
6180
6180
FFE0
FFE0
0180
0180
0180
ENDCHAR
STARTCHAR $0035
ENCODING 53
SWIDTH 586 0
DWIDTH 11 0
BBX 10 13 0 0
BITMAP
3F80
3F80
3000
6000
6000
7F00
7F80
00C0
00C0
00C0
C0C0
FF80
3F00
ENDCHAR
STARTCHAR $0036
ENCODING 54
SWIDTH 640 0
DWIDTH 12 0
BBX 10 13 1 0
BITMAP
1F80
3F80
6000
C000
C000
DF00
FF80
E1C0
C0C0
C0C0
E1C0
7F80
1F00
ENDCHAR
STARTCHAR $0037
ENCODING 55
SWIDTH 586 0
DWIDTH 11 0
BBX 9 13 1 0
BITMAP
FF80
FF80
8180
8180
0300
0300
0600
0600
0C00
0C00
1800
1800
3000
ENDCHAR
STARTCHAR $0038
ENCODING 56
SWIDTH 640 0
DWIDTH 12 0
BBX 10 13 1 0
BITMAP
3F00
7F80
C0C0
C0C0
C0C0
6180
7F80
E1C0
C0C0
C0C0
C0C0
7F80
3F00
ENDCHAR
STARTCHAR $0039
ENCODING 57
SWIDTH 640 0
DWIDTH 12 0
BBX 11 13 0 0
BITMAP
1F00
7F80
E1C0
C0C0
C0C0
E1E0
7FE0
1E60
0060
00C0
01C0
3F80
3E00
ENDCHAR
STARTCHAR $003A
ENCODING 58
SWIDTH 213 0
DWIDTH 4 0
BBX 2 10 1 0
BITMAP
C0
C0
00
00
00
00
00
00
C0
C0
ENDCHAR
STARTCHAR $003B
ENCODING 59
SWIDTH 213 0
DWIDTH 4 0
BBX 2 13 1 -3
BITMAP
C0
C0
00
00
00
00
00
00
C0
C0
40
C0
80
ENDCHAR
STARTCHAR $003C
ENCODING 60
SWIDTH 586 0
DWIDTH 11 0
BBX 9 8 1 3
BITMAP
0180
0F00
3C00
E000
E000
3C00
0F00
0180
ENDCHAR
STARTCHAR $003D
ENCODING 61
SWIDTH 586 0
DWIDTH 11 0
BBX 9 5 1 4
BITMAP
FF80
0000
0000
0000
FF80
ENDCHAR
STARTCHAR $003E
ENCODING 62
SWIDTH 586 0
DWIDTH 11 0
BBX 9 8 1 3
BITMAP
C000
7800
1E00
0380
0380
1E00
7800
C000
ENDCHAR
STARTCHAR $003F
ENCODING 63
SWIDTH 586 0
DWIDTH 11 0
BBX 9 13 1 0
BITMAP
7E00
FF00
C380
0180
0180
0300
0600
0C00
1800
1800
0000
1800
1800
ENDCHAR
STARTCHAR $0040
ENCODING 64
SWIDTH 1013 0
DWIDTH 19 0
BBX 17 17 1 -4
BITMAP
07F000
1C1C00
300600
600300
43E980
C63880
8C1880
880880
880880
880880
8C1880
C63D80
43E700
600000
300000
1C1800
07F000
ENDCHAR
STARTCHAR $0041
ENCODING 65
SWIDTH 746 0
DWIDTH 14 0
BBX 14 13 0 0
BITMAP
0300
0300
0780
0480
0CC0
0840
1860
1860
3030
3FF0
6018
6018
C00C
ENDCHAR
STARTCHAR $0042
ENCODING 66
SWIDTH 746 0
DWIDTH 14 0
BBX 11 13 2 0
BITMAP
FF80
FFC0
C0C0
C060
C0C0
FF80
FFC0
C0E0
C060
C060
C060
FFE0
FF80
ENDCHAR
STARTCHAR $0043
ENCODING 67
SWIDTH 746 0
DWIDTH 14 0
BBX 11 13 1 0
BITMAP
0FC0
3FE0
7020
6000
C000
C000
C000
C000
C000
6000
7020
3FE0
0FC0
ENDCHAR
STARTCHAR $0044
ENCODING 68
SWIDTH 800 0
DWIDTH 15 0
BBX 13 13 2 0
BITMAP
FF00
FFC0
C0E0
C030
C030
C018
C018
C018
C030
C030
C0E0
FFC0
FF00
ENDCHAR
STARTCHAR $0045
ENCODING 69
SWIDTH 693 0
DWIDTH 13 0
BBX 9 13 2 0
BITMAP
FF80
FF80
C000
C000
C000
FF00
FF00
C000
C000
C000
C000
FF80
FF80
ENDCHAR
STARTCHAR $0046
ENCODING 70
SWIDTH 640 0
DWIDTH 12 0
BBX 9 13 2 0
BITMAP
FF80
FF80
C000
C000
C000
C000
FF00
FF00
C000
C000
C000
C000
C000
ENDCHAR
STARTCHAR $0047
ENCODING 71
SWIDTH 746 0
DWIDTH 14 0
BBX 12 13 1 0
BITMAP
0FC0
3FF0
7020
6000
C000
C000
C0F0
C0F0
C030
6030
7030
3FF0
0FC0
ENDCHAR
STARTCHAR $0048
ENCODING 72
SWIDTH 800 0
DWIDTH 15 0
BBX 11 13 2 0
BITMAP
C060
C060
C060
C060
C060
FFE0
FFE0
C060
C060
C060
C060
C060
C060
ENDCHAR
STARTCHAR $0049
ENCODING 73
SWIDTH 320 0
DWIDTH 6 0
BBX 2 13 2 0
BITMAP
C0
C0
C0
C0
C0
C0
C0
C0
C0
C0
C0
C0
C0
ENDCHAR
STARTCHAR $004A
ENCODING 74
SWIDTH 533 0
DWIDTH 10 0
BBX 9 13 -1 0
BITMAP
3F80
3F80
0180
0180
0180
0180
0180
0180
0180
0180
C180
7F00
3E00
ENDCHAR
STARTCHAR $004B
ENCODING 75
SWIDTH 693 0
DWIDTH 13 0
BBX 11 13 2 0
BITMAP
C060
C0C0
C180
C300
C600
CC00
D800
FC00
E600
C300
C180
C0C0
C060
ENDCHAR
STARTCHAR $004C
ENCODING 76
SWIDTH 586 0
DWIDTH 11 0
BBX 9 13 2 0
BITMAP
C000
C000
C000
C000
C000
C000
C000
C000
C000
C000
C000
FF80
FF80
ENDCHAR
STARTCHAR $004D
ENCODING 77
SWIDTH 960 0
DWIDTH 18 0
BBX 14 13 2 0
BITMAP
C00C
C00C
E01C
F03C
F03C
D86C
C84C
CCCC
C78C
C78C
C30C
C00C
C00C
ENDCHAR
STARTCHAR $004E
ENCODING 78
SWIDTH 800 0
DWIDTH 15 0
BBX 11 13 2 0
BITMAP
C060
E060
F060
F060
D860
CC60
CE60
C760
C360
C1E0
C0E0
C0E0
C060
ENDCHAR
STARTCHAR $004F
ENCODING 79
SWIDTH 853 0
DWIDTH 16 0
BBX 14 13 1 0
BITMAP
0FC0
3FF0
7038
6018
C00C
C00C
C00C
C00C
C00C
6018
7038
3FF0
0FC0
ENDCHAR
STARTCHAR $0050
ENCODING 80
SWIDTH 746 0
DWIDTH 14 0
BBX 11 13 2 0
BITMAP
FF00
FF80
C0C0
C060
C060
C060
C0C0
FF80
FF00
C000
C000
C000
C000
ENDCHAR
STARTCHAR $0051
ENCODING 81
SWIDTH 853 0
DWIDTH 16 0
BBX 14 15 1 -2
BITMAP
0FC0
3FF0
7038
6018
C00C
C00C
C00C
C00C
C00C
6018
7038
3FF0
0FC0
01C4
00FC
ENDCHAR
STARTCHAR $0052
ENCODING 82
SWIDTH 746 0
DWIDTH 14 0
BBX 11 13 2 0
BITMAP
FF00
FF80
C0C0
C060
C060
C060
C0C0
FF80
FF00
C300
C180
C0C0
C0C0
ENDCHAR
STARTCHAR $0053
ENCODING 83
SWIDTH 640 0
DWIDTH 12 0
BBX 10 13 1 0
BITMAP
3F00
7F80
C0C0
C000
C000
6000
3E00
0F80
01C0
00C0
C0C0
FF80
3F00
ENDCHAR
STARTCHAR $0054
ENCODING 84
SWIDTH 586 0
DWIDTH 11 0
BBX 10 13 1 0
BITMAP
FFC0
FFC0
0C00
0C00
0C00
0C00
0C00
0C00
0C00
0C00
0C00
0C00
0C00
ENDCHAR
STARTCHAR $0055
ENCODING 85
SWIDTH 800 0
DWIDTH 15 0
BBX 11 13 2 0
BITMAP
C060
C060
C060
C060
C060
C060
C060
C060
C060
C060
60C0
7FC0
1F00
ENDCHAR
STARTCHAR $0056
ENCODING 86
SWIDTH 693 0
DWIDTH 13 0
BBX 13 13 0 0
BITMAP
C018
C018
6030
6030
3060
3060
18C0
18C0
0D80
0D80
0700
0700
0200
ENDCHAR
STARTCHAR $0057
ENCODING 87
SWIDTH 1120 0
DWIDTH 21 0
BBX 19 13 1 0
BITMAP
C04060
C0E060
C0E060
61B0C0
61B0C0
61B0C0
331980
331980
331980
1E0F00
1E0F00
1E0700
0C0600
ENDCHAR
STARTCHAR $0058
ENCODING 88
SWIDTH 693 0
DWIDTH 13 0
BBX 11 13 1 0
BITMAP
C060
60C0
3180
1B00
1B00
0E00
0E00
0E00
1B00
1B00
3180
60C0
C060
ENDCHAR
STARTCHAR $0059
ENCODING 89
SWIDTH 640 0
DWIDTH 12 0
BBX 12 13 0 0
BITMAP
C030
6060
6060
30C0
1980
1980
0F00
0700
0600
0600
0600
0600
0600
ENDCHAR
STARTCHAR $005A
ENCODING 90
SWIDTH 640 0
DWIDTH 12 0
BBX 11 13 1 0
BITMAP
FFE0
FFE0
01C0
0180
0300
0600
0C00
1800
3800
3000
6000
FFE0
FFE0
ENDCHAR
STARTCHAR $005B
ENCODING 91
SWIDTH 320 0
DWIDTH 6 0
BBX 4 18 2 -4
BITMAP
F0
C0
C0
C0
C0
C0
C0
C0
C0
C0
C0
C0
C0
C0
C0
C0
C0
F0
ENDCHAR
STARTCHAR $005C
ENCODING 92
SWIDTH 373 0
DWIDTH 7 0
BBX 8 18 -1 -2
BITMAP
C0
C0
60
60
60
30
30
30
18
18
18
0C
0C
06
06
06
03
03
ENDCHAR
STARTCHAR $005D
ENCODING 93
SWIDTH 320 0
DWIDTH 6 0
BBX 4 18 0 -4
BITMAP
F0
30
30
30
30
30
30
30
30
30
30
30
30
30
30
30
30
F0
ENDCHAR
STARTCHAR $005E
ENCODING 94
SWIDTH 586 0
DWIDTH 11 0
BBX 7 8 2 3
BITMAP
10
38
28
6C
44
C6
82
82
ENDCHAR
STARTCHAR $005F
ENCODING 95
SWIDTH 480 0
DWIDTH 9 0
BBX 9 1 0 -1
BITMAP
FF80
ENDCHAR
STARTCHAR $0060
ENCODING 96
SWIDTH 586 0
DWIDTH 11 0
BBX 4 2 3 12
BITMAP
C0
70
ENDCHAR
STARTCHAR $0061
ENCODING 97
SWIDTH 586 0
DWIDTH 11 0
BBX 9 10 1 0
BITMAP
3E00
FF00
0380
0180
7F80
E380
C180
C380
E780
7D80
ENDCHAR
STARTCHAR $0062
ENCODING 98
SWIDTH 693 0
DWIDTH 13 0
BBX 10 14 2 0
BITMAP
C000
C000
C000
C000
DE00
FF80
C180
C0C0
C0C0
C0C0
C0C0
C180
FF80
9E00
ENDCHAR
STARTCHAR $0063
ENCODING 99
SWIDTH 586 0
DWIDTH 11 0
BBX 9 10 1 0
BITMAP
1E00
7F80
E100
C000
C000
C000
C000
E100
7F80
1E00
ENDCHAR
STARTCHAR $0064
ENCODING 100
SWIDTH 693 0
DWIDTH 13 0
BBX 10 14 1 0
BITMAP
00C0
00C0
00C0
00C0
3EC0
7FC0
E1C0
C0C0
C0C0
C0C0
C0C0
E1C0
7FC0
3EC0
ENDCHAR
STARTCHAR $0065
ENCODING 101
SWIDTH 586 0
DWIDTH 11 0
BBX 10 10 1 0
BITMAP
3F00
7F80
C180
C0C0
FFC0
C000
C000
E000
7F80
1F00
ENDCHAR
STARTCHAR $0066
ENCODING 102
SWIDTH 373 0
DWIDTH 7 0
BBX 8 14 0 0
BITMAP
1E
3B
30
30
30
FE
30
30
30
30
30
30
30
30
ENDCHAR
STARTCHAR $0067
ENCODING 103
SWIDTH 693 0
DWIDTH 13 0
BBX 10 14 1 -4
BITMAP
3EC0
7FC0
E0C0
C0C0
C0C0
C0C0
C0C0
61C0
3FC0
1EC0
00C0
40C0
FF80
3F00
ENDCHAR
STARTCHAR $0068
ENCODING 104
SWIDTH 693 0
DWIDTH 13 0
BBX 9 14 2 0
BITMAP
C000
C000
C000
C000
DE00
FF00
C180
C180
C180
C180
C180
C180
C180
C180
ENDCHAR
STARTCHAR $0069
ENCODING 105
SWIDTH 266 0
DWIDTH 5 0
BBX 2 14 2 0
BITMAP
C0
C0
00
00
C0
C0
C0
C0
C0
C0
C0
C0
C0
C0
ENDCHAR
STARTCHAR $006A
ENCODING 106
SWIDTH 266 0
DWIDTH 5 0
BBX 7 18 -3 -4
BITMAP
06
06
00
00
06
06
06
06
06
06
06
06
06
06
06
C6
7C
78
ENDCHAR
STARTCHAR $006B
ENCODING 107
SWIDTH 640 0
DWIDTH 12 0
BBX 9 14 2 0
BITMAP
C000
C000
C000
C000
C300
C600
CC00
D800
F000
F800
CC00
C600
C300
C180
ENDCHAR
STARTCHAR $006C
ENCODING 108
SWIDTH 266 0
DWIDTH 5 0
BBX 2 14 2 0
BITMAP
C0
C0
C0
C0
C0
C0
C0
C0
C0
C0
C0
C0
C0
C0
ENDCHAR
STARTCHAR $006D
ENCODING 109
SWIDTH 1066 0
DWIDTH 20 0
BBX 16 10 2 0
BITMAP
DE3C
FF7E
E1C3
C183
C183
C183
C183
C183
C183
C183
ENDCHAR
STARTCHAR $006E
ENCODING 110
SWIDTH 693 0
DWIDTH 13 0
BBX 9 10 2 0
BITMAP
DE00
FF00
C180
C180
C180
C180
C180
C180
C180
C180
ENDCHAR
STARTCHAR $006F
ENCODING 111
SWIDTH 640 0
DWIDTH 12 0
BBX 10 10 1 0
BITMAP
1E00
7F80
E1C0
C0C0
C0C0
C0C0
C0C0
E1C0
7F80
1E00
ENDCHAR
STARTCHAR $0070
ENCODING 112
SWIDTH 693 0
DWIDTH 13 0
BBX 10 14 2 -4
BITMAP
DE00
FF80
C180
C0C0
C0C0
C0C0
C0C0
C180
FF80
DE00
C000
C000
C000
C000
ENDCHAR
STARTCHAR $0071
ENCODING 113
SWIDTH 693 0
DWIDTH 13 0
BBX 13 14 1 -4
BITMAP
3EC0
7FC0
E1C0
C0C0
C0C0
C0C0
C0C0
E1C0
7FC0
3EC0
00C0
00C0
00F8
00E0
ENDCHAR
STARTCHAR $0072
ENCODING 114
SWIDTH 426 0
DWIDTH 8 0
BBX 6 10 2 0
BITMAP
D8
FC
E4
C0
C0
C0
C0
C0
C0
C0
ENDCHAR
STARTCHAR $0073
ENCODING 115
SWIDTH 480 0
DWIDTH 9 0
BBX 8 10 1 0
BITMAP
3E
7F
C0
C0
70
1E
03
03
FE
7C
ENDCHAR
STARTCHAR $0074
ENCODING 116
SWIDTH 426 0
DWIDTH 8 0
BBX 7 12 0 0
BITMAP
30
30
FE
30
30
30
30
30
30
30
3E
1E
ENDCHAR
STARTCHAR $0075
ENCODING 117
SWIDTH 693 0
DWIDTH 13 0
BBX 9 10 2 0
BITMAP
C180
C180
C180
C180
C180
C180
C180
E380
FF80
3D80
ENDCHAR
STARTCHAR $0076
ENCODING 118
SWIDTH 533 0
DWIDTH 10 0
BBX 11 10 0 0
BITMAP
C060
60C0
60C0
3180
3180
1B00
1B00
0E00
0E00
0400
ENDCHAR
STARTCHAR $0077
ENCODING 119
SWIDTH 906 0
DWIDTH 17 0
BBX 17 10 0 0
BITMAP
C08180
41C100
61C300
636300
236200
322600
163400
1C3C00
1C1C00
0C1800
ENDCHAR
STARTCHAR $0078
ENCODING 120
SWIDTH 533 0
DWIDTH 10 0
BBX 9 10 1 0
BITMAP
C180
6300
3600
1C00
0800
0800
1C00
3600
6300
C180
ENDCHAR
STARTCHAR $0079
ENCODING 121
SWIDTH 533 0
DWIDTH 10 0
BBX 11 14 0 -4
BITMAP
C060
60C0
60C0
6080
3180
3300
1B00
1A00
0E00
0C00
0C00
0C00
F800
F000
ENDCHAR
STARTCHAR $007A
ENCODING 122
SWIDTH 533 0
DWIDTH 10 0
BBX 8 10 1 0
BITMAP
FF
03
06
0C
18
30
30
60
C0
FF
ENDCHAR
STARTCHAR $007B
ENCODING 123
SWIDTH 373 0
DWIDTH 7 0
BBX 6 18 1 -4
BITMAP
1C
38
30
30
30
30
30
70
E0
70
30
30
30
30
30
30
38
1C
ENDCHAR
STARTCHAR $007C
ENCODING 124
SWIDTH 320 0
DWIDTH 6 0
BBX 2 18 2 -4
BITMAP
C0
C0
C0
C0
C0
C0
C0
C0
C0
C0
C0
C0
C0
C0
C0
C0
C0
C0
ENDCHAR
STARTCHAR $007D
ENCODING 125
SWIDTH 373 0
DWIDTH 7 0
BBX 6 18 0 -4
BITMAP
E0
70
30
30
30
30
30
38
1C
38
30
30
30
30
30
30
70
E0
ENDCHAR
STARTCHAR $007E
ENCODING 126
SWIDTH 586 0
DWIDTH 11 0
BBX 9 3 1 5
BITMAP
7880
CD80
8700
ENDCHAR
STARTCHAR $00A0
ENCODING 160
SWIDTH 266 0
DWIDTH 5 0
BBX 0 0 0 0
BITMAP
ENDCHAR
STARTCHAR $00A1
ENCODING 161
SWIDTH 266 0
DWIDTH 5 0
BBX 3 13 1 -3
BITMAP
40
E0
00
00
40
40
40
40
40
40
40
60
E0
ENDCHAR
STARTCHAR $00A2
ENCODING 162
SWIDTH 586 0
DWIDTH 11 0
BBX 9 14 1 -2
BITMAP
0800
0800
1E00
7F80
E900
C800
C800
C800
C800
C900
7F80
3F00
0800
0800
ENDCHAR
STARTCHAR $00A3
ENCODING 163
SWIDTH 640 0
DWIDTH 12 0
BBX 11 13 1 0
BITMAP
0FC0
1FE0
3000
3000
2000
2000
FF00
2000
2000
2000
2000
FFE0
FFE0
ENDCHAR
STARTCHAR $00A4
ENCODING 164
SWIDTH 693 0
DWIDTH 13 0
BBX 11 12 1 0
BITMAP
8020
DF60
7BC0
60C0
4040
C060
C060
4040
60C0
7BC0
DF60
8020
ENDCHAR
STARTCHAR $00A5
ENCODING 165
SWIDTH 693 0
DWIDTH 13 0
BBX 13 13 0 0
BITMAP
C018
6030
3020
1860
18C0
0D80
0700
3FF0
0300
0300
3FF0
0300
0300
ENDCHAR
STARTCHAR $00A6
ENCODING 166
SWIDTH 320 0
DWIDTH 6 0
BBX 2 18 2 -4
BITMAP
C0
C0
C0
C0
C0
C0
C0
00
00
00
00
C0
C0
C0
C0
C0
C0
C0
ENDCHAR
STARTCHAR $00A7
ENCODING 167
SWIDTH 480 0
DWIDTH 9 0
BBX 8 15 1 -2
BITMAP
3E
67
C0
C0
70
FE
86
83
C3
7E
0E
02
02
EE
7C
ENDCHAR
STARTCHAR $00A8
ENCODING 168
SWIDTH 586 0
DWIDTH 11 0
BBX 5 2 3 12
BITMAP
C8
C8
ENDCHAR
STARTCHAR $00A9
ENCODING 169
SWIDTH 800 0
DWIDTH 15 0
BBX 13 13 1 0
BITMAP
0F80
3060
4010
4F90
9888
9008
9008
9008
9888
4F90
4010
3060
0F80
ENDCHAR
STARTCHAR $00AA
ENCODING 170
SWIDTH 426 0
DWIDTH 8 0
BBX 5 6 1 8
BITMAP
F8
08
F8
88
88
F8
ENDCHAR
STARTCHAR $00AB
ENCODING 171
SWIDTH 480 0
DWIDTH 9 0
BBX 7 7 1 1
BITMAP
32
66
4C
C8
4C
66
32
ENDCHAR
STARTCHAR $00AC
ENCODING 172
SWIDTH 586 0
DWIDTH 11 0
BBX 9 4 1 3
BITMAP
FF80
0180
0180
0180
ENDCHAR
STARTCHAR $00AD
ENCODING 173
SWIDTH 373 0
DWIDTH 7 0
BBX 5 2 1 4
BITMAP
F8
F8
ENDCHAR
STARTCHAR $00AE
ENCODING 174
SWIDTH 800 0
DWIDTH 15 0
BBX 13 13 1 0
BITMAP
0F80
3060
4010
4F90
88C8
8848
88C8
8F88
8888
4890
4050
3060
0F80
ENDCHAR
STARTCHAR $00AF
ENCODING 175
SWIDTH 586 0
DWIDTH 11 0
BBX 6 1 3 12
BITMAP
FC
ENDCHAR
STARTCHAR $00B0
ENCODING 176
SWIDTH 426 0
DWIDTH 8 0
BBX 6 6 1 7
BITMAP
78
CC
84
84
CC
78
ENDCHAR
STARTCHAR $00B1
ENCODING 177
SWIDTH 586 0
DWIDTH 11 0
BBX 9 12 1 0
BITMAP
0800
0800
0800
0800
FF80
0800
0800
0800
0000
0000
0000
FF80
ENDCHAR
STARTCHAR $00B2
ENCODING 178
SWIDTH 426 0
DWIDTH 8 0
BBX 6 8 1 6
BITMAP
F8
8C
0C
08
18
20
40
FC
ENDCHAR
STARTCHAR $00B3
ENCODING 179
SWIDTH 426 0
DWIDTH 8 0
BBX 6 8 1 6
BITMAP
FC
08
10
38
0C
04
8C
F8
ENDCHAR
STARTCHAR $00B4
ENCODING 180
SWIDTH 586 0
DWIDTH 11 0
BBX 3 2 5 12
BITMAP
60
C0
ENDCHAR
STARTCHAR $00B5
ENCODING 181
SWIDTH 693 0
DWIDTH 13 0
BBX 9 14 2 -4
BITMAP
C180
C180
C180
C180
C180
C180
C180
C380
FF80
FD80
C000
C000
C000
C000
ENDCHAR
STARTCHAR $00B6
ENCODING 182
SWIDTH 640 0
DWIDTH 12 0
BBX 10 16 0 -2
BITMAP
3FC0
7C40
FC40
FC40
7C40
7C40
1C40
0C40
0C40
0C40
0C40
0C40
0C40
0C40
0C40
0C40
ENDCHAR
STARTCHAR $00B7
ENCODING 183
SWIDTH 266 0
DWIDTH 5 0
BBX 3 3 1 4
BITMAP
40
E0
E0
ENDCHAR
STARTCHAR $00B8
ENCODING 184
SWIDTH 586 0
DWIDTH 11 0
BBX 3 4 4 -4
BITMAP
40
60
20
E0
ENDCHAR
STARTCHAR $00B9
ENCODING 185
SWIDTH 426 0
DWIDTH 8 0
BBX 5 8 2 6
BITMAP
E0
20
20
20
20
20
20
F8
ENDCHAR
STARTCHAR $00BA
ENCODING 186
SWIDTH 426 0
DWIDTH 8 0
BBX 6 6 1 8
BITMAP
78
CC
84
84
8C
78
ENDCHAR
STARTCHAR $00BB
ENCODING 187
SWIDTH 480 0
DWIDTH 9 0
BBX 8 7 1 1
BITMAP
C8
6C
26
33
66
4C
C8
ENDCHAR
STARTCHAR $00BC
ENCODING 188
SWIDTH 1013 0
DWIDTH 19 0
BBX 17 13 2 0
BITMAP
E01800
203000
202000
204000
20C000
208000
210400
FB0800
021800
043200
0C3F80
080200
100200
ENDCHAR
STARTCHAR $00BD
ENCODING 189
SWIDTH 1013 0
DWIDTH 19 0
BBX 16 13 2 0
BITMAP
E018
2030
2020
2040
20C0
209E
2133
FB01
0201
0406
0C0C
0818
103F
ENDCHAR
STARTCHAR $00BE
ENCODING 190
SWIDTH 1013 0
DWIDTH 19 0
BBX 18 13 1 0
BITMAP
FC0C00
081800
101000
382000
0C6000
044300
8C8200
F98400
010800
021900
061FC0
040100
080100
ENDCHAR
STARTCHAR $00BF
ENCODING 191
SWIDTH 586 0
DWIDTH 11 0
BBX 9 13 1 -3
BITMAP
0C00
1C00
0000
0000
0800
1800
3800
6000
4000
C000
C080
7F80
3E00
ENDCHAR
STARTCHAR $00C0
ENCODING 192
SWIDTH 746 0
DWIDTH 14 0
BBX 14 16 0 0
BITMAP
0E00
0300
0000
0300
0700
0780
0C80
0CC0
18C0
1860
3060
3030
3FF0
6018
6018
C00C
ENDCHAR
STARTCHAR $00C1
ENCODING 193
SWIDTH 746 0
DWIDTH 14 0
BBX 14 16 0 0
BITMAP
01C0
0300
0000
0300
0700
0780
0C80
0CC0
18C0
1860
3060
3030
3FF0
6018
6018
C00C
ENDCHAR
STARTCHAR $00C2
ENCODING 194
SWIDTH 746 0
DWIDTH 14 0
BBX 14 16 0 0
BITMAP
0780
0CC0
0000
0300
0700
0780
0C80
0CC0
18C0
1860
3060
3030
3FF0
6018
6018
C00C
ENDCHAR
STARTCHAR $00C3
ENCODING 195
SWIDTH 746 0
DWIDTH 14 0
BBX 14 16 0 1
BITMAP
0E40
0980
0000
0300
0700
0780
0C80
0CC0
18C0
1860
3060
3030
3FF0
6018
6018
C00C
ENDCHAR
STARTCHAR $00C4
ENCODING 196
SWIDTH 746 0
DWIDTH 14 0
BBX 14 16 0 0
BITMAP
0C80
0C80
0000
0300
0700
0780
0C80
0CC0
18C0
1860
3060
3030
3FF0
6018
6018
C00C
ENDCHAR
STARTCHAR $00C5
ENCODING 197
SWIDTH 746 0
DWIDTH 14 0
BBX 14 18 0 0
BITMAP
0700
0480
0480
0300
0000
0300
0700
0780
0C80
0CC0
18C0
1860
3060
3030
3FF0
6018
6018
C00C
ENDCHAR
STARTCHAR $00C6
ENCODING 198
SWIDTH 1066 0
DWIDTH 20 0
BBX 19 13 0 0
BITMAP
01FFC0
01FFC0
036000
036000
066000
0C7F80
0C7F80
186000
1FE000
3FE000
606000
607FE0
C07FE0
ENDCHAR
STARTCHAR $00C7
ENCODING 199
SWIDTH 746 0
DWIDTH 14 0
BBX 11 17 1 -4
BITMAP
0FC0
3FE0
7020
6000
C000
C000
C000
C000
C000
6000
7020
3FE0
0FC0
0200
0300
0100
0700
ENDCHAR
STARTCHAR $00C8
ENCODING 200
SWIDTH 693 0
DWIDTH 13 0
BBX 9 16 2 0
BITMAP
3000
0800
0000
FF80
FF80
C000
C000
C000
FF00
FF00
C000
C000
C000
C000
FF80
FF80
ENDCHAR
STARTCHAR $00C9
ENCODING 201
SWIDTH 693 0
DWIDTH 13 0
BBX 9 16 2 0
BITMAP
0600
0C00
0000
FF80
FF80
C000
C000
C000
FF00
FF00
C000
C000
C000
C000
FF80
FF80
ENDCHAR
STARTCHAR $00CA
ENCODING 202
SWIDTH 693 0
DWIDTH 13 0
BBX 9 16 2 0
BITMAP
1C00
2200
0000
FF80
FF80
C000
C000
C000
FF00
FF00
C000
C000
C000
C000
FF80
FF80
ENDCHAR
STARTCHAR $00CB
ENCODING 203
SWIDTH 693 0
DWIDTH 13 0
BBX 9 16 2 0
BITMAP
3200
3200
0000
FF80
FF80
C000
C000
C000
FF00
FF00
C000
C000
C000
C000
FF80
FF80
ENDCHAR
STARTCHAR $00CC
ENCODING 204
SWIDTH 320 0
DWIDTH 6 0
BBX 4 16 0 0
BITMAP
E0
30
00
30
30
30
30
30
30
30
30
30
30
30
30
30
ENDCHAR
STARTCHAR $00CD
ENCODING 205
SWIDTH 320 0
DWIDTH 6 0
BBX 4 16 2 0
BITMAP
70
C0
00
C0
C0
C0
C0
C0
C0
C0
C0
C0
C0
C0
C0
C0
ENDCHAR
STARTCHAR $00CE
ENCODING 206
SWIDTH 320 0
DWIDTH 6 0
BBX 6 16 0 0
BITMAP
78
CC
00
30
30
30
30
30
30
30
30
30
30
30
30
30
ENDCHAR
STARTCHAR $00CF
ENCODING 207
SWIDTH 320 0
DWIDTH 6 0
BBX 5 16 0 0
BITMAP
C8
C8
00
30
30
30
30
30
30
30
30
30
30
30
30
30
ENDCHAR
STARTCHAR $00D0
ENCODING 208
SWIDTH 853 0
DWIDTH 16 0
BBX 15 13 0 0
BITMAP
3FE0
3FF0
3018
300C
3004
3006
FF06
3006
300C
300C
3018
3FF0
3FE0
ENDCHAR
STARTCHAR $00D1
ENCODING 209
SWIDTH 800 0
DWIDTH 15 0
BBX 11 17 2 0
BITMAP
1000
1C80
3300
0000
C060
E060
F060
F060
D860
CC60
CE60
C760
C360
C1E0
C0E0
C0E0
C060
ENDCHAR
STARTCHAR $00D2
ENCODING 210
SWIDTH 853 0
DWIDTH 16 0
BBX 14 16 1 0
BITMAP
0E00
0300
0000
0FC0
3FE0
7030
6018
C00C
C00C
C00C
C00C
C00C
6018
7030
3FE0
0FC0
ENDCHAR
STARTCHAR $00D3
ENCODING 211
SWIDTH 853 0
DWIDTH 16 0
BBX 14 16 1 0
BITMAP
01C0
0300
0000
0FC0
3FE0
7030
6018
C00C
C00C
C00C
C00C
C00C
6018
7030
3FE0
0FC0
ENDCHAR
STARTCHAR $00D4
ENCODING 212
SWIDTH 853 0
DWIDTH 16 0
BBX 14 16 1 0
BITMAP
0780
0CC0
0000
0FC0
3FE0
7030
6018
C00C
C00C
C00C
C00C
C00C
6018
7030
3FE0
0FC0
ENDCHAR
STARTCHAR $00D5
ENCODING 213
SWIDTH 853 0
DWIDTH 16 0
BBX 14 16 1 1
BITMAP
0E40
0980
0000
0FC0
3FE0
7030
6018
C00C
C00C
C00C
C00C
C00C
6018
7030
3FE0
0FC0
ENDCHAR
STARTCHAR $00D6
ENCODING 214
SWIDTH 853 0
DWIDTH 16 0
BBX 14 16 1 0
BITMAP
0C80
0C80
0000
0FC0
3FE0
7030
6018
C00C
C00C
C00C
C00C
C00C
6018
7030
3FE0
0FC0
ENDCHAR
STARTCHAR $00D7
ENCODING 215
SWIDTH 586 0
DWIDTH 11 0
BBX 7 7 2 3
BITMAP
84
CE
7C
38
78
EC
C4
ENDCHAR
STARTCHAR $00D8
ENCODING 216
SWIDTH 853 0
DWIDTH 16 0
BBX 14 15 1 -1
BITMAP
0018
0FD0
3FE0
7070
60D8
C08C
C10C
C30C
C60C
C40C
6818
7830
3FE0
2FC0
4000
ENDCHAR
STARTCHAR $00D9
ENCODING 217
SWIDTH 800 0
DWIDTH 15 0
BBX 11 16 2 0
BITMAP
1800
0C00
0000
C060
C060
C060
C060
C060
C060
C060
C060
C060
C060
60C0
7FC0
1F00
ENDCHAR
STARTCHAR $00DA
ENCODING 218
SWIDTH 800 0
DWIDTH 15 0
BBX 11 16 2 0
BITMAP
0300
0400
0000
C060
C060
C060
C060
C060
C060
C060
C060
C060
C060
60C0
7FC0
1F00
ENDCHAR
STARTCHAR $00DB
ENCODING 219
SWIDTH 800 0
DWIDTH 15 0
BBX 11 16 2 0
BITMAP
0E00
1100
0000
C060
C060
C060
C060
C060
C060
C060
C060
C060
C060
60C0
7FC0
1F00
ENDCHAR
STARTCHAR $00DC
ENCODING 220
SWIDTH 800 0
DWIDTH 15 0
BBX 11 16 2 0
BITMAP
1B00
1300
0000
C060
C060
C060
C060
C060
C060
C060
C060
C060
C060
60C0
7FC0
1F00
ENDCHAR
STARTCHAR $00DD
ENCODING 221
SWIDTH 640 0
DWIDTH 12 0
BBX 12 16 0 0
BITMAP
0380
0600
0000
C030
6060
6060
30C0
1880
1980
0F00
0700
0600
0600
0600
0600
0600
ENDCHAR
STARTCHAR $00DE
ENCODING 222
SWIDTH 746 0
DWIDTH 14 0
BBX 11 13 2 0
BITMAP
C000
FF00
FF80
C0C0
C0C0
C060
C060
C0C0
C1C0
FF80
FE00
C000
C000
ENDCHAR
STARTCHAR $00DF
ENCODING 223
SWIDTH 693 0
DWIDTH 13 0
BBX 10 14 2 0
BITMAP
3E00
7F00
C180
C180
C180
C300
CF00
CF00
C180
C0C0
C0C0
C0C0
DF80
DF00
ENDCHAR
STARTCHAR $00E0
ENCODING 224
SWIDTH 586 0
DWIDTH 11 0
BBX 9 14 1 0
BITMAP
3000
1800
0000
0000
3E00
FF00
0300
0180
7F80
E180
C180
C380
E780
7D80
ENDCHAR
STARTCHAR $00E1
ENCODING 225
SWIDTH 586 0
DWIDTH 11 0
BBX 9 14 1 0
BITMAP
0600
0C00
0000
0000
3E00
FF00
0300
0180
7F80
E180
C180
C380
E780
7D80
ENDCHAR
STARTCHAR $00E2
ENCODING 226
SWIDTH 586 0
DWIDTH 11 0
BBX 9 14 1 0
BITMAP
1C00
3600
0000
0000
3E00
FF00
0300
0180
7F80
E180
C180
C380
E780
7D80
ENDCHAR
STARTCHAR $00E3
ENCODING 227
SWIDTH 586 0
DWIDTH 11 0
BBX 9 14 1 0
BITMAP
2000
7B00
4600
0000
3E00
FF00
0300
0180
7F80
E180
C180
C380
E780
7D80
ENDCHAR
STARTCHAR $00E4
ENCODING 228
SWIDTH 586 0
DWIDTH 11 0
BBX 9 14 1 0
BITMAP
2600
3600
0000
0000
3E00
FF00
0300
0180
7F80
E180
C180
C380
E780
7D80
ENDCHAR
STARTCHAR $00E5
ENCODING 229
SWIDTH 586 0
DWIDTH 11 0
BBX 9 15 1 0
BITMAP
1C00
2400
2400
1C00
0000
3E00
FF00
0300
0180
7F80
E180
C180
C380
E780
7D80
ENDCHAR
STARTCHAR $00E6
ENCODING 230
SWIDTH 1013 0
DWIDTH 19 0
BBX 17 10 1 0
BITMAP
3E3C00
FFFE00
038300
018180
7FFF80
E18000
C18000
C3C000
E6FF00
7C3E00
ENDCHAR
STARTCHAR $00E7
ENCODING 231
SWIDTH 586 0
DWIDTH 11 0
BBX 9 14 1 -4
BITMAP
1E00
7F80
E100
C000
C000
C000
C000
E100
7F80
3E00
0800
0C00
0400
1C00
ENDCHAR
STARTCHAR $00E8
ENCODING 232
SWIDTH 586 0
DWIDTH 11 0
BBX 10 14 1 0
BITMAP
3000
1800
0400
0000
3E00
7F00
C180
C0C0
FFC0
C000
C000
E000
7F80
1F00
ENDCHAR
STARTCHAR $00E9
ENCODING 233
SWIDTH 586 0
DWIDTH 11 0
BBX 10 14 1 0
BITMAP
0700
0C00
0000
0000
3E00
7F00
C180
C0C0
FFC0
C000
C000
E000
7F80
1F00
ENDCHAR
STARTCHAR $00EA
ENCODING 234
SWIDTH 586 0
DWIDTH 11 0
BBX 10 14 1 0
BITMAP
1C00
3600
0100
0000
3E00
7F00
C180
C0C0
FFC0
C000
C000
E000
7F80
1F00
ENDCHAR
STARTCHAR $00EB
ENCODING 235
SWIDTH 586 0
DWIDTH 11 0
BBX 10 14 1 0
BITMAP
3200
3200
0000
0000
3E00
7F00
C180
C0C0
FFC0
C000
C000
E000
7F80
1F00
ENDCHAR
STARTCHAR $00EC
ENCODING 236
SWIDTH 266 0
DWIDTH 5 0
BBX 4 14 0 0
BITMAP
C0
60
00
00
30
30
30
30
30
30
30
30
30
30
ENDCHAR
STARTCHAR $00ED
ENCODING 237
SWIDTH 266 0
DWIDTH 5 0
BBX 3 14 2 0
BITMAP
60
C0
00
00
C0
C0
C0
C0
C0
C0
C0
C0
C0
C0
ENDCHAR
STARTCHAR $00EE
ENCODING 238
SWIDTH 266 0
DWIDTH 5 0
BBX 5 14 0 0
BITMAP
70
D8
00
00
30
30
30
30
30
30
30
30
30
30
ENDCHAR
STARTCHAR $00EF
ENCODING 239
SWIDTH 266 0
DWIDTH 5 0
BBX 5 14 0 0
BITMAP
D8
D8
00
00
30
30
30
30
30
30
30
30
30
30
ENDCHAR
STARTCHAR $00F0
ENCODING 240
SWIDTH 640 0
DWIDTH 12 0
BBX 10 14 1 0
BITMAP
1000
7F80
0780
1D80
30C0
00C0
3EC0
7FC0
C1C0
C0C0
C0C0
C180
7F80
3E00
ENDCHAR
STARTCHAR $00F1
ENCODING 241
SWIDTH 693 0
DWIDTH 13 0
BBX 9 14 2 0
BITMAP
2000
7A00
4600
0000
9E00
BF00
C180
C180
C180
C180
C180
C180
C180
C180
ENDCHAR
STARTCHAR $00F2
ENCODING 242
SWIDTH 640 0
DWIDTH 12 0
BBX 10 14 1 0
BITMAP
3000
1800
0400
0000
1E00
7F80
E180
C0C0
C0C0
C0C0
C0C0
E180
7F80
1E00
ENDCHAR
STARTCHAR $00F3
ENCODING 243
SWIDTH 640 0
DWIDTH 12 0
BBX 10 14 1 0
BITMAP
0300
0400
0800
0000
1E00
7F80
E180
C0C0
C0C0
C0C0
C0C0
E180
7F80
1E00
ENDCHAR
STARTCHAR $00F4
ENCODING 244
SWIDTH 640 0
DWIDTH 12 0
BBX 10 14 1 0
BITMAP
0C00
1200
2100
0000
1E00
7F80
E180
C0C0
C0C0
C0C0
C0C0
E180
7F80
1E00
ENDCHAR
STARTCHAR $00F5
ENCODING 245
SWIDTH 640 0
DWIDTH 12 0
BBX 10 13 1 1
BITMAP
3900
2600
0000
1E00
7F80
E180
C0C0
C0C0
C0C0
C0C0
E180
7F80
1E00
ENDCHAR
STARTCHAR $00F6
ENCODING 246
SWIDTH 640 0
DWIDTH 12 0
BBX 10 14 1 0
BITMAP
3200
3300
0000
0000
1E00
7F80
E180
C0C0
C0C0
C0C0
C0C0
E180
7F80
1E00
ENDCHAR
STARTCHAR $00F7
ENCODING 247
SWIDTH 586 0
DWIDTH 11 0
BBX 9 10 1 2
BITMAP
0800
1800
0000
0000
0000
FF80
0000
0000
1800
0800
ENDCHAR
STARTCHAR $00F8
ENCODING 248
SWIDTH 640 0
DWIDTH 12 0
BBX 10 12 1 -1
BITMAP
0080
1F80
7F80
E380
C6C0
C4C0
C8C0
D8C0
F180
7F80
7E00
4000
ENDCHAR
STARTCHAR $00F9
ENCODING 249
SWIDTH 693 0
DWIDTH 13 0
BBX 9 14 2 0
BITMAP
3000
1800
0000
0000
8180
8180
8180
8180
8180
8180
C180
C380
FF80
3D80
ENDCHAR
STARTCHAR $00FA
ENCODING 250
SWIDTH 693 0
DWIDTH 13 0
BBX 9 14 2 0
BITMAP
0600
0C00
1000
0000
8180
8180
8180
8180
8180
8180
C180
C380
FF80
3D80
ENDCHAR
STARTCHAR $00FB
ENCODING 251
SWIDTH 693 0
DWIDTH 13 0
BBX 9 14 2 0
BITMAP
1C00
3600
4000
0000
8180
8180
8180
8180
8180
8180
C180
C380
FF80
3D80
ENDCHAR
STARTCHAR $00FC
ENCODING 252
SWIDTH 693 0
DWIDTH 13 0
BBX 9 14 2 0
BITMAP
2600
2600
0000
0000
8180
8180
8180
8180
8180
8180
C180
C380
FF80
3D80
ENDCHAR
STARTCHAR $00FD
ENCODING 253
SWIDTH 533 0
DWIDTH 10 0
BBX 10 18 0 -4
BITMAP
0300
0400
0800
0000
C040
40C0
6080
6180
3180
3300
1B00
1A00
0E00
0C00
0C00
0C00
F800
F000
ENDCHAR
STARTCHAR $00FE
ENCODING 254
SWIDTH 693 0
DWIDTH 13 0
BBX 10 18 2 -4
BITMAP
C000
C000
C000
C000
DE00
FF80
C180
C0C0
C0C0
C0C0
C0C0
C180
FF80
DE00
C000
C000
C000
C000
ENDCHAR
STARTCHAR $00FF
ENCODING 255
SWIDTH 533 0
DWIDTH 10 0
BBX 10 18 0 -4
BITMAP
3300
3300
0000
0000
C040
40C0
6080
6180
3180
3300
1B00
1A00
0E00
0C00
0C00
0C00
F800
F000
ENDCHAR
STARTCHAR $0100
ENCODING 256
SWIDTH 746 0
DWIDTH 14 0
BBX 14 16 0 0
BITMAP
0FC0
0000
0000
0300
0700
0780
0C80
0CC0
18C0
1860
3060
3030
3FF0
6018
6018
C00C
ENDCHAR
STARTCHAR $0101
ENCODING 257
SWIDTH 586 0
DWIDTH 11 0
BBX 9 13 1 0
BITMAP
7F00
0000
0000
3E00
FF00
0300
0180
7F80
E180
C180
C380
E780
7D80
ENDCHAR
STARTCHAR $0102
ENCODING 258
SWIDTH 746 0
DWIDTH 14 0
BBX 14 17 0 0
BITMAP
0840
08C0
0780
0000
0300
0700
0780
0C80
0CC0
18C0
1860
3060
3030
3FF0
6018
6018
C00C
ENDCHAR
STARTCHAR $0103
ENCODING 259
SWIDTH 586 0
DWIDTH 11 0
BBX 9 14 1 0
BITMAP
6200
2200
1C00
0000
3E00
FF00
0300
0180
7F80
E180
C180
C380
E780
7D80
ENDCHAR
STARTCHAR $0104
ENCODING 260
SWIDTH 746 0
DWIDTH 14 0
BBX 14 17 0 -4
BITMAP
0300
0700
0780
0C80
0CC0
18C0
1860
3060
3030
3FF0
6018
6018
C00C
0018
0030
0030
001C
ENDCHAR
STARTCHAR $0105
ENCODING 261
SWIDTH 586 0
DWIDTH 11 0
BBX 9 14 1 -4
BITMAP
3E00
FF00
0300
0180
7F80
E180
C180
C380
E780
7D80
0300
0600
0400
0380
ENDCHAR
STARTCHAR $0106
ENCODING 262
SWIDTH 746 0
DWIDTH 14 0
BBX 11 16 1 0
BITMAP
0180
0300
0000
0FC0
3FE0
7020
6000
C000
C000
C000
C000
C000
6000
7020
3FE0
0FC0
ENDCHAR
STARTCHAR $0107
ENCODING 263
SWIDTH 586 0
DWIDTH 11 0
BBX 9 14 1 0
BITMAP
0600
0C00
0000
0000
1E00
7F80
E100
C000
C000
C000
C000
E100
7F80
1E00
ENDCHAR
STARTCHAR $0108
ENCODING 264
SWIDTH 746 0
DWIDTH 14 0
BBX 11 16 1 0
BITMAP
0780
0CC0
0000
0FC0
3FE0
7020
6000
C000
C000
C000
C000
C000
6000
7020
3FE0
0FC0
ENDCHAR
STARTCHAR $0109
ENCODING 265
SWIDTH 586 0
DWIDTH 11 0
BBX 9 14 1 0
BITMAP
1C00
3600
0100
0000
1E00
7F80
E100
C000
C000
C000
C000
E100
7F80
1E00
ENDCHAR
STARTCHAR $010A
ENCODING 266
SWIDTH 746 0
DWIDTH 14 0
BBX 11 16 1 0
BITMAP
0300
0300
0000
0FC0
3FE0
7020
6000
C000
C000
C000
C000
C000
6000
7020
3FE0
0FC0
ENDCHAR
STARTCHAR $010B
ENCODING 267
SWIDTH 586 0
DWIDTH 11 0
BBX 9 14 1 0
BITMAP
0C00
0C00
0000
0000
1E00
7F80
E100
C000
C000
C000
C000
E100
7F80
1E00
ENDCHAR
STARTCHAR $010C
ENCODING 268
SWIDTH 746 0
DWIDTH 14 0
BBX 11 16 1 0
BITMAP
0DC0
0700
0000
0FC0
3FE0
7020
6000
C000
C000
C000
C000
C000
6000
7020
3FE0
0FC0
ENDCHAR
STARTCHAR $010D
ENCODING 269
SWIDTH 586 0
DWIDTH 11 0
BBX 9 14 1 0
BITMAP
3300
1E00
0000
0000
1E00
7F80
E100
C000
C000
C000
C000
E100
7F80
1E00
ENDCHAR
STARTCHAR $010E
ENCODING 270
SWIDTH 800 0
DWIDTH 15 0
BBX 13 16 2 0
BITMAP
3300
0C00
0000
FF00
FFC0
C060
C030
C030
C018
C018
C018
C030
C030
C060
FFC0
FF00
ENDCHAR
STARTCHAR $010F
ENCODING 271
SWIDTH 693 0
DWIDTH 13 0
BBX 13 15 1 0
BITMAP
0008
00C8
00C8
00C8
00C0
3EC0
7FC0
E1C0
C0C0
C0C0
C0C0
C0C0
E1C0
7FC0
3EC0
ENDCHAR
STARTCHAR $0110
ENCODING 272
SWIDTH 853 0
DWIDTH 16 0
BBX 15 13 0 0
BITMAP
3FE0
3FF0
3018
300C
3004
3006
FF06
3006
300C
300C
3018
3FF0
3FE0
ENDCHAR
STARTCHAR $0111
ENCODING 273
SWIDTH 693 0
DWIDTH 13 0
BBX 12 14 1 0
BITMAP
00C0
00C0
0FF0
00C0
3EC0
7FC0
E1C0
C0C0
C0C0
C0C0
C0C0
E1C0
7FC0
3EC0
ENDCHAR
STARTCHAR $0112
ENCODING 274
SWIDTH 693 0
DWIDTH 13 0
BBX 9 16 2 0
BITMAP
3F00
0000
0000
FF80
FF80
C000
C000
C000
FF00
FF00
C000
C000
C000
C000
FF80
FF80
ENDCHAR
STARTCHAR $0113
ENCODING 275
SWIDTH 586 0
DWIDTH 11 0
BBX 10 13 1 0
BITMAP
3F00
0000
0000
3E00
7F00
C180
C0C0
FFC0
C000
C000
E000
7F80
1F00
ENDCHAR
STARTCHAR $0114
ENCODING 276
SWIDTH 693 0
DWIDTH 13 0
BBX 9 17 2 0
BITMAP
2300
2200
1E00
0000
FF80
FF80
C000
C000
C000
FF00
FF00
C000
C000
C000
C000
FF80
FF80
ENDCHAR
STARTCHAR $0115
ENCODING 277
SWIDTH 586 0
DWIDTH 11 0
BBX 10 14 1 0
BITMAP
2100
2300
1E00
0000
3E00
7F00
C180
C0C0
FFC0
C000
C000
E000
7F80
1F00
ENDCHAR
STARTCHAR $0116
ENCODING 278
SWIDTH 693 0
DWIDTH 13 0
BBX 9 17 2 0
BITMAP
0C00
0C00
0000
0000
FF80
FF80
C000
C000
C000
FF00
FF00
C000
C000
C000
C000
FF80
FF80
ENDCHAR
STARTCHAR $0117
ENCODING 279
SWIDTH 586 0
DWIDTH 11 0
BBX 10 14 1 0
BITMAP
0C00
0C00
0000
0000
3E00
7F00
C180
C0C0
FFC0
C000
C000
E000
7F80
1F00
ENDCHAR
STARTCHAR $0118
ENCODING 280
SWIDTH 693 0
DWIDTH 13 0
BBX 10 17 2 -4
BITMAP
FF80
FF80
C000
C000
C000
FF00
FF00
C000
C000
C000
C000
FF80
FF80
0100
0200
0200
01C0
ENDCHAR
STARTCHAR $0119
ENCODING 281
SWIDTH 586 0
DWIDTH 11 0
BBX 10 14 1 -4
BITMAP
3E00
7F00
C180
C0C0
FFC0
C000
C000
E000
7F80
1F00
0600
0400
0400
0780
ENDCHAR
STARTCHAR $011A
ENCODING 282
SWIDTH 693 0
DWIDTH 13 0
BBX 9 16 2 0
BITMAP
3600
1C00
0000
FF80
FF80
C000
C000
C000
FF00
FF00
C000
C000
C000
C000
FF80
FF80
ENDCHAR
STARTCHAR $011B
ENCODING 283
SWIDTH 586 0
DWIDTH 11 0
BBX 10 14 1 0
BITMAP
3300
1E00
0000
0000
3E00
7F00
C180
C0C0
FFC0
C000
C000
E000
7F80
1F00
ENDCHAR
STARTCHAR $011C
ENCODING 284
SWIDTH 746 0
DWIDTH 14 0
BBX 12 17 1 0
BITMAP
0780
0CC0
0000
0000
0FC0
3FF0
7020
6000
C000
C000
C030
C030
C030
6030
7030
3FF0
0FC0
ENDCHAR
STARTCHAR $011D
ENCODING 285
SWIDTH 693 0
DWIDTH 13 0
BBX 10 18 1 -4
BITMAP
0E00
1B00
2000
0000
3EC0
7FC0
E0C0
C0C0
C0C0
C0C0
C0C0
61C0
3FC0
0CC0
00C0
40C0
FF80
3F00
ENDCHAR
STARTCHAR $011E
ENCODING 286
SWIDTH 746 0
DWIDTH 14 0
BBX 12 18 1 0
BITMAP
08C0
0880
0780
0000
0000
0FC0
3FF0
7020
6000
C000
C000
C030
C030
C030
6030
7030
3FF0
0FC0
ENDCHAR
STARTCHAR $011F
ENCODING 287
SWIDTH 693 0
DWIDTH 13 0
BBX 10 18 1 -4
BITMAP
2100
3300
1E00
0000
3EC0
7FC0
E0C0
C0C0
C0C0
C0C0
C0C0
61C0
3FC0
0CC0
00C0
40C0
FF80
3F00
ENDCHAR
STARTCHAR $0120
ENCODING 288
SWIDTH 746 0
DWIDTH 14 0
BBX 12 17 1 0
BITMAP
0300
0300
0000
0000
0FC0
3FF0
7020
6000
C000
C000
C030
C030
C030
6030
7030
3FF0
0FC0
ENDCHAR
STARTCHAR $0121
ENCODING 289
SWIDTH 693 0
DWIDTH 13 0
BBX 10 18 1 -4
BITMAP
0C00
0C00
0000
0000
3EC0
7FC0
E0C0
C0C0
C0C0
C0C0
C0C0
61C0
3FC0
0CC0
00C0
40C0
FF80
3F00
ENDCHAR
STARTCHAR $0122
ENCODING 290
SWIDTH 746 0
DWIDTH 14 0
BBX 12 18 1 -5
BITMAP
0FC0
3FF0
7020
6000
C000
C000
C030
C030
C030
6030
7030
3FF0
0FC0
0000
0000
0300
0200
0200
ENDCHAR
STARTCHAR $0123
ENCODING 291
SWIDTH 693 0
DWIDTH 13 0
BBX 10 19 1 -4
BITMAP
0400
0C00
0C00
0400
0000
3EC0
7FC0
E0C0
C0C0
C0C0
C0C0
C0C0
61C0
3FC0
0CC0
00C0
40C0
FF80
3F00
ENDCHAR
STARTCHAR $0124
ENCODING 292
SWIDTH 800 0
DWIDTH 15 0
BBX 11 16 2 0
BITMAP
0E00
1100
0000
C060
C060
C060
C060
C060
FFE0
FFE0
C060
C060
C060
C060
C060
C060
ENDCHAR
STARTCHAR $0125
ENCODING 293
SWIDTH 693 0
DWIDTH 13 0
BBX 11 17 0 0
BITMAP
7000
8800
0000
3000
3000
3000
3000
3780
3FC0
3060
3060
3060
3060
3060
3060
3060
3060
ENDCHAR
STARTCHAR $0126
ENCODING 294
SWIDTH 853 0
DWIDTH 16 0
BBX 15 13 0 0
BITMAP
3008
3008
FFFE
FFFE
3008
3FF8
3FF8
3008
3008
3008
3008
3008
3008
ENDCHAR
STARTCHAR $0127
ENCODING 295
SWIDTH 693 0
DWIDTH 13 0
BBX 11 14 0 0
BITMAP
3000
3000
FE00
3000
3780
3FC0
3060
3060
3060
3060
3060
3060
3060
3060
ENDCHAR
STARTCHAR $0128
ENCODING 296
SWIDTH 320 0
DWIDTH 6 0
BBX 6 16 0 1
BITMAP
E4
98
00
30
30
30
30
30
30
30
30
30
30
30
30
30
ENDCHAR
STARTCHAR $0129
ENCODING 297
SWIDTH 266 0
DWIDTH 5 0
BBX 5 14 0 0
BITMAP
E8
B8
00
00
30
30
30
30
30
30
30
30
30
30
ENDCHAR
STARTCHAR $012A
ENCODING 298
SWIDTH 320 0
DWIDTH 6 0
BBX 5 16 0 0
BITMAP
F8
00
00
30
30
30
30
30
30
30
30
30
30
30
30
30
ENDCHAR
STARTCHAR $012B
ENCODING 299
SWIDTH 266 0
DWIDTH 5 0
BBX 5 13 0 0
BITMAP
F8
00
00
30
30
30
30
30
30
30
30
30
30
ENDCHAR
STARTCHAR $012C
ENCODING 300
SWIDTH 320 0
DWIDTH 6 0
BBX 6 17 0 0
BITMAP
84
CC
78
00
30
30
30
30
30
30
30
30
30
30
30
30
30
ENDCHAR
STARTCHAR $012D
ENCODING 301
SWIDTH 266 0
DWIDTH 5 0
BBX 5 14 0 0
BITMAP
88
C8
70
00
30
30
30
30
30
30
30
30
30
30
ENDCHAR
STARTCHAR $012E
ENCODING 302
SWIDTH 320 0
DWIDTH 6 0
BBX 3 17 1 -4
BITMAP
60
60
60
60
60
60
60
60
60
60
60
60
60
40
40
C0
60
ENDCHAR
STARTCHAR $012F
ENCODING 303
SWIDTH 266 0
DWIDTH 5 0
BBX 3 18 1 -4
BITMAP
E0
60
00
00
60
60
60
60
60
60
60
60
60
60
40
80
80
60
ENDCHAR
STARTCHAR $0130
ENCODING 304
SWIDTH 320 0
DWIDTH 6 0
BBX 2 17 2 0
BITMAP
C0
C0
00
00
C0
C0
C0
C0
C0
C0
C0
C0
C0
C0
C0
C0
C0
ENDCHAR
STARTCHAR $0131
ENCODING 305
SWIDTH 266 0
DWIDTH 5 0
BBX 2 10 2 0
BITMAP
C0
C0
C0
C0
C0
C0
C0
C0
C0
C0
ENDCHAR
STARTCHAR $0132
ENCODING 306
SWIDTH 746 0
DWIDTH 14 0
BBX 10 13 2 0
BITMAP
C0C0
C0C0
C0C0
C0C0
C0C0
C0C0
C0C0
00C0
00C0
0180
8180
FF00
7E00
ENDCHAR
STARTCHAR $0133
ENCODING 307
SWIDTH 586 0
DWIDTH 11 0
BBX 8 18 1 -4
BITMAP
E3
63
00
00
63
63
63
63
63
63
63
63
63
63
03
03
1E
1E
ENDCHAR
STARTCHAR $0134
ENCODING 308
SWIDTH 533 0
DWIDTH 10 0
BBX 8 16 0 0
BITMAP
1C
22
00
7F
7F
03
03
03
03
03
03
03
03
83
FE
7C
ENDCHAR
STARTCHAR $0135
ENCODING 309
SWIDTH 266 0
DWIDTH 5 0
BBX 7 18 -2 -4
BITMAP
1C
16
20
00
0C
0C
0C
0C
0C
0C
0C
0C
0C
0C
0C
0C
78
F0
ENDCHAR
STARTCHAR $0136
ENCODING 310
SWIDTH 693 0
DWIDTH 13 0
BBX 11 18 2 -5
BITMAP
C0E0
C1C0
C180
C300
C600
CC00
DC00
FE00
E700
C380
C180
C0C0
C060
0000
0000
0C00
0400
0800
ENDCHAR
STARTCHAR $0137
ENCODING 311
SWIDTH 640 0
DWIDTH 12 0
BBX 9 19 2 -5
BITMAP
C000
C000
C000
C000
C380
C700
CE00
DC00
F800
EC00
CE00
C700
C300
C180
0000
0000
1800
1800
1000
ENDCHAR
STARTCHAR $0138
ENCODING 312
SWIDTH 586 0
DWIDTH 11 0
BBX 9 10 2 0
BITMAP
C380
C700
CE00
DC00
F800
EC00
CE00
C700
C300
C180
ENDCHAR
STARTCHAR $0139
ENCODING 313
SWIDTH 586 0
DWIDTH 11 0
BBX 9 16 2 0
BITMAP
7000
C000
0000
C000
C000
C000
C000
C000
C000
C000
C000
C000
C000
C000
FF80
FF80
ENDCHAR
STARTCHAR $013A
ENCODING 314
SWIDTH 266 0
DWIDTH 5 0
BBX 3 18 2 0
BITMAP
60
C0
00
00
C0
C0
C0
C0
C0
C0
C0
C0
C0
C0
C0
C0
C0
C0
ENDCHAR
STARTCHAR $013B
ENCODING 315
SWIDTH 586 0
DWIDTH 11 0
BBX 9 18 2 -5
BITMAP
C000
C000
C000
C000
C000
C000
C000
C000
C000
C000
C000
FF80
FF80
0000
0000
0C00
0800
0800
ENDCHAR
STARTCHAR $013C
ENCODING 316
SWIDTH 266 0
DWIDTH 5 0
BBX 2 19 2 -5
BITMAP
C0
C0
C0
C0
C0
C0
C0
C0
C0
C0
C0
C0
C0
C0
00
00
C0
80
80
ENDCHAR
STARTCHAR $013D
ENCODING 317
SWIDTH 586 0
DWIDTH 11 0
BBX 9 14 2 0
BITMAP
0300
C300
C300
C200
C000
C000
C000
C000
C000
C000
C000
C000
FF80
FF80
ENDCHAR
STARTCHAR $013E
ENCODING 318
SWIDTH 266 0
DWIDTH 5 0
BBX 5 15 2 0
BITMAP
18
D8
D8
D0
C0
C0
C0
C0
C0
C0
C0
C0
C0
C0
C0
ENDCHAR
STARTCHAR $013F
ENCODING 319
SWIDTH 586 0
DWIDTH 11 0
BBX 9 13 2 0
BITMAP
C000
C000
C000
C000
C000
C700
C200
C000
C000
C000
C000
FF80
FF80
ENDCHAR
STARTCHAR $0140
ENCODING 320
SWIDTH 320 0
DWIDTH 6 0
BBX 5 14 2 0
BITMAP
C0
C0
C0
C0
C0
C0
D8
D8
C0
C0
C0
C0
C0
C0
ENDCHAR
STARTCHAR $0141
ENCODING 321
SWIDTH 586 0
DWIDTH 11 0
BBX 11 13 0 0
BITMAP
3000
3000
3000
3400
3C00
3800
7000
F000
3000
3000
3000
3FE0
3FE0
ENDCHAR
STARTCHAR $0142
ENCODING 322
SWIDTH 320 0
DWIDTH 6 0
BBX 5 14 0 0
BITMAP
30
30
30
30
30
38
38
70
F0
30
30
30
30
30
ENDCHAR
STARTCHAR $0143
ENCODING 323
SWIDTH 800 0
DWIDTH 15 0
BBX 11 16 2 0
BITMAP
0300
0600
0000
C060
E060
F060
F060
D860
CC60
CE60
C760
C360
C1E0
C0E0
C0E0
C060
ENDCHAR
STARTCHAR $0144
ENCODING 324
SWIDTH 693 0
DWIDTH 13 0
BBX 9 14 2 0
BITMAP
0600
0C00
0000
0000
9E00
BF00
C180
C180
C180
C180
C180
C180
C180
C180
ENDCHAR
STARTCHAR $0145
ENCODING 325
SWIDTH 800 0
DWIDTH 15 0
BBX 11 18 2 -5
BITMAP
C060
E060
F060
F060
D860
CC60
CE60
C760
C360
C1E0
C0E0
C0E0
C060
0000
0000
0600
0400
0400
ENDCHAR
STARTCHAR $0146
ENCODING 326
SWIDTH 693 0
DWIDTH 13 0
BBX 9 15 2 -5
BITMAP
9E00
BF00
C180
C180
C180
C180
C180
C180
C180
C180
0000
0000
1800
0800
0800
ENDCHAR
STARTCHAR $0147
ENCODING 327
SWIDTH 800 0
DWIDTH 15 0
BBX 11 16 2 0
BITMAP
1B00
0E00
0000
C060
E060
F060
F060
D860
CC60
CE60
C760
C360
C1E0
C0E0
C0E0
C060
ENDCHAR
STARTCHAR $0148
ENCODING 328
SWIDTH 693 0
DWIDTH 13 0
BBX 9 14 2 0
BITMAP
2200
1C00
0000
0000
9E00
BF00
C180
C180
C180
C180
C180
C180
C180
C180
ENDCHAR
STARTCHAR $0149
ENCODING 329
SWIDTH 746 0
DWIDTH 14 0
BBX 12 13 1 0
BITMAP
8000
8000
8000
B7C0
BFE0
3870
3030
3030
3030
3030
3030
3030
3030
ENDCHAR
STARTCHAR $014A
ENCODING 330
SWIDTH 800 0
DWIDTH 15 0
BBX 11 17 2 -4
BITMAP
C060
E060
F060
F060
D860
CC60
CE60
C760
C360
C1E0
C0E0
C0E0
C060
0060
0860
0FC0
0780
ENDCHAR
STARTCHAR $014B
ENCODING 331
SWIDTH 693 0
DWIDTH 13 0
BBX 9 14 2 -4
BITMAP
9E00
BF00
C180
C180
C180
C180
C180
C180
C180
C180
0180
0180
0F80
0F00
ENDCHAR
STARTCHAR $014C
ENCODING 332
SWIDTH 853 0
DWIDTH 16 0
BBX 14 16 1 0
BITMAP
0FC0
0000
0000
0FC0
3FE0
7030
6018
C00C
C00C
C00C
C00C
C00C
6018
7030
3FE0
0FC0
ENDCHAR
STARTCHAR $014D
ENCODING 333
SWIDTH 640 0
DWIDTH 12 0
BBX 10 13 1 0
BITMAP
3F00
0000
0000
1E00
7F80
E180
C0C0
C0C0
C0C0
C0C0
E180
7F80
1E00
ENDCHAR
STARTCHAR $014E
ENCODING 334
SWIDTH 853 0
DWIDTH 16 0
BBX 14 17 1 0
BITMAP
0840
0CC0
0780
0000
0FC0
3FE0
7030
6018
C00C
C00C
C00C
C00C
C00C
6018
7030
3FE0
0FC0
ENDCHAR
STARTCHAR $014F
ENCODING 335
SWIDTH 640 0
DWIDTH 12 0
BBX 10 14 1 0
BITMAP
2100
3300
1E00
0000
1E00
7F80
E180
C0C0
C0C0
C0C0
C0C0
E180
7F80
1E00
ENDCHAR
STARTCHAR $0150
ENCODING 336
SWIDTH 853 0
DWIDTH 16 0
BBX 14 16 1 0
BITMAP
0360
04C0
0000
0FC0
3FE0
7030
6018
C00C
C00C
C00C
C00C
C00C
6018
7030
3FE0
0FC0
ENDCHAR
STARTCHAR $0151
ENCODING 337
SWIDTH 640 0
DWIDTH 12 0
BBX 10 14 1 0
BITMAP
0D80
1B00
0000
0000
1E00
7F80
E180
C0C0
C0C0
C0C0
C0C0
E180
7F80
1E00
ENDCHAR
STARTCHAR $0152
ENCODING 338
SWIDTH 1120 0
DWIDTH 21 0
BBX 19 13 1 0
BITMAP
0FFFE0
3FFFE0
702000
602000
C02000
C03FC0
C03FC0
C02000
C02000
602000
702000
3FFFE0
0FFFE0
ENDCHAR
STARTCHAR $0153
ENCODING 339
SWIDTH 1066 0
DWIDTH 20 0
BBX 18 10 1 0
BITMAP
1E1F00
7FBF80
C1E0C0
C0C0C0
C0FFC0
C0C000
C0C000
E1E080
7FBF80
1E1F00
ENDCHAR
STARTCHAR $0154
ENCODING 340
SWIDTH 746 0
DWIDTH 14 0
BBX 11 16 2 0
BITMAP
0700
0C00
0000
FF00
FF80
C0C0
C040
C060
C040
C0C0
FF80
FF00
C300
C180
C0C0
C0C0
ENDCHAR
STARTCHAR $0155
ENCODING 341
SWIDTH 426 0
DWIDTH 8 0
BBX 5 14 2 0
BITMAP
18
30
40
00
98
B8
C0
C0
C0
C0
C0
C0
C0
C0
ENDCHAR
STARTCHAR $0156
ENCODING 342
SWIDTH 746 0
DWIDTH 14 0
BBX 11 18 2 -5
BITMAP
FF00
FF80
C0C0
C040
C060
C040
C0C0
FF80
FF00
C300
C180
C0C0
C0C0
0000
0000
0C00
0400
0800
ENDCHAR
STARTCHAR $0157
ENCODING 343
SWIDTH 426 0
DWIDTH 8 0
BBX 5 15 2 -5
BITMAP
98
B8
C0
C0
C0
C0
C0
C0
C0
C0
00
00
C0
80
80
ENDCHAR
STARTCHAR $0158
ENCODING 344
SWIDTH 746 0
DWIDTH 14 0
BBX 11 16 2 0
BITMAP
3300
0C00
0000
FF00
FF80
C0C0
C040
C060
C040
C0C0
FF80
FF00
C300
C180
C0C0
C0C0
ENDCHAR
STARTCHAR $0159
ENCODING 345
SWIDTH 426 0
DWIDTH 8 0
BBX 5 14 2 0
BITMAP
88
70
00
00
98
B8
C0
C0
C0
C0
C0
C0
C0
C0
ENDCHAR
STARTCHAR $015A
ENCODING 346
SWIDTH 640 0
DWIDTH 12 0
BBX 10 16 1 0
BITMAP
0700
0C00
0000
3F00
7F80
C080
C000
C000
6000
3E00
0F80
01C0
00C0
80C0
FF80
3F00
ENDCHAR
STARTCHAR $015B
ENCODING 347
SWIDTH 480 0
DWIDTH 9 0
BBX 8 14 1 0
BITMAP
0C
18
00
00
7E
FE
C0
C0
F0
3E
03
03
FE
7C
ENDCHAR
STARTCHAR $015C
ENCODING 348
SWIDTH 640 0
DWIDTH 12 0
BBX 10 16 1 0
BITMAP
1E00
3300
0000
3F00
7F80
C080
C000
C000
6000
3E00
0F80
01C0
00C0
80C0
FF80
3F00
ENDCHAR
STARTCHAR $015D
ENCODING 349
SWIDTH 480 0
DWIDTH 9 0
BBX 8 14 1 0
BITMAP
38
6C
00
00
7E
FE
C0
C0
F0
3E
03
03
FE
7C
ENDCHAR
STARTCHAR $015E
ENCODING 350
SWIDTH 640 0
DWIDTH 12 0
BBX 10 17 1 -4
BITMAP
3F00
7F80
C080
C000
C000
6000
3E00
0F80
01C0
00C0
80C0
FF80
3F00
0800
0C00
0200
1C00
ENDCHAR
STARTCHAR $015F
ENCODING 351
SWIDTH 480 0
DWIDTH 9 0
BBX 8 14 1 -4
BITMAP
7E
FE
C0
C0
F0
3E
03
03
FE
7C
10
18
08
38
ENDCHAR
STARTCHAR $0160
ENCODING 352
SWIDTH 640 0
DWIDTH 12 0
BBX 10 16 1 0
BITMAP
3300
0C00
0000
3F00
7F80
C080
C000
C000
6000
3E00
0F80
01C0
00C0
80C0
FF80
3F00
ENDCHAR
STARTCHAR $0161
ENCODING 353
SWIDTH 480 0
DWIDTH 9 0
BBX 8 14 1 0
BITMAP
64
38
00
00
7E
FE
C0
C0
F0
3E
03
03
FE
7C
ENDCHAR
STARTCHAR $0162
ENCODING 354
SWIDTH 586 0
DWIDTH 11 0
BBX 11 17 0 -4
BITMAP
FFE0
FFE0
0400
0400
0400
0400
0400
0400
0400
0400
0400
0400
0400
0400
0600
0200
0E00
ENDCHAR
STARTCHAR $0163
ENCODING 355
SWIDTH 426 0
DWIDTH 8 0
BBX 7 16 0 -4
BITMAP
30
30
FE
30
30
30
30
30
30
30
3E
1E
08
0C
06
1C
ENDCHAR
STARTCHAR $0164
ENCODING 356
SWIDTH 586 0
DWIDTH 11 0
BBX 11 16 0 0
BITMAP
1B00
0E00
0000
FFE0
FFE0
0400
0400
0400
0400
0400
0400
0400
0400
0400
0400
0400
ENDCHAR
STARTCHAR $0165
ENCODING 357
SWIDTH 426 0
DWIDTH 8 0
BBX 7 14 0 0
BITMAP
06
06
36
30
FE
30
30
30
30
30
30
30
3E
1E
ENDCHAR
STARTCHAR $0166
ENCODING 358
SWIDTH 586 0
DWIDTH 11 0
BBX 11 13 0 0
BITMAP
FFE0
FFE0
0400
0400
0400
0400
3F80
0400
0400
0400
0400
0400
0400
ENDCHAR
STARTCHAR $0167
ENCODING 359
SWIDTH 426 0
DWIDTH 8 0
BBX 7 12 0 0
BITMAP
30
30
FE
30
30
30
7E
30
30
30
3E
1E
ENDCHAR
STARTCHAR $0168
ENCODING 360
SWIDTH 800 0
DWIDTH 15 0
BBX 11 17 2 0
BITMAP
1000
3D00
2300
0000
C060
C060
C060
C060
C060
C060
C060
C060
C060
C060
60C0
7FC0
1F00
ENDCHAR
STARTCHAR $0169
ENCODING 361
SWIDTH 693 0
DWIDTH 13 0
BBX 9 14 2 0
BITMAP
2000
7A00
4600
0000
8180
8180
8180
8180
8180
8180
C180
C380
FF80
3D80
ENDCHAR
STARTCHAR $016A
ENCODING 362
SWIDTH 800 0
DWIDTH 15 0
BBX 11 16 2 0
BITMAP
3F00
0000
0000
C060
C060
C060
C060
C060
C060
C060
C060
C060
C060
60C0
7FC0
1F00
ENDCHAR
STARTCHAR $016B
ENCODING 363
SWIDTH 693 0
DWIDTH 13 0
BBX 9 13 2 0
BITMAP
7E00
0000
0000
8180
8180
8180
8180
8180
8180
C180
C380
FF80
3D80
ENDCHAR
STARTCHAR $016C
ENCODING 364
SWIDTH 800 0
DWIDTH 15 0
BBX 11 17 2 0
BITMAP
3100
1100
1E00
0000
C060
C060
C060
C060
C060
C060
C060
C060
C060
C060
60C0
7FC0
1F00
ENDCHAR
STARTCHAR $016D
ENCODING 365
SWIDTH 693 0
DWIDTH 13 0
BBX 9 14 2 0
BITMAP
4200
2200
3C00
0000
8180
8180
8180
8180
8180
8180
C180
C380
FF80
3D80
ENDCHAR
STARTCHAR $016E
ENCODING 366
SWIDTH 800 0
DWIDTH 15 0
BBX 11 18 2 0
BITMAP
0E00
1200
1200
0E00
0000
C060
C060
C060
C060
C060
C060
C060
C060
C060
C060
60C0
7FC0
1F00
ENDCHAR
STARTCHAR $016F
ENCODING 367
SWIDTH 693 0
DWIDTH 13 0
BBX 9 15 2 0
BITMAP
1C00
2400
2400
1800
0000
8180
8180
8180
8180
8180
8180
C180
C380
FF80
3D80
ENDCHAR
STARTCHAR $0170
ENCODING 368
SWIDTH 800 0
DWIDTH 15 0
BBX 11 16 2 0
BITMAP
0D80
1900
0000
C060
C060
C060
C060
C060
C060
C060
C060
C060
C060
60C0
7FC0
1F00
ENDCHAR
STARTCHAR $0171
ENCODING 369
SWIDTH 693 0
DWIDTH 13 0
BBX 9 14 2 0
BITMAP
1900
1200
2000
0000
8180
8180
8180
8180
8180
8180
C180
C380
FF80
3D80
ENDCHAR
STARTCHAR $0172
ENCODING 370
SWIDTH 800 0
DWIDTH 15 0
BBX 11 17 2 -4
BITMAP
C060
C060
C060
C060
C060
C060
C060
C060
C060
C060
60C0
7FC0
1F00
0C00
0800
0800
0E00
ENDCHAR
STARTCHAR $0173
ENCODING 371
SWIDTH 693 0
DWIDTH 13 0
BBX 9 14 2 -4
BITMAP
8180
8180
8180
8180
8180
8180
C180
C380
FF80
3D80
0300
0200
0600
0380
ENDCHAR
STARTCHAR $0174
ENCODING 372
SWIDTH 1120 0
DWIDTH 21 0
BBX 19 16 1 0
BITMAP
00E000
011000
000000
C06020
C0E060
C0E060
60B040
61B0C0
6190C0
331880
331980
330980
1E0F00
1E0F00
1E0700
0C0600
ENDCHAR
STARTCHAR $0175
ENCODING 373
SWIDTH 906 0
DWIDTH 17 0
BBX 17 14 0 0
BITMAP
01C000
036000
000000
000000
C08180
41C100
61C300
636200
236600
322600
163400
1C3C00
1C1C00
0C1800
ENDCHAR
STARTCHAR $0176
ENCODING 374
SWIDTH 640 0
DWIDTH 12 0
BBX 12 16 0 0
BITMAP
0F00
1980
0000
C030
6060
6060
30C0
1880
1980
0F00
0700
0600
0600
0600
0600
0600
ENDCHAR
STARTCHAR $0177
ENCODING 375
SWIDTH 533 0
DWIDTH 10 0
BBX 10 18 0 -4
BITMAP
0C00
1200
2100
0000
C040
40C0
6080
6180
3180
3300
1B00
1A00
0E00
0C00
0C00
0C00
F800
F000
ENDCHAR
STARTCHAR $0178
ENCODING 376
SWIDTH 640 0
DWIDTH 12 0
BBX 12 16 0 0
BITMAP
1980
0980
0000
C030
6060
6060
30C0
1880
1980
0F00
0700
0600
0600
0600
0600
0600
ENDCHAR
STARTCHAR $0179
ENCODING 377
SWIDTH 640 0
DWIDTH 12 0
BBX 11 16 1 0
BITMAP
0700
0C00
0000
FFE0
FFC0
01C0
0180
0300
0600
0C00
1800
3800
3000
6000
FFE0
FFE0
ENDCHAR
STARTCHAR $017A
ENCODING 378
SWIDTH 533 0
DWIDTH 10 0
BBX 8 14 1 0
BITMAP
06
18
00
00
FF
03
06
0C
18
30
30
60
C0
FF
ENDCHAR
STARTCHAR $017B
ENCODING 379
SWIDTH 640 0
DWIDTH 12 0
BBX 11 17 1 0
BITMAP
0C00
0C00
0000
0000
FFE0
FFC0
01C0
0180
0300
0600
0C00
1800
3800
3000
6000
FFE0
FFE0
ENDCHAR
STARTCHAR $017C
ENCODING 380
SWIDTH 533 0
DWIDTH 10 0
BBX 8 14 1 0
BITMAP
18
18
00
00
FF
03
06
0C
18
30
30
60
C0
FF
ENDCHAR
STARTCHAR $017D
ENCODING 381
SWIDTH 640 0
DWIDTH 12 0
BBX 11 16 1 0
BITMAP
3B00
0E00
0000
FFE0
FFC0
01C0
0180
0300
0600
0C00
1800
3800
3000
6000
FFE0
FFE0
ENDCHAR
STARTCHAR $017E
ENCODING 382
SWIDTH 533 0
DWIDTH 10 0
BBX 8 14 1 0
BITMAP
66
3C
00
00
FF
03
06
0C
18
30
30
60
C0
FF
ENDCHAR
STARTCHAR $017F
ENCODING 383
SWIDTH 320 0
DWIDTH 6 0
BBX 7 14 0 0
BITMAP
1E
1A
30
30
F0
30
30
30
30
30
30
30
30
30
ENDCHAR
STARTCHAR $018F
ENCODING 399
SWIDTH 800 0
DWIDTH 15 0
BBX 13 13 1 0
BITMAP
0F80
3FE0
2070
0038
0018
0018
FFF8
FFF8
C018
6018
7030
3FE0
0F80
ENDCHAR
STARTCHAR $0192
ENCODING 402
SWIDTH 426 0
DWIDTH 8 0
BBX 11 18 -2 -4
BITMAP
01E0
03E0
0200
0600
0600
0FC0
0600
0600
0600
0600
0400
0C00
0C00
0C00
0C00
0C00
7800
F000
ENDCHAR
STARTCHAR $01A0
ENCODING 416
SWIDTH 853 0
DWIDTH 16 0
BBX 14 16 1 0
BITMAP
0008
000C
0008
0FF8
3FF0
7038
6018
C00C
C00C
C00C
C00C
C00C
6018
7030
3FE0
0FC0
ENDCHAR
STARTCHAR $01A1
ENCODING 417
SWIDTH 640 0
DWIDTH 12 0
BBX 10 13 1 0
BITMAP
0040
0040
0040
1F80
7F80
E180
C0C0
C0C0
C0C0
C0C0
E180
7F80
1E00
ENDCHAR
STARTCHAR $01AF
ENCODING 431
SWIDTH 800 0
DWIDTH 15 0
BBX 13 16 2 0
BITMAP
0018
0008
0018
C070
C060
C060
C060
C060
C060
C060
C060
C060
C060
60C0
7FC0
1F00
ENDCHAR
STARTCHAR $01B0
ENCODING 432
SWIDTH 693 0
DWIDTH 13 0
BBX 11 13 2 0
BITMAP
0040
0060
0060
81C0
8180
8180
8180
8180
8180
C180
C380
FF80
3D80
ENDCHAR
STARTCHAR $01B7
ENCODING 439
SWIDTH 640 0
DWIDTH 12 0
BBX 10 13 1 0
BITMAP
FF80
FF80
0300
0600
0C00
0800
1F00
0180
00C0
00C0
8180
FF80
7E00
ENDCHAR
STARTCHAR $01C4
ENCODING 452
SWIDTH 1440 0
DWIDTH 27 0
BBX 25 16 2 0
BITMAP
0000EC00
00003800
00000000
FF03FF00
FFC3FF00
C0600600
C0300E00
C0300C00
C0181800
C0183000
C0186000
C030C000
C031C000
C0618000
FFC3FF80
FF03FF80
ENDCHAR
STARTCHAR $01C5
ENCODING 453
SWIDTH 1333 0
DWIDTH 25 0
BBX 23 13 2 0
BITMAP
FF80D8
FFC070
C06000
C033FC
C0300C
C01818
C01818
C01830
C03060
C030C0
C06180
FFC180
FF03FE
ENDCHAR
STARTCHAR $01C6
ENCODING 454
SWIDTH 1226 0
DWIDTH 23 0
BBX 21 14 1 0
BITMAP
00C320
00C1C0
00C000
00C000
3EC7F8
7FC030
C1C030
C0C060
C0C0C0
C0C180
C0C300
E1C300
7FC600
3ECFF8
ENDCHAR
STARTCHAR $01C7
ENCODING 455
SWIDTH 1120 0
DWIDTH 21 0
BBX 17 13 2 0
BITMAP
C03F80
C03F80
C00180
C00180
C00180
C00180
C00180
C00180
C00180
C00180
C02180
FFFF00
FF9E00
ENDCHAR
STARTCHAR $01C8
ENCODING 456
SWIDTH 853 0
DWIDTH 16 0
BBX 13 18 2 -4
BITMAP
0018
C018
C000
C000
C018
C018
C018
C018
C018
C018
C018
C018
FF98
FF98
0018
0018
00F0
00E0
ENDCHAR
STARTCHAR $01C9
ENCODING 457
SWIDTH 586 0
DWIDTH 11 0
BBX 7 18 2 -4
BITMAP
C6
C6
C0
C0
C6
C6
C6
C6
C6
C6
C6
C6
C6
C6
06
06
3C
3C
ENDCHAR
STARTCHAR $01CA
ENCODING 458
SWIDTH 1333 0
DWIDTH 25 0
BBX 21 13 2 0
BITMAP
C063F8
E063F8
F06018
F06018
D86018
CC6018
CE6018
C76018
C36018
C1E018
C0E218
C0E7F0
C061E0
ENDCHAR
STARTCHAR $01CB
ENCODING 459
SWIDTH 1120 0
DWIDTH 21 0
BBX 17 18 2 -4
BITMAP
000180
C06180
E06000
F06000
F06180
D86180
CC6180
C66180
C76180
C36180
C1E180
C0E180
C06180
C06180
000180
000180
000F00
000F00
ENDCHAR
STARTCHAR $01CC
ENCODING 460
SWIDTH 960 0
DWIDTH 18 0
BBX 15 18 2 -4
BITMAP
000C
000E
0000
0000
9E04
BF04
C184
C184
C184
C184
C184
C184
C184
C184
0004
000C
007C
0078
ENDCHAR
STARTCHAR $01CD
ENCODING 461
SWIDTH 746 0
DWIDTH 14 0
BBX 14 16 0 0
BITMAP
0DC0
0700
0000
0300
0700
0780
0C80
0CC0
18C0
1860
3060
3030
3FF0
6018
6018
C00C
ENDCHAR
STARTCHAR $01CE
ENCODING 462
SWIDTH 586 0
DWIDTH 11 0
BBX 9 14 1 0
BITMAP
2200
1C00
0000
0000
3E00
FF00
0300
0180
7F80
E180
C180
C380
E780
7D80
ENDCHAR
STARTCHAR $01D3
ENCODING 467
SWIDTH 800 0
DWIDTH 15 0
BBX 11 16 2 0
BITMAP
1B00
0E00
0000
C060
C060
C060
C060
C060
C060
C060
C060
C060
C060
60C0
7FC0
1F00
ENDCHAR
STARTCHAR $01D4
ENCODING 468
SWIDTH 693 0
DWIDTH 13 0
BBX 9 14 2 0
BITMAP
6600
3C00
0000
0000
8180
8180
8180
8180
8180
8180
C180
C380
FF80
3D80
ENDCHAR
STARTCHAR $01E4
ENCODING 484
SWIDTH 800 0
DWIDTH 15 0
BBX 14 13 1 0
BITMAP
0FC0
3FF0
7020
6000
C000
C000
C030
C030
C1FC
6030
7030
3FF0
0FC0
ENDCHAR
STARTCHAR $01E5
ENCODING 485
SWIDTH 693 0
DWIDTH 13 0
BBX 11 14 1 -4
BITMAP
3EC0
7FC0
C0C0
C0C0
C0C0
C0C0
C0C0
7FC0
3EC0
00C0
0FE0
40C0
FF80
3F00
ENDCHAR
STARTCHAR $01E6
ENCODING 486
SWIDTH 746 0
DWIDTH 14 0
BBX 12 17 1 0
BITMAP
0DC0
0700
0000
0000
0FC0
3FF0
7020
6000
C000
C000
C030
C030
C030
6030
7030
3FF0
0FC0
ENDCHAR
STARTCHAR $01E7
ENCODING 487
SWIDTH 693 0
DWIDTH 13 0
BBX 10 18 1 -4
BITMAP
3300
1E00
0000
0000
3EC0
7FC0
E0C0
C0C0
C0C0
C0C0
C0C0
61C0
3FC0
0CC0
00C0
40C0
FF80
3F00
ENDCHAR
STARTCHAR $01E8
ENCODING 488
SWIDTH 693 0
DWIDTH 13 0
BBX 11 16 2 0
BITMAP
3300
0C00
0000
C0E0
C1C0
C180
C300
C600
CC00
DC00
FE00
E700
C380
C180
C0C0
C060
ENDCHAR
STARTCHAR $01E9
ENCODING 489
SWIDTH 640 0
DWIDTH 12 0
BBX 11 18 0 0
BITMAP
8800
7000
0000
0000
3000
3000
3000
3000
30E0
31C0
3380
3700
3E00
3B00
3380
31C0
30C0
3060
ENDCHAR
STARTCHAR $01EA
ENCODING 490
SWIDTH 853 0
DWIDTH 16 0
BBX 14 17 1 -4
BITMAP
0FC0
3FE0
7030
6018
C00C
C00C
C00C
C00C
C00C
6018
7030
3FE0
0FC0
0200
0400
0400
0780
ENDCHAR
STARTCHAR $01EB
ENCODING 491
SWIDTH 640 0
DWIDTH 12 0
BBX 10 14 1 -4
BITMAP
1E00
7F80
E180
C0C0
C0C0
C0C0
C0C0
E180
7F80
1E00
0C00
1800
1800
0E00
ENDCHAR
STARTCHAR $01EE
ENCODING 494
SWIDTH 640 0
DWIDTH 12 0
BBX 10 16 1 0
BITMAP
3700
1C00
0000
FF80
FF80
0300
0600
0C00
0800
1F00
0180
00C0
00C0
8180
FF80
7E00
ENDCHAR
STARTCHAR $01EF
ENCODING 495
SWIDTH 533 0
DWIDTH 10 0
BBX 9 18 0 -4
BITMAP
6600
3C00
0000
0000
FF80
FF80
0300
0600
0C00
0C00
1E00
0700
0180
0180
0180
8180
FF00
3E00
ENDCHAR
STARTCHAR $01FA
ENCODING 506
SWIDTH 746 0
DWIDTH 14 0
BBX 14 19 0 0
BITMAP
0040
0780
0480
0480
0300
0000
0300
0700
0780
0C80
0CC0
18C0
1860
3060
3030
3FF0
6018
6018
C00C
ENDCHAR
STARTCHAR $01FB
ENCODING 507
SWIDTH 586 0
DWIDTH 11 0
BBX 9 16 1 0
BITMAP
0300
1E00
2400
2400
1C00
0000
3E00
FF00
0300
0180
7F80
E180
C180
C380
E780
7D80
ENDCHAR
STARTCHAR $01FC
ENCODING 508
SWIDTH 1066 0
DWIDTH 20 0
BBX 19 16 0 0
BITMAP
003800
006000
000000
01FFC0
01FFC0
036000
036000
066000
0C7F80
0C7F80
186000
1FE000
3FE000
606000
607FE0
C07FE0
ENDCHAR
STARTCHAR $01FD
ENCODING 509
SWIDTH 1013 0
DWIDTH 19 0
BBX 17 14 1 0
BITMAP
00C000
018000
000000
000000
3E3C00
FFFE00
038300
018180
7FFF80
E18000
C18000
C3C000
E6FF00
7C3E00
ENDCHAR
STARTCHAR $01FE
ENCODING 510
SWIDTH 853 0
DWIDTH 16 0
BBX 14 17 1 -1
BITMAP
01C0
0300
0018
0FD0
3FE0
7070
60D8
C08C
C10C
C30C
C60C
C40C
6818
7830
3FE0
2FC0
4000
ENDCHAR
STARTCHAR $01FF
ENCODING 511
SWIDTH 640 0
DWIDTH 12 0
BBX 10 15 1 -1
BITMAP
0300
0C00
0000
0080
1F00
7F80
E380
C6C0
C4C0
C8C0
D8C0
F180
7F80
7E00
4000
ENDCHAR
STARTCHAR $0200
ENCODING 512
SWIDTH 746 0
DWIDTH 14 0
BBX 14 16 0 0
BITMAP
1B00
0D80
0000
0300
0700
0780
0C80
0CC0
18C0
1860
3060
3030
3FF0
6018
6018
C00C
ENDCHAR
STARTCHAR $0201
ENCODING 513
SWIDTH 586 0
DWIDTH 11 0
BBX 9 14 1 0
BITMAP
CC00
6400
0000
0000
3E00
FF00
0300
0180
7F80
E180
C180
C380
E780
7D80
ENDCHAR
STARTCHAR $0202
ENCODING 514
SWIDTH 746 0
DWIDTH 14 0
BBX 14 17 0 0
BITMAP
0780
0CC0
0840
0000
0300
0700
0780
0C80
0CC0
18C0
1860
3060
3030
3FF0
6018
6018
C00C
ENDCHAR
STARTCHAR $0203
ENCODING 515
SWIDTH 586 0
DWIDTH 11 0
BBX 9 14 1 0
BITMAP
1C00
2200
6200
0000
3E00
FF00
0300
0180
7F80
E180
C180
C380
E780
7D80
ENDCHAR
STARTCHAR $0204
ENCODING 516
SWIDTH 693 0
DWIDTH 13 0
BBX 9 16 2 0
BITMAP
6C00
2600
0000
FF80
FF80
C000
C000
C000
FF00
FF00
C000
C000
C000
C000
FF80
FF80
ENDCHAR
STARTCHAR $0205
ENCODING 517
SWIDTH 586 0
DWIDTH 11 0
BBX 10 14 1 0
BITMAP
6C00
2600
0000
0000
3E00
7F00
C180
C0C0
FFC0
C000
C000
E000
7F80
1F00
ENDCHAR
STARTCHAR $0206
ENCODING 518
SWIDTH 693 0
DWIDTH 13 0
BBX 9 17 2 0
BITMAP
1C00
2200
2300
0000
FF80
FF80
C000
C000
C000
FF00
FF00
C000
C000
C000
C000
FF80
FF80
ENDCHAR
STARTCHAR $0207
ENCODING 519
SWIDTH 586 0
DWIDTH 11 0
BBX 10 14 1 0
BITMAP
1E00
2300
2100
0000
3E00
7F00
C180
C0C0
FFC0
C000
C000
E000
7F80
1F00
ENDCHAR
STARTCHAR $0208
ENCODING 520
SWIDTH 320 0
DWIDTH 6 0
BBX 6 16 -1 0
BITMAP
D8
6C
00
18
18
18
18
18
18
18
18
18
18
18
18
18
ENDCHAR
STARTCHAR $0209
ENCODING 521
SWIDTH 266 0
DWIDTH 5 0
BBX 6 14 -1 0
BITMAP
98
C8
04
00
18
18
18
18
18
18
18
18
18
18
ENDCHAR
STARTCHAR $020A
ENCODING 522
SWIDTH 320 0
DWIDTH 6 0
BBX 6 17 0 0
BITMAP
78
CC
84
00
30
30
30
30
30
30
30
30
30
30
30
30
30
ENDCHAR
STARTCHAR $020B
ENCODING 523
SWIDTH 266 0
DWIDTH 5 0
BBX 5 14 0 0
BITMAP
70
C8
88
00
30
30
30
30
30
30
30
30
30
30
ENDCHAR
STARTCHAR $020C
ENCODING 524
SWIDTH 853 0
DWIDTH 16 0
BBX 14 16 1 0
BITMAP
1B00
0D80
0000
0FC0
3FE0
7030
6018
C00C
C00C
C00C
C00C
C00C
6018
7030
3FE0
0FC0
ENDCHAR
STARTCHAR $020D
ENCODING 525
SWIDTH 640 0
DWIDTH 12 0
BBX 10 14 1 0
BITMAP
6C00
2600
1000
0000
1E00
7F80
E180
C0C0
C0C0
C0C0
C0C0
E180
7F80
1E00
ENDCHAR
STARTCHAR $020E
ENCODING 526
SWIDTH 853 0
DWIDTH 16 0
BBX 14 16 1 0
BITMAP
0780
08C0
0000
0FC0
3FE0
7030
6018
C00C
C00C
C00C
C00C
C00C
6018
7030
3FE0
0FC0
ENDCHAR
STARTCHAR $020F
ENCODING 527
SWIDTH 640 0
DWIDTH 12 0
BBX 10 14 1 0
BITMAP
1E00
3300
2100
0000
1E00
7F80
E180
C0C0
C0C0
C0C0
C0C0
E180
7F80
1E00
ENDCHAR
STARTCHAR $0210
ENCODING 528
SWIDTH 746 0
DWIDTH 14 0
BBX 11 16 2 0
BITMAP
6C00
3600
0000
FF00
FF80
C0C0
C040
C060
C040
C0C0
FF80
FF00
C300
C180
C0C0
C0C0
ENDCHAR
STARTCHAR $0211
ENCODING 529
SWIDTH 426 0
DWIDTH 8 0
BBX 7 14 0 0
BITMAP
C8
6C
00
00
26
2E
30
30
30
30
30
30
30
30
ENDCHAR
STARTCHAR $0212
ENCODING 530
SWIDTH 746 0
DWIDTH 14 0
BBX 11 17 2 0
BITMAP
1E00
3300
2100
0000
FF00
FF80
C0C0
C040
C060
C040
C0C0
FF80
FF00
C300
C180
C0C0
C0C0
ENDCHAR
STARTCHAR $0213
ENCODING 531
SWIDTH 426 0
DWIDTH 8 0
BBX 6 14 1 0
BITMAP
38
44
C4
00
4C
5C
60
60
60
60
60
60
60
60
ENDCHAR
STARTCHAR $0214
ENCODING 532
SWIDTH 800 0
DWIDTH 15 0
BBX 11 16 2 0
BITMAP
7600
1200
0000
C060
C060
C060
C060
C060
C060
C060
C060
C060
C060
60C0
7FC0
1F00
ENDCHAR
STARTCHAR $0215
ENCODING 533
SWIDTH 693 0
DWIDTH 13 0
BBX 9 14 2 0
BITMAP
C800
6C00
0000
0000
8180
8180
8180
8180
8180
8180
C180
C380
FF80
3D80
ENDCHAR
STARTCHAR $0216
ENCODING 534
SWIDTH 800 0
DWIDTH 15 0
BBX 11 17 2 0
BITMAP
0E00
1100
3100
0000
C060
C060
C060
C060
C060
C060
C060
C060
C060
C060
60C0
7FC0
1F00
ENDCHAR
STARTCHAR $0217
ENCODING 535
SWIDTH 693 0
DWIDTH 13 0
BBX 9 14 2 0
BITMAP
3C00
2200
4200
0000
8180
8180
8180
8180
8180
8180
C180
C380
FF80
3D80
ENDCHAR
STARTCHAR $0218
ENCODING 536
SWIDTH 640 0
DWIDTH 12 0
BBX 10 18 1 -5
BITMAP
3F00
7F80
C080
C000
C000
6000
3E00
0F80
01C0
00C0
80C0
FF80
3F00
0000
0000
0C00
0400
0800
ENDCHAR
STARTCHAR $0219
ENCODING 537
SWIDTH 480 0
DWIDTH 9 0
BBX 8 15 1 -5
BITMAP
7E
FE
C0
C0
F0
3E
03
03
FE
7C
00
00
18
10
10
ENDCHAR
STARTCHAR $021A
ENCODING 538
SWIDTH 586 0
DWIDTH 11 0
BBX 11 18 0 -5
BITMAP
FFE0
FFE0
0400
0400
0400
0400
0400
0400
0400
0400
0400
0400
0400
0000
0000
0400
0400
0400
ENDCHAR
STARTCHAR $021B
ENCODING 539
SWIDTH 426 0
DWIDTH 8 0
BBX 7 17 0 -5
BITMAP
30
30
FE
30
30
30
30
30
30
30
3E
1E
00
00
0C
0C
08
ENDCHAR
STARTCHAR $021E
ENCODING 542
SWIDTH 800 0
DWIDTH 15 0
BBX 11 16 2 0
BITMAP
1B00
0E00
0000
C060
C060
C060
C060
C060
FFE0
FFE0
C060
C060
C060
C060
C060
C060
ENDCHAR
STARTCHAR $021F
ENCODING 543
SWIDTH 693 0
DWIDTH 13 0
BBX 11 18 0 0
BITMAP
8800
7000
0000
0000
3000
3000
3000
3000
3780
3FC0
3060
3060
3060
3060
3060
3060
3060
3060
ENDCHAR
STARTCHAR $022A
ENCODING 554
SWIDTH 853 0
DWIDTH 16 0
BBX 14 18 1 0
BITMAP
0FC0
0000
0C80
0C80
0000
0FC0
3FE0
7030
6018
C00C
C00C
C00C
C00C
C00C
6018
7030
3FE0
0FC0
ENDCHAR
STARTCHAR $022B
ENCODING 555
SWIDTH 640 0
DWIDTH 12 0
BBX 10 16 1 0
BITMAP
3F00
0000
1200
3200
0000
0000
1E00
7F80
E180
C0C0
C0C0
C0C0
C0C0
E180
7F80
1E00
ENDCHAR
STARTCHAR $022C
ENCODING 556
SWIDTH 853 0
DWIDTH 16 0
BBX 14 18 1 0
BITMAP
0FC0
0000
0E40
0980
0000
0FC0
3FE0
7030
6018
C00C
C00C
C00C
C00C
C00C
6018
7030
3FE0
0FC0
ENDCHAR
STARTCHAR $022D
ENCODING 557
SWIDTH 640 0
DWIDTH 12 0
BBX 10 15 1 0
BITMAP
3F00
0000
3900
2700
0000
1E00
7F80
E180
C0C0
C0C0
C0C0
C0C0
E180
7F80
1E00
ENDCHAR
STARTCHAR $0230
ENCODING 560
SWIDTH 853 0
DWIDTH 16 0
BBX 14 18 1 0
BITMAP
0FC0
0000
0300
0300
0000
0FC0
3FE0
7030
6018
C00C
C00C
C00C
C00C
C00C
6018
7030
3FE0
0FC0
ENDCHAR
STARTCHAR $0231
ENCODING 561
SWIDTH 640 0
DWIDTH 12 0
BBX 10 16 1 0
BITMAP
3F00
0000
0C00
0C00
0000
0000
1E00
7F80
E180
C0C0
C0C0
C0C0
C0C0
E180
7F80
1E00
ENDCHAR
STARTCHAR $0232
ENCODING 562
SWIDTH 640 0
DWIDTH 12 0
BBX 12 16 0 0
BITMAP
1F80
0000
0000
C030
6060
6060
30C0
1880
1980
0F00
0700
0600
0600
0600
0600
0600
ENDCHAR
STARTCHAR $0233
ENCODING 563
SWIDTH 533 0
DWIDTH 10 0
BBX 10 17 0 -4
BITMAP
3F00
0000
0000
C040
40C0
6080
6180
3180
3300
1B00
1A00
0E00
0C00
0C00
0C00
F800
F000
ENDCHAR
STARTCHAR $0237
ENCODING 567
SWIDTH 266 0
DWIDTH 5 0
BBX 6 14 -2 -4
BITMAP
0C
0C
0C
0C
0C
0C
0C
0C
0C
0C
0C
0C
78
F0
ENDCHAR
STARTCHAR $0259
ENCODING 601
SWIDTH 586 0
DWIDTH 11 0
BBX 10 10 1 0
BITMAP
3E00
7F00
4180
0080
00C0
FFC0
C0C0
C180
7F00
3E00
ENDCHAR
STARTCHAR $0292
ENCODING 658
SWIDTH 533 0
DWIDTH 10 0
BBX 9 14 0 -4
BITMAP
FF80
FF80
0300
0600
0C00
0C00
1E00
0700
0180
0180
0180
8180
FF00
3E00
ENDCHAR
STARTCHAR $02B9
ENCODING 697
SWIDTH 213 0
DWIDTH 4 0
BBX 2 5 1 8
BITMAP
C0
C0
C0
C0
C0
ENDCHAR
STARTCHAR $02BA
ENCODING 698
SWIDTH 373 0
DWIDTH 7 0
BBX 5 5 1 8
BITMAP
C8
C8
C8
C8
C8
ENDCHAR
STARTCHAR $02BB
ENCODING 699
SWIDTH 266 0
DWIDTH 5 0
BBX 3 5 1 11
BITMAP
40
40
40
E0
C0
ENDCHAR
STARTCHAR $02BC
ENCODING 700
SWIDTH 160 0
DWIDTH 3 0
BBX 1 5 1 8
BITMAP
80
80
80
80
80
ENDCHAR
STARTCHAR $02BE
ENCODING 702
SWIDTH 586 0
DWIDTH 11 0
BBX 2 4 6 11
BITMAP
80
40
40
80
ENDCHAR
STARTCHAR $02BF
ENCODING 703
SWIDTH 586 0
DWIDTH 11 0
BBX 2 4 4 11
BITMAP
C0
80
80
C0
ENDCHAR
STARTCHAR $02C6
ENCODING 710
SWIDTH 586 0
DWIDTH 11 0
BBX 5 2 3 12
BITMAP
70
D8
ENDCHAR
STARTCHAR $02C7
ENCODING 711
SWIDTH 586 0
DWIDTH 11 0
BBX 5 2 3 12
BITMAP
88
70
ENDCHAR
STARTCHAR $02C8
ENCODING 712
SWIDTH 160 0
DWIDTH 3 0
BBX 1 4 1 9
BITMAP
80
80
80
80
ENDCHAR
STARTCHAR $02C9
ENCODING 713
SWIDTH 586 0
DWIDTH 11 0
BBX 6 1 3 12
BITMAP
FC
ENDCHAR
STARTCHAR $02CA
ENCODING 714
SWIDTH 586 0
DWIDTH 11 0
BBX 3 2 5 12
BITMAP
60
C0
ENDCHAR
STARTCHAR $02CB
ENCODING 715
SWIDTH 586 0
DWIDTH 11 0
BBX 4 2 3 12
BITMAP
C0
70
ENDCHAR
STARTCHAR $02CC
ENCODING 716
SWIDTH 160 0
DWIDTH 3 0
BBX 1 4 1 -4
BITMAP
80
80
80
80
ENDCHAR
STARTCHAR $02D8
ENCODING 728
SWIDTH 586 0
DWIDTH 11 0
BBX 6 3 3 11
BITMAP
8C
88
70
ENDCHAR
STARTCHAR $02D9
ENCODING 729
SWIDTH 586 0
DWIDTH 11 0
BBX 2 2 5 12
BITMAP
C0
C0
ENDCHAR
STARTCHAR $02DA
ENCODING 730
SWIDTH 586 0
DWIDTH 11 0
BBX 4 4 4 11
BITMAP
E0
90
90
E0
ENDCHAR
STARTCHAR $02DB
ENCODING 731
SWIDTH 586 0
DWIDTH 11 0
BBX 4 4 2 -3
BITMAP
60
C0
C0
70
ENDCHAR
STARTCHAR $02DC
ENCODING 732
SWIDTH 586 0
DWIDTH 11 0
BBX 7 3 2 11
BITMAP
40
72
CC
ENDCHAR
STARTCHAR $02DD
ENCODING 733
SWIDTH 586 0
DWIDTH 11 0
BBX 6 2 4 12
BITMAP
4C
D8
ENDCHAR
STARTCHAR $0300
ENCODING 768
SWIDTH 0 0
DWIDTH 0 0
BBX 3 2 -8 12
BITMAP
C0
60
ENDCHAR
STARTCHAR $0301
ENCODING 769
SWIDTH 0 0
DWIDTH 0 0
BBX 4 2 -7 12
BITMAP
30
E0
ENDCHAR
STARTCHAR $0302
ENCODING 770
SWIDTH 0 0
DWIDTH 0 0
BBX 5 2 -8 12
BITMAP
70
D8
ENDCHAR
STARTCHAR $0303
ENCODING 771
SWIDTH 0 0
DWIDTH 0 0
BBX 6 3 -9 11
BITMAP
40
F4
9C
ENDCHAR
STARTCHAR $0304
ENCODING 772
SWIDTH 0 0
DWIDTH 0 0
BBX 6 1 -9 12
BITMAP
FC
ENDCHAR
STARTCHAR $0306
ENCODING 774
SWIDTH 0 0
DWIDTH 0 0
BBX 6 3 -9 11
BITMAP
C4
44
78
ENDCHAR
STARTCHAR $0307
ENCODING 775
SWIDTH 0 0
DWIDTH 0 0
BBX 2 2 -7 12
BITMAP
C0
C0
ENDCHAR
STARTCHAR $0308
ENCODING 776
SWIDTH 0 0
DWIDTH 0 0
BBX 5 2 -8 12
BITMAP
98
98
ENDCHAR
STARTCHAR $0309
ENCODING 777
SWIDTH 0 0
DWIDTH 0 0
BBX 3 4 -7 11
BITMAP
E0
20
20
40
ENDCHAR
STARTCHAR $030A
ENCODING 778
SWIDTH 0 0
DWIDTH 0 0
BBX 4 4 -8 11
BITMAP
70
90
90
60
ENDCHAR
STARTCHAR $030B
ENCODING 779
SWIDTH 0 0
DWIDTH 0 0
BBX 6 2 -8 12
BITMAP
64
CC
ENDCHAR
STARTCHAR $030C
ENCODING 780
SWIDTH 0 0
DWIDTH 0 0
BBX 5 2 -8 12
BITMAP
98
70
ENDCHAR
STARTCHAR $030F
ENCODING 783
SWIDTH 0 0
DWIDTH 0 0
BBX 6 2 -10 12
BITMAP
C8
6C
ENDCHAR
STARTCHAR $0311
ENCODING 785
SWIDTH 0 0
DWIDTH 0 0
BBX 6 3 -9 11
BITMAP
78
44
C4
ENDCHAR
STARTCHAR $0312
ENCODING 786
SWIDTH 0 0
DWIDTH 0 0
BBX 2 4 -7 11
BITMAP
40
40
C0
40
ENDCHAR
STARTCHAR $031B
ENCODING 795
SWIDTH 0 0
DWIDTH 0 0
BBX 3 4 -6 9
BITMAP
60
20
60
C0
ENDCHAR
STARTCHAR $0323
ENCODING 803
SWIDTH 0 0
DWIDTH 0 0
BBX 1 2 -6 -4
BITMAP
80
80
ENDCHAR
STARTCHAR $0324
ENCODING 804
SWIDTH 0 0
DWIDTH 0 0
BBX 5 2 -8 -4
BITMAP
D8
98
ENDCHAR
STARTCHAR $0326
ENCODING 806
SWIDTH 0 0
DWIDTH 0 0
BBX 2 3 -7 -5
BITMAP
C0
40
40
ENDCHAR
STARTCHAR $0327
ENCODING 807
SWIDTH 0 0
DWIDTH 0 0
BBX 4 4 -8 -4
BITMAP
20
70
10
F0
ENDCHAR
STARTCHAR $0328
ENCODING 808
SWIDTH 0 0
DWIDTH 0 0
BBX 4 5 -9 -4
BITMAP
20
40
80
80
F0
ENDCHAR
STARTCHAR $032E
ENCODING 814
SWIDTH 0 0
DWIDTH 0 0
BBX 5 2 -8 -4
BITMAP
88
F0
ENDCHAR
STARTCHAR $0331
ENCODING 817
SWIDTH 0 0
DWIDTH 0 0
BBX 6 1 -9 -3
BITMAP
FC
ENDCHAR
STARTCHAR $0335
ENCODING 821
SWIDTH 0 0
DWIDTH 0 0
BBX 7 1 -9 8
BITMAP
FE
ENDCHAR
STARTCHAR $0336
ENCODING 822
SWIDTH 0 0
DWIDTH 0 0
BBX 15 1 -16 8
BITMAP
FFFE
ENDCHAR
STARTCHAR $0337
ENCODING 823
SWIDTH 0 0
DWIDTH 0 0
BBX 5 4 -7 6
BITMAP
18
30
60
C0
ENDCHAR
STARTCHAR $0338
ENCODING 824
SWIDTH 0 0
DWIDTH 0 0
BBX 9 13 -10 -2
BITMAP
0180
0100
0200
0600
0400
0800
1800
1000
2000
6000
4000
8000
8000
ENDCHAR
STARTCHAR $0394
ENCODING 916
SWIDTH 746 0
DWIDTH 14 0
BBX 14 13 0 0
BITMAP
0300
0700
0780
0C80
0CC0
18C0
1860
3060
3030
2030
6018
7FF8
FFFC
ENDCHAR
STARTCHAR $03A9
ENCODING 937
SWIDTH 906 0
DWIDTH 17 0
BBX 17 13 0 0
BITMAP
03E000
0FF800
181C00
300600
300600
200600
600600
200600
300600
300600
180C00
FE3F80
FE3F80
ENDCHAR
STARTCHAR $03BC
ENCODING 956
SWIDTH 693 0
DWIDTH 13 0
BBX 9 14 2 -4
BITMAP
C180
C180
C180
C180
C180
C180
C180
C380
FF80
FD80
C000
C000
C000
C000
ENDCHAR
STARTCHAR $03C0
ENCODING 960
SWIDTH 746 0
DWIDTH 14 0
BBX 13 10 0 0
BITMAP
7FF8
EC60
CC60
8C60
CC60
0C60
0860
0860
1860
1860
ENDCHAR
STARTCHAR $0400
ENCODING 1024
SWIDTH 640 0
DWIDTH 12 0
BBX 10 16 2 0
BITMAP
3800
0C00
0000
FF80
FF80
C000
C000
C000
FF80
FF80
C000
C000
C000
C000
FFC0
FFC0
ENDCHAR
STARTCHAR $0401
ENCODING 1025
SWIDTH 640 0
DWIDTH 12 0
BBX 10 16 2 0
BITMAP
3200
3200
0000
FF80
FF80
C000
C000
C000
FF80
FF80
C000
C000
C000
C000
FFC0
FFC0
ENDCHAR
STARTCHAR $0402
ENCODING 1026
SWIDTH 853 0
DWIDTH 16 0
BBX 15 13 0 0
BITMAP
FFF0
FFF0
0600
0600
0600
07F8
07FC
060E
0606
0606
0606
067C
0678
ENDCHAR
STARTCHAR $0403
ENCODING 1027
SWIDTH 586 0
DWIDTH 11 0
BBX 9 16 2 0
BITMAP
0E00
1800
0000
FF80
FF80
C000
C000
C000
C000
C000
C000
C000
C000
C000
C000
C000
ENDCHAR
STARTCHAR $0404
ENCODING 1028
SWIDTH 693 0
DWIDTH 13 0
BBX 11 13 1 0
BITMAP
0F80
3FE0
7020
6000
C000
C000
FF00
FF00
C000
6000
7020
3FE0
0F80
ENDCHAR
STARTCHAR $0405
ENCODING 1029
SWIDTH 640 0
DWIDTH 12 0
BBX 10 13 1 0
BITMAP
3F00
7F80
E000
C000
C000
7000
3E00
0780
00C0
00C0
80C0
FF80
3F00
ENDCHAR
STARTCHAR $0406
ENCODING 1030
SWIDTH 320 0
DWIDTH 6 0
BBX 2 13 2 0
BITMAP
C0
C0
C0
C0
C0
C0
C0
C0
C0
C0
C0
C0
C0
ENDCHAR
STARTCHAR $0407
ENCODING 1031
SWIDTH 320 0
DWIDTH 6 0
BBX 5 16 0 0
BITMAP
C8
C8
00
30
30
30
30
30
30
30
30
30
30
30
30
30
ENDCHAR
STARTCHAR $0408
ENCODING 1032
SWIDTH 533 0
DWIDTH 10 0
BBX 7 13 1 0
BITMAP
7E
7E
06
06
06
06
06
06
06
06
86
FE
78
ENDCHAR
STARTCHAR $0409
ENCODING 1033
SWIDTH 1173 0
DWIDTH 22 0
BBX 22 13 0 0
BITMAP
1FF800
1FF800
181800
181800
181800
181FF0
181818
181818
18180C
181808
301818
F01878
E01FE0
ENDCHAR
STARTCHAR $040A
ENCODING 1034
SWIDTH 1173 0
DWIDTH 22 0
BBX 19 13 2 0
BITMAP
C06000
C06000
C06000
C06000
C06000
FFFF80
FFFFE0
C06060
C06020
C06020
C06060
C061E0
C07F80
ENDCHAR
STARTCHAR $040B
ENCODING 1035
SWIDTH 853 0
DWIDTH 16 0
BBX 15 13 0 0
BITMAP
FFE0
FFE0
0600
0600
0600
0670
07FC
060C
0606
0606
0606
0606
0606
ENDCHAR
STARTCHAR $040C
ENCODING 1036
SWIDTH 693 0
DWIDTH 13 0
BBX 11 16 2 0
BITMAP
0700
0C00
0000
C0C0
C0C0
C180
C300
C600
FC00
FC00
C600
C300
C380
C180
C0C0
C060
ENDCHAR
STARTCHAR $040D
ENCODING 1037
SWIDTH 800 0
DWIDTH 15 0
BBX 11 16 2 0
BITMAP
1C00
0600
0000
C060
C0E0
C0E0
C1A0
C320
C720
C620
CC20
D820
F020
F020
E020
C020
ENDCHAR
STARTCHAR $040E
ENCODING 1038
SWIDTH 693 0
DWIDTH 13 0
BBX 12 17 1 0
BITMAP
2180
3100
1F00
0000
C030
C060
6040
60C0
3180
3180
1B00
1B00
0E00
0400
0C00
7800
7000
ENDCHAR
STARTCHAR $040F
ENCODING 1039
SWIDTH 800 0
DWIDTH 15 0
BBX 11 16 2 -3
BITMAP
C060
C060
C060
C060
C060
C060
C060
C060
C060
C060
C060
FFE0
FFE0
0400
0400
0400
ENDCHAR
STARTCHAR $0410
ENCODING 1040
SWIDTH 746 0
DWIDTH 14 0
BBX 14 13 0 0
BITMAP
0300
0780
0780
04C0
0CC0
0C60
1860
1860
3030
3FF0
6018
6018
C00C
ENDCHAR
STARTCHAR $0411
ENCODING 1041
SWIDTH 746 0
DWIDTH 14 0
BBX 11 13 2 0
BITMAP
FFC0
FFC0
C000
C000
C000
C000
FFC0
C0C0
C060
C060
C060
C3C0
FF80
ENDCHAR
STARTCHAR $0412
ENCODING 1042
SWIDTH 746 0
DWIDTH 14 0
BBX 11 13 2 0
BITMAP
FF00
C3C0
C0C0
C0C0
C0C0
C180
FF80
C0C0
C060
C060
C060
C1C0
FF80
ENDCHAR
STARTCHAR $0413
ENCODING 1043
SWIDTH 586 0
DWIDTH 11 0
BBX 9 13 2 0
BITMAP
FF80
FF80
C000
C000
C000
C000
C000
C000
C000
C000
C000
C000
C000
ENDCHAR
STARTCHAR $0414
ENCODING 1044
SWIDTH 800 0
DWIDTH 15 0
BBX 15 16 0 -3
BITMAP
1FF8
1FF8
1818
1818
1818
1818
1818
1818
1818
1018
3018
FFFE
FFFE
C006
C006
C006
ENDCHAR
STARTCHAR $0415
ENCODING 1045
SWIDTH 640 0
DWIDTH 12 0
BBX 10 13 2 0
BITMAP
FF80
FF80
C000
C000
C000
FF80
FF80
C000
C000
C000
C000
FFC0
FFC0
ENDCHAR
STARTCHAR $0416
ENCODING 1046
SWIDTH 1013 0
DWIDTH 19 0
BBX 18 13 1 0
BITMAP
C0C180
60C180
60C300
30C600
18C600
1FFC00
1FFC00
18CE00
30C600
30C300
60C300
C0C180
C0C1C0
ENDCHAR
STARTCHAR $0417
ENCODING 1047
SWIDTH 640 0
DWIDTH 12 0
BBX 10 13 1 0
BITMAP
7E00
FF80
0180
0180
0180
3F00
3F00
0180
00C0
00C0
81C0
FF80
3E00
ENDCHAR
STARTCHAR $0418
ENCODING 1048
SWIDTH 800 0
DWIDTH 15 0
BBX 11 13 2 0
BITMAP
C060
C0E0
C0E0
C1A0
C320
C720
C620
CC20
D820
F020
F020
E020
C020
ENDCHAR
STARTCHAR $0419
ENCODING 1049
SWIDTH 800 0
DWIDTH 15 0
BBX 11 17 2 0
BITMAP
3080
1180
1F00
0000
C060
C0E0
C0E0
C1A0
C320
C720
C620
CC20
D820
F020
F020
E020
C020
ENDCHAR
STARTCHAR $041A
ENCODING 1050
SWIDTH 693 0
DWIDTH 13 0
BBX 11 13 2 0
BITMAP
C0C0
C0C0
C180
C300
C600
FC00
FC00
C600
C300
C380
C180
C0C0
C060
ENDCHAR
STARTCHAR $041B
ENCODING 1051
SWIDTH 800 0
DWIDTH 15 0
BBX 13 13 0 0
BITMAP
1FF8
1FF8
1818
1818
1818
1818
1818
1818
1818
1818
3018
F018
E018
ENDCHAR
STARTCHAR $041C
ENCODING 1052
SWIDTH 960 0
DWIDTH 18 0
BBX 14 13 2 0
BITMAP
C00C
C00C
E01C
F03C
F03C
D86C
C84C
CCCC
C78C
C78C
C30C
C00C
C00C
ENDCHAR
STARTCHAR $041D
ENCODING 1053
SWIDTH 800 0
DWIDTH 15 0
BBX 11 13 2 0
BITMAP
C060
C060
C060
C060
C060
FFE0
FFE0
C060
C060
C060
C060
C060
C060
ENDCHAR
STARTCHAR $041E
ENCODING 1054
SWIDTH 853 0
DWIDTH 16 0
BBX 14 13 1 0
BITMAP
0FC0
3FE0
7038
6018
C00C
C00C
C00C
C00C
C00C
6018
7038
3FF0
0FC0
ENDCHAR
STARTCHAR $041F
ENCODING 1055
SWIDTH 800 0
DWIDTH 15 0
BBX 11 13 2 0
BITMAP
FFE0
FFE0
C060
C060
C060
C060
C060
C060
C060
C060
C060
C060
C060
ENDCHAR
STARTCHAR $0420
ENCODING 1056
SWIDTH 693 0
DWIDTH 13 0
BBX 11 13 2 0
BITMAP
FF00
FF80
C0C0
C060
C060
C060
C0C0
FF80
FF00
C000
C000
C000
C000
ENDCHAR
STARTCHAR $0421
ENCODING 1057
SWIDTH 693 0
DWIDTH 13 0
BBX 11 13 1 0
BITMAP
0FC0
3FE0
7020
6000
C000
C000
C000
C000
C000
6000
7020
3FE0
0FC0
ENDCHAR
STARTCHAR $0422
ENCODING 1058
SWIDTH 586 0
DWIDTH 11 0
BBX 11 13 0 0
BITMAP
FFE0
FFE0
0600
0600
0600
0600
0600
0600
0600
0600
0600
0600
0600
ENDCHAR
STARTCHAR $0423
ENCODING 1059
SWIDTH 693 0
DWIDTH 13 0
BBX 12 13 1 0
BITMAP
C030
C060
6040
60C0
3180
3180
1B00
1B00
0E00
0400
0C00
7800
7000
ENDCHAR
STARTCHAR $0424
ENCODING 1060
SWIDTH 906 0
DWIDTH 17 0
BBX 16 14 1 0
BITMAP
0180
0180
1FF8
719C
6186
C186
C182
C183
C182
C186
618E
3DFC
0FF0
0180
ENDCHAR
STARTCHAR $0425
ENCODING 1061
SWIDTH 693 0
DWIDTH 13 0
BBX 11 13 1 0
BITMAP
C0C0
60C0
7180
3300
1F00
0E00
0E00
1E00
1B00
3380
6180
E0C0
C060
ENDCHAR
STARTCHAR $0426
ENCODING 1062
SWIDTH 853 0
DWIDTH 16 0
BBX 13 16 2 -3
BITMAP
C060
C060
C060
C060
C060
C060
C060
C060
C060
C060
C060
FFF8
FFF8
0018
0018
0018
ENDCHAR
STARTCHAR $0427
ENCODING 1063
SWIDTH 746 0
DWIDTH 14 0
BBX 11 13 1 0
BITMAP
C060
C060
C060
C060
C060
C060
60E0
7FE0
1E60
0060
0060
0060
0060
ENDCHAR
STARTCHAR $0428
ENCODING 1064
SWIDTH 1120 0
DWIDTH 21 0
BBX 16 13 2 0
BITMAP
C181
C181
C181
C181
C181
C181
C181
C181
C181
C181
C181
FFFF
FFFF
ENDCHAR
STARTCHAR $0429
ENCODING 1065
SWIDTH 1120 0
DWIDTH 21 0
BBX 18 16 2 -3
BITMAP
C18100
C18100
C18100
C18100
C18100
C18100
C18100
C18100
C18100
C18100
C18100
FFFFC0
FFFFC0
000040
000040
000040
ENDCHAR
STARTCHAR $042A
ENCODING 1066
SWIDTH 853 0
DWIDTH 16 0
BBX 15 13 0 0
BITMAP
FC00
FC00
0C00
0C00
0C00
0FF8
0C0C
0C06
0C06
0C06
0C0C
0C3C
0FF0
ENDCHAR
STARTCHAR $042B
ENCODING 1067
SWIDTH 1013 0
DWIDTH 19 0
BBX 15 13 2 0
BITMAP
C006
C006
C006
C006
C006
FF86
C0C6
C066
C066
C066
C0C6
C3C6
FF06
ENDCHAR
STARTCHAR $042C
ENCODING 1068
SWIDTH 693 0
DWIDTH 13 0
BBX 11 13 2 0
BITMAP
C000
C000
C000
C000
C000
FF80
C0C0
C060
C060
C060
C0C0
C3C0
FF00
ENDCHAR
STARTCHAR $042D
ENCODING 1069
SWIDTH 693 0
DWIDTH 13 0
BBX 11 13 1 0
BITMAP
3E00
FF80
C1C0
00E0
0060
1FE0
1FE0
0060
0060
00E0
C1C0
FF80
3E00
ENDCHAR
STARTCHAR $042E
ENCODING 1070
SWIDTH 1120 0
DWIDTH 21 0
BBX 18 13 2 0
BITMAP
C0FC00
C1FE00
C30300
C60180
CC0180
FC00C0
FC00C0
CC0080
C60180
C60180
C30300
C1FE00
C0FC00
ENDCHAR
STARTCHAR $042F
ENCODING 1071
SWIDTH 746 0
DWIDTH 14 0
BBX 11 13 1 0
BITMAP
1FE0
7FE0
6060
C060
C060
C060
E060
7FE0
1FE0
3060
3060
6060
C060
ENDCHAR
STARTCHAR $0430
ENCODING 1072
SWIDTH 586 0
DWIDTH 11 0
BBX 9 10 1 0
BITMAP
3E00
FF00
0300
0180
7F80
E180
C180
C380
E780
7D80
ENDCHAR
STARTCHAR $0431
ENCODING 1073
SWIDTH 640 0
DWIDTH 12 0
BBX 11 15 1 0
BITMAP
0040
07C0
1F00
3000
6000
4600
DF80
F1C0
E0C0
C060
C060
4040
60C0
3F80
1F00
ENDCHAR
STARTCHAR $0432
ENCODING 1074
SWIDTH 640 0
DWIDTH 12 0
BBX 8 10 2 0
BITMAP
FE
C7
C3
C3
FE
C3
C1
C1
C7
FE
ENDCHAR
STARTCHAR $0433
ENCODING 1075
SWIDTH 480 0
DWIDTH 9 0
BBX 7 10 2 0
BITMAP
FE
FE
C0
C0
C0
C0
C0
C0
C0
C0
ENDCHAR
STARTCHAR $0434
ENCODING 1076
SWIDTH 640 0
DWIDTH 12 0
BBX 12 12 0 -2
BITMAP
1FC0
1FC0
1040
3040
3040
3040
3040
3040
FFF0
FFF0
C030
C030
ENDCHAR
STARTCHAR $0435
ENCODING 1077
SWIDTH 640 0
DWIDTH 12 0
BBX 10 10 1 0
BITMAP
3E00
7F00
C180
C0C0
FFC0
C000
C000
6000
7F80
1F00
ENDCHAR
STARTCHAR $0436
ENCODING 1078
SWIDTH 853 0
DWIDTH 16 0
BBX 14 10 1 0
BITMAP
C30C
4318
6318
3330
1FE0
3FF0
7330
6318
C30C
C30C
ENDCHAR
STARTCHAR $0437
ENCODING 1079
SWIDTH 533 0
DWIDTH 10 0
BBX 8 10 1 0
BITMAP
7C
FF
03
03
3C
07
03
03
FF
7C
ENDCHAR
STARTCHAR $0438
ENCODING 1080
SWIDTH 693 0
DWIDTH 13 0
BBX 9 10 2 0
BITMAP
C180
C380
C380
C780
CD80
D980
F180
E180
E180
C180
ENDCHAR
STARTCHAR $0439
ENCODING 1081
SWIDTH 693 0
DWIDTH 13 0
BBX 9 14 2 0
BITMAP
6200
2200
3C00
0000
C180
C380
C380
C780
CD80
D980
F180
E180
E180
C180
ENDCHAR
STARTCHAR $043A
ENCODING 1082
SWIDTH 586 0
DWIDTH 11 0
BBX 9 10 2 0
BITMAP
C300
C300
C600
CC00
F800
FC00
CC00
C600
C300
C180
ENDCHAR
STARTCHAR $043B
ENCODING 1083
SWIDTH 640 0
DWIDTH 12 0
BBX 10 10 0 0
BITMAP
1FC0
1FC0
10C0
30C0
30C0
30C0
30C0
30C0
E0C0
E0C0
ENDCHAR
STARTCHAR $043C
ENCODING 1084
SWIDTH 800 0
DWIDTH 15 0
BBX 11 10 2 0
BITMAP
C060
C060
E0E0
B1A0
B120
9B20
8A20
8E20
8420
8020
ENDCHAR
STARTCHAR $043D
ENCODING 1085
SWIDTH 693 0
DWIDTH 13 0
BBX 9 10 2 0
BITMAP
C180
C180
C180
C180
FF80
FF80
C180
C180
C180
C180
ENDCHAR
STARTCHAR $043E
ENCODING 1086
SWIDTH 640 0
DWIDTH 12 0
BBX 10 10 1 0
BITMAP
1E00
7F80
E1C0
C0C0
C0C0
C0C0
C0C0
E1C0
7F80
1E00
ENDCHAR
STARTCHAR $043F
ENCODING 1087
SWIDTH 693 0
DWIDTH 13 0
BBX 9 10 2 0
BITMAP
FF80
FF80
C180
C180
C180
C180
C180
C180
C180
C180
ENDCHAR
STARTCHAR $0440
ENCODING 1088
SWIDTH 693 0
DWIDTH 13 0
BBX 10 14 2 -4
BITMAP
9E00
BF80
C180
C0C0
C0C0
C0C0
C0C0
C180
FF80
DE00
C000
C000
C000
C000
ENDCHAR
STARTCHAR $0441
ENCODING 1089
SWIDTH 586 0
DWIDTH 11 0
BBX 9 10 1 0
BITMAP
1E00
7F80
E180
C000
C000
C000
C000
E180
7F80
1E00
ENDCHAR
STARTCHAR $0442
ENCODING 1090
SWIDTH 480 0
DWIDTH 9 0
BBX 9 10 0 0
BITMAP
FF80
FF80
0C00
0C00
0C00
0C00
0C00
0C00
0C00
0C00
ENDCHAR
STARTCHAR $0443
ENCODING 1091
SWIDTH 586 0
DWIDTH 11 0
BBX 10 14 0 -4
BITMAP
C040
60C0
60C0
2180
3180
3100
1B00
1A00
0E00
0E00
0C00
0C00
F800
F000
ENDCHAR
STARTCHAR $0444
ENCODING 1092
SWIDTH 800 0
DWIDTH 15 0
BBX 13 18 1 -4
BITMAP
0200
0200
0200
0200
1FC0
7FF0
E238
C218
C218
C218
C218
E238
7FF0
1FC0
0200
0200
0200
0200
ENDCHAR
STARTCHAR $0445
ENCODING 1093
SWIDTH 533 0
DWIDTH 10 0
BBX 9 10 1 0
BITMAP
C300
C300
6600
3C00
1800
1C00
3C00
6600
C300
C180
ENDCHAR
STARTCHAR $0446
ENCODING 1094
SWIDTH 693 0
DWIDTH 13 0
BBX 10 12 2 -2
BITMAP
C180
C180
C180
C180
C180
C180
C180
C180
FFC0
FFC0
0040
0040
ENDCHAR
STARTCHAR $0447
ENCODING 1095
SWIDTH 586 0
DWIDTH 11 0
BBX 9 10 1 0
BITMAP
C180
C180
C180
C180
C180
7F80
0180
0180
0180
0180
ENDCHAR
STARTCHAR $0448
ENCODING 1096
SWIDTH 960 0
DWIDTH 18 0
BBX 14 10 2 0
BITMAP
C30C
C30C
C30C
C30C
C30C
C30C
C30C
C30C
FFFC
FFFC
ENDCHAR
STARTCHAR $0449
ENCODING 1097
SWIDTH 960 0
DWIDTH 18 0
BBX 15 12 2 -2
BITMAP
C30C
C30C
C30C
C30C
C30C
C30C
C30C
C30C
FFFE
FFFE
0002
0002
ENDCHAR
STARTCHAR $044A
ENCODING 1098
SWIDTH 640 0
DWIDTH 12 0
BBX 11 10 0 0
BITMAP
F800
F800
1800
1800
1FC0
1860
1820
1860
18E0
1FC0
ENDCHAR
STARTCHAR $044B
ENCODING 1099
SWIDTH 800 0
DWIDTH 15 0
BBX 11 10 2 0
BITMAP
C020
C020
C020
C020
FE20
C320
C320
C320
C720
FC20
ENDCHAR
STARTCHAR $044C
ENCODING 1100
SWIDTH 586 0
DWIDTH 11 0
BBX 8 10 2 0
BITMAP
C0
C0
C0
C0
FE
C3
C3
C3
C7
FE
ENDCHAR
STARTCHAR $044D
ENCODING 1101
SWIDTH 586 0
DWIDTH 11 0
BBX 9 10 1 0
BITMAP
7C00
EF00
8300
0180
3F80
0180
0180
8300
EE00
7C00
ENDCHAR
STARTCHAR $044E
ENCODING 1102
SWIDTH 853 0
DWIDTH 16 0
BBX 14 10 2 0
BITMAP
C3E0
C7F0
CC18
CC08
F80C
F80C
CC18
CC18
C7F0
C3E0
ENDCHAR
STARTCHAR $044F
ENCODING 1103
SWIDTH 586 0
DWIDTH 11 0
BBX 9 10 1 0
BITMAP
3F80
7F80
C180
C180
C180
E180
3F80
3180
6180
C180
ENDCHAR
STARTCHAR $0450
ENCODING 1104
SWIDTH 640 0
DWIDTH 12 0
BBX 10 14 1 0
BITMAP
3000
1800
0400
0000
3E00
7F00
C180
C0C0
FFC0
C000
C000
6000
7F80
1F00
ENDCHAR
STARTCHAR $0451
ENCODING 1105
SWIDTH 640 0
DWIDTH 12 0
BBX 10 14 1 0
BITMAP
3200
3200
0000
0000
3E00
7F00
C180
C0C0
FFC0
C000
C000
6000
7F80
1F00
ENDCHAR
STARTCHAR $0452
ENCODING 1106
SWIDTH 693 0
DWIDTH 13 0
BBX 11 18 0 -4
BITMAP
2000
2000
FF00
2000
2780
2FC0
3060
3060
3060
3060
3060
3060
3060
3060
0060
0060
03E0
03C0
ENDCHAR
STARTCHAR $0453
ENCODING 1107
SWIDTH 480 0
DWIDTH 9 0
BBX 7 14 2 0
BITMAP
0C
18
00
00
FE
FE
C0
C0
C0
C0
C0
C0
C0
C0
ENDCHAR
STARTCHAR $0454
ENCODING 1108
SWIDTH 586 0
DWIDTH 11 0
BBX 9 10 1 0
BITMAP
1F00
7B80
6080
C000
C000
FE00
C000
C000
7B80
1F00
ENDCHAR
STARTCHAR $0455
ENCODING 1109
SWIDTH 533 0
DWIDTH 10 0
BBX 8 10 1 0
BITMAP
3E
7F
C0
C0
78
3E
03
03
FF
7E
ENDCHAR
STARTCHAR $0456
ENCODING 1110
SWIDTH 266 0
DWIDTH 5 0
BBX 3 14 1 0
BITMAP
E0
60
00
00
60
60
60
60
60
60
60
60
60
60
ENDCHAR
STARTCHAR $0457
ENCODING 1111
SWIDTH 266 0
DWIDTH 5 0
BBX 5 14 0 0
BITMAP
D8
D8
00
00
30
30
30
30
30
30
30
30
30
30
ENDCHAR
STARTCHAR $0458
ENCODING 1112
SWIDTH 266 0
DWIDTH 5 0
BBX 6 18 -2 -4
BITMAP
1C
0C
00
00
0C
0C
0C
0C
0C
0C
0C
0C
0C
0C
0C
08
78
F0
ENDCHAR
STARTCHAR $0459
ENCODING 1113
SWIDTH 960 0
DWIDTH 18 0
BBX 17 10 0 0
BITMAP
1FC000
1FC000
10C000
30FE00
30C300
30C180
30C180
30C180
E0C300
E0FE00
ENDCHAR
STARTCHAR $045A
ENCODING 1114
SWIDTH 960 0
DWIDTH 18 0
BBX 15 10 2 0
BITMAP
C180
C180
C180
C180
FFFC
FF8E
C186
C186
C18E
C1FC
ENDCHAR
STARTCHAR $045B
ENCODING 1115
SWIDTH 693 0
DWIDTH 13 0
BBX 12 14 -1 0
BITMAP
1800
1800
FF80
1800
1BC0
1FE0
1830
1830
1830
1830
1830
1830
1830
1830
ENDCHAR
STARTCHAR $045C
ENCODING 1116
SWIDTH 586 0
DWIDTH 11 0
BBX 9 14 2 0
BITMAP
0E00
1800
0000
0000
C300
C300
C600
CC00
F800
FC00
CC00
C600
C300
C180
ENDCHAR
STARTCHAR $045D
ENCODING 1117
SWIDTH 693 0
DWIDTH 13 0
BBX 9 14 2 0
BITMAP
3000
1800
0000
0000
C180
C380
C380
C780
CD80
D980
F180
E180
E180
C180
ENDCHAR
STARTCHAR $045E
ENCODING 1118
SWIDTH 586 0
DWIDTH 11 0
BBX 10 18 0 -4
BITMAP
2100
3300
1E00
0000
C040
60C0
60C0
2180
3180
3100
1B00
1A00
0E00
0E00
0C00
0C00
F800
F000
ENDCHAR
STARTCHAR $045F
ENCODING 1119
SWIDTH 640 0
DWIDTH 12 0
BBX 8 12 2 -2
BITMAP
C1
C1
C1
C1
C1
C1
C1
C1
FF
FF
18
18
ENDCHAR
STARTCHAR $0462
ENCODING 1122
SWIDTH 800 0
DWIDTH 15 0
BBX 14 14 0 0
BITMAP
0C00
0C00
FFC0
0C00
0C00
0C00
0FF8
0C1C
0C0C
0C04
0C0C
0C0C
0C3C
0FF0
ENDCHAR
STARTCHAR $0463
ENCODING 1123
SWIDTH 640 0
DWIDTH 12 0
BBX 11 14 0 0
BITMAP
3000
3000
3000
3000
FF00
3000
3000
3000
3FC0
3060
3060
3060
30C0
3F80
ENDCHAR
STARTCHAR $046A
ENCODING 1130
SWIDTH 906 0
DWIDTH 17 0
BBX 15 13 1 0
BITMAP
7FFC
600C
3018
1830
0C60
06C0
1FF0
3938
6118
610C
C104
C106
8106
ENDCHAR
STARTCHAR $046B
ENCODING 1131
SWIDTH 693 0
DWIDTH 13 0
BBX 13 10 0 0
BITMAP
7FF0
3020
1040
0880
0580
1FC0
3260
6230
6210
C218
ENDCHAR
STARTCHAR $0472
ENCODING 1138
SWIDTH 853 0
DWIDTH 16 0
BBX 14 13 1 0
BITMAP
0FC0
3FF0
7038
6018
C00C
C00C
FFFC
C00C
C00C
6018
7030
3FE0
0FC0
ENDCHAR
STARTCHAR $0473
ENCODING 1139
SWIDTH 640 0
DWIDTH 12 0
BBX 10 10 1 0
BITMAP
1F00
7380
C0C0
C0C0
FFC0
C040
C0C0
60C0
7380
1E00
ENDCHAR
STARTCHAR $0474
ENCODING 1140
SWIDTH 746 0
DWIDTH 14 0
BBX 14 13 0 0
BITMAP
E01C
603C
6030
3060
3060
18C0
18C0
18C0
0D80
0D80
0700
0700
0700
ENDCHAR
STARTCHAR $0475
ENCODING 1141
SWIDTH 586 0
DWIDTH 11 0
BBX 11 10 0 0
BITMAP
C0E0
60E0
6180
3180
3100
3300
1B00
1E00
0E00
0C00
ENDCHAR
STARTCHAR $048A
ENCODING 1162
SWIDTH 853 0
DWIDTH 16 0
BBX 13 20 2 -3
BITMAP
3080
1180
1F00
0000
C060
C0E0
C0E0
C1A0
C320
C720
C620
CC20
D820
F020
F020
E038
C038
0018
0010
0010
ENDCHAR
STARTCHAR $048B
ENCODING 1163
SWIDTH 693 0
DWIDTH 13 0
BBX 11 16 2 -2
BITMAP
6200
2200
1C00
0000
C180
C380
C380
C780
CD80
D980
F180
E180
E1E0
C1E0
0040
00C0
ENDCHAR
STARTCHAR $048C
ENCODING 1164
SWIDTH 746 0
DWIDTH 14 0
BBX 12 14 1 0
BITMAP
6000
6000
FE00
FE00
6000
6000
7FE0
6070
6030
6030
6030
6030
61E0
7FC0
ENDCHAR
STARTCHAR $048D
ENCODING 1165
SWIDTH 586 0
DWIDTH 11 0
BBX 11 10 0 0
BITMAP
3000
FF00
3000
3000
3FC0
30E0
3060
3060
30C0
3F80
ENDCHAR
STARTCHAR $048E
ENCODING 1166
SWIDTH 746 0
DWIDTH 14 0
BBX 11 13 2 0
BITMAP
FF00
FF80
C0C0
C060
C460
C660
C2C0
FF80
FF80
C0C0
C040
C000
C000
ENDCHAR
STARTCHAR $048F
ENCODING 1167
SWIDTH 693 0
DWIDTH 13 0
BBX 10 14 2 -4
BITMAP
9E00
BF80
E180
C0C0
C0C0
C0C0
C6C0
C380
FF80
DE80
C0C0
C000
C000
C000
ENDCHAR
STARTCHAR $0490
ENCODING 1168
SWIDTH 586 0
DWIDTH 11 0
BBX 9 16 2 0
BITMAP
0180
0180
0180
FF80
FF80
C000
C000
C000
C000
C000
C000
C000
C000
C000
C000
C000
ENDCHAR
STARTCHAR $0491
ENCODING 1169
SWIDTH 480 0
DWIDTH 9 0
BBX 7 12 2 0
BITMAP
06
06
FE
FE
C0
C0
C0
C0
C0
C0
C0
C0
ENDCHAR
STARTCHAR $0492
ENCODING 1170
SWIDTH 640 0
DWIDTH 12 0
BBX 10 13 1 0
BITMAP
3FC0
3FC0
2000
2000
2000
2000
2000
FF80
2000
2000
2000
2000
2000
ENDCHAR
STARTCHAR $0493
ENCODING 1171
SWIDTH 533 0
DWIDTH 10 0
BBX 8 10 1 0
BITMAP
7F
7F
60
60
60
FE
60
60
60
60
ENDCHAR
STARTCHAR $0494
ENCODING 1172
SWIDTH 693 0
DWIDTH 13 0
BBX 10 16 2 -3
BITMAP
FF80
FF80
C000
C000
C000
C400
FF80
E1C0
C0C0
C0C0
C0C0
C0C0
C0C0
0180
0F00
0C00
ENDCHAR
STARTCHAR $0495
ENCODING 1173
SWIDTH 586 0
DWIDTH 11 0
BBX 9 14 2 -4
BITMAP
FE00
FE00
C000
C000
C800
FE00
C300
C180
C180
C180
0180
0300
1F00
1C00
ENDCHAR
STARTCHAR $0496
ENCODING 1174
SWIDTH 1066 0
DWIDTH 20 0
BBX 19 16 1 -3
BITMAP
C0C180
60C180
60C300
30C600
18C600
1FFC00
1FFC00
18CE00
30C600
30C300
60C300
C0C1E0
C0C1E0
000060
000060
000060
ENDCHAR
STARTCHAR $0497
ENCODING 1175
SWIDTH 906 0
DWIDTH 17 0
BBX 15 12 1 -2
BITMAP
C30C
4318
6318
3330
1FE0
3FF0
7330
6318
C30E
C30E
0002
0002
ENDCHAR
STARTCHAR $0498
ENCODING 1176
SWIDTH 640 0
DWIDTH 12 0
BBX 10 16 1 -3
BITMAP
7E00
FF80
0180
0180
0180
3F00
3F00
0180
00C0
00C0
81C0
FF80
3E00
0C00
0C00
0C00
ENDCHAR
STARTCHAR $0499
ENCODING 1177
SWIDTH 533 0
DWIDTH 10 0
BBX 8 12 1 -2
BITMAP
7C
FF
03
03
3C
07
03
03
FF
7C
18
18
ENDCHAR
STARTCHAR $049A
ENCODING 1178
SWIDTH 746 0
DWIDTH 14 0
BBX 12 16 2 -3
BITMAP
C0C0
C0C0
C180
C300
C600
FC00
FC00
C600
C300
C380
C180
C0F0
C070
0030
0030
0030
ENDCHAR
STARTCHAR $049B
ENCODING 1179
SWIDTH 586 0
DWIDTH 11 0
BBX 10 12 2 -2
BITMAP
C300
C300
C600
CC00
F800
FC00
CC00
C600
C3C0
C1C0
00C0
00C0
ENDCHAR
STARTCHAR $049C
ENCODING 1180
SWIDTH 746 0
DWIDTH 14 0
BBX 11 13 2 0
BITMAP
C060
C0C0
C180
D980
DB00
FE00
FE00
DB00
DB80
D980
C0C0
C0E0
C060
ENDCHAR
STARTCHAR $049D
ENCODING 1181
SWIDTH 640 0
DWIDTH 12 0
BBX 9 10 2 0
BITMAP
C180
C300
F600
F600
FC00
FC00
F600
F300
C300
C180
ENDCHAR
STARTCHAR $049E
ENCODING 1182
SWIDTH 746 0
DWIDTH 14 0
BBX 12 13 1 0
BITMAP
6030
FC60
60C0
6180
6180
7F00
7F00
6380
6180
60C0
6060
6060
6030
ENDCHAR
STARTCHAR $049F
ENCODING 1183
SWIDTH 586 0
DWIDTH 11 0
BBX 11 14 0 0
BITMAP
3000
3000
FC00
3000
30C0
30C0
3180
3300
3E00
3F00
3300
3180
30C0
3060
ENDCHAR
STARTCHAR $04A0
ENCODING 1184
SWIDTH 853 0
DWIDTH 16 0
BBX 15 13 0 0
BITMAP
FC06
FC0C
0C18
0C30
0C60
0FE0
0FE0
0C60
0C30
0C18
0C18
0C0C
0C06
ENDCHAR
STARTCHAR $04A1
ENCODING 1185
SWIDTH 693 0
DWIDTH 13 0
BBX 12 10 0 0
BITMAP
F830
F860
18C0
1980
1F00
1F80
18C0
18E0
1860
1830
ENDCHAR
STARTCHAR $04A2
ENCODING 1186
SWIDTH 853 0
DWIDTH 16 0
BBX 13 16 2 -3
BITMAP
C060
C060
C060
C060
C060
FFE0
FFE0
C060
C060
C060
C060
C078
C078
0008
0008
0008
ENDCHAR
STARTCHAR $04A3
ENCODING 1187
SWIDTH 693 0
DWIDTH 13 0
BBX 11 12 2 -2
BITMAP
C180
C180
C180
C180
FF80
FF80
C180
C180
C1E0
C1E0
0060
0060
ENDCHAR
STARTCHAR $04A4
ENCODING 1188
SWIDTH 1066 0
DWIDTH 20 0
BBX 18 13 2 0
BITMAP
C07FC0
C07FC0
C06000
C06000
C06000
FFE000
FFE000
C06000
C06000
C06000
C06000
C06000
C06000
ENDCHAR
STARTCHAR $04A5
ENCODING 1189
SWIDTH 906 0
DWIDTH 17 0
BBX 15 10 2 0
BITMAP
C1FE
C1FE
C180
C180
FF80
FF80
C180
C180
C180
C180
ENDCHAR
STARTCHAR $04A6
ENCODING 1190
SWIDTH 1173 0
DWIDTH 22 0
BBX 20 16 2 -3
BITMAP
FFE000
FFE000
C06000
C06000
C06000
C06200
C07FC0
C070E0
C06060
C06030
C06030
C06030
C06060
0000E0
0003C0
000300
ENDCHAR
STARTCHAR $04A7
ENCODING 1191
SWIDTH 960 0
DWIDTH 18 0
BBX 16 14 2 -4
BITMAP
FF80
FF80
C180
C180
C190
C1FC
C186
C183
C183
C183
0003
0006
003E
0038
ENDCHAR
STARTCHAR $04A8
ENCODING 1192
SWIDTH 960 0
DWIDTH 18 0
BBX 16 13 1 0
BITMAP
10F8
31FC
6386
6303
C303
C203
C303
C302
C306
6184
31DC
1E71
0FFF
ENDCHAR
STARTCHAR $04A9
ENCODING 1193
SWIDTH 800 0
DWIDTH 15 0
BBX 13 10 1 0
BITMAP
21E0
67F0
C618
C418
CC18
C418
C630
6720
7BC0
1FF8
ENDCHAR
STARTCHAR $04AA
ENCODING 1194
SWIDTH 693 0
DWIDTH 13 0
BBX 11 16 1 -3
BITMAP
0FC0
3FE0
7020
6000
C000
C000
C000
C000
C000
6000
7020
3FE0
0FC0
0200
0200
0200
ENDCHAR
STARTCHAR $04AB
ENCODING 1195
SWIDTH 586 0
DWIDTH 11 0
BBX 9 12 1 -2
BITMAP
1E00
7F80
E180
C000
C000
C000
C000
E100
7F80
3E00
0C00
0C00
ENDCHAR
STARTCHAR $04AC
ENCODING 1196
SWIDTH 586 0
DWIDTH 11 0
BBX 11 16 0 -3
BITMAP
FFE0
FFE0
0600
0600
0600
0600
0600
0600
0600
0600
0600
0780
0780
0180
0180
0180
ENDCHAR
STARTCHAR $04AD
ENCODING 1197
SWIDTH 480 0
DWIDTH 9 0
BBX 9 12 0 -2
BITMAP
FF80
FF80
0C00
0C00
0C00
0C00
0C00
0C00
0E00
0E00
0600
0600
ENDCHAR
STARTCHAR $04AE
ENCODING 1198
SWIDTH 693 0
DWIDTH 13 0
BBX 12 13 0 0
BITMAP
C030
6020
3060
30C0
18C0
1980
0D00
0700
0600
0600
0600
0600
0600
ENDCHAR
STARTCHAR $04AF
ENCODING 1199
SWIDTH 586 0
DWIDTH 11 0
BBX 10 14 0 -4
BITMAP
C040
60C0
60C0
2180
3180
3100
1B00
1A00
0E00
0E00
0C00
0C00
0C00
0C00
ENDCHAR
STARTCHAR $04B0
ENCODING 1200
SWIDTH 693 0
DWIDTH 13 0
BBX 12 13 0 0
BITMAP
C030
6020
3060
30C0
18C0
0980
0D00
0700
3FC0
0600
0600
0600
0600
ENDCHAR
STARTCHAR $04B1
ENCODING 1201
SWIDTH 586 0
DWIDTH 11 0
BBX 10 14 0 -4
BITMAP
C040
60C0
60C0
2180
3180
3100
1B00
1B00
0E00
0E00
7F80
0C00
0C00
0C00
ENDCHAR
STARTCHAR $04B2
ENCODING 1202
SWIDTH 693 0
DWIDTH 13 0
BBX 12 16 1 -3
BITMAP
C0C0
60C0
7180
3300
1F00
0E00
0E00
1E00
1B00
3380
6180
E0F0
C070
0030
0030
0030
ENDCHAR
STARTCHAR $04B3
ENCODING 1203
SWIDTH 533 0
DWIDTH 10 0
BBX 10 12 1 -2
BITMAP
C300
C300
6600
3C00
1800
1800
3C00
6600
C3C0
C1C0
00C0
00C0
ENDCHAR
STARTCHAR $04B4
ENCODING 1204
SWIDTH 960 0
DWIDTH 18 0
BBX 18 16 0 -3
BITMAP
FFE300
FFE300
060300
060300
060300
060300
060300
060300
060300
060300
060300
07FFC0
07FFC0
0000C0
0000C0
0000C0
ENDCHAR
STARTCHAR $04B5
ENCODING 1205
SWIDTH 746 0
DWIDTH 14 0
BBX 14 12 0 -2
BITMAP
FF10
FF10
0C10
0C10
0C10
0C10
0C10
0C10
0FFC
0FFC
000C
000C
ENDCHAR
STARTCHAR $04B6
ENCODING 1206
SWIDTH 746 0
DWIDTH 14 0
BBX 13 16 1 -3
BITMAP
C060
C060
C060
C060
C060
C060
60E0
7FE0
1E60
0060
0060
0078
0078
0018
0018
0018
ENDCHAR
STARTCHAR $04B7
ENCODING 1207
SWIDTH 640 0
DWIDTH 12 0
BBX 10 12 1 -2
BITMAP
C180
C180
C180
C180
C180
7F80
0180
0180
01C0
01C0
0040
0040
ENDCHAR
STARTCHAR $04B8
ENCODING 1208
SWIDTH 746 0
DWIDTH 14 0
BBX 11 13 1 0
BITMAP
C060
C060
C060
C060
C460
C460
E4E0
7FE0
1E60
0460
0460
0060
0060
ENDCHAR
STARTCHAR $04B9
ENCODING 1209
SWIDTH 586 0
DWIDTH 11 0
BBX 9 10 1 0
BITMAP
C180
C180
C180
D980
D980
7F80
1980
1980
1980
0180
ENDCHAR
STARTCHAR $04BA
ENCODING 1210
SWIDTH 746 0
DWIDTH 14 0
BBX 11 13 2 0
BITMAP
C000
C000
C000
C000
CE00
FF80
E0C0
C060
C060
C060
C060
C060
C060
ENDCHAR
STARTCHAR $04BB
ENCODING 1211
SWIDTH 693 0
DWIDTH 13 0
BBX 9 14 2 0
BITMAP
C000
C000
C000
C000
DE00
FF00
C180
C180
C180
C180
C180
C180
C180
C180
ENDCHAR
STARTCHAR $04BC
ENCODING 1212
SWIDTH 1013 0
DWIDTH 19 0
BBX 17 13 1 0
BITMAP
01F800
07FE00
CE0700
8C0300
880180
FFFF80
7FFF80
180000
0C0000
0C0000
060600
03FE00
01F800
ENDCHAR
STARTCHAR $04BD
ENCODING 1213
SWIDTH 746 0
DWIDTH 14 0
BBX 14 10 0 0
BITMAP
03E0
07F0
4C18
C80C
7FFC
0800
0C00
0C00
07F8
03E0
ENDCHAR
STARTCHAR $04BE
ENCODING 1214
SWIDTH 1013 0
DWIDTH 19 0
BBX 17 16 1 -3
BITMAP
01F800
07FE00
CE0700
8C0300
880180
FFFF80
7FFF80
180000
0C0000
0C0000
060600
03FE00
01F800
006000
006000
006000
ENDCHAR
STARTCHAR $04BF
ENCODING 1215
SWIDTH 746 0
DWIDTH 14 0
BBX 14 12 0 -2
BITMAP
03E0
07F0
4C18
C80C
7FFC
0800
0C00
0C00
07F8
03F0
00C0
00C0
ENDCHAR
STARTCHAR $04C0
ENCODING 1216
SWIDTH 320 0
DWIDTH 6 0
BBX 2 13 2 0
BITMAP
C0
C0
C0
C0
C0
C0
C0
C0
C0
C0
C0
C0
C0
ENDCHAR
STARTCHAR $04C1
ENCODING 1217
SWIDTH 1013 0
DWIDTH 19 0
BBX 18 17 1 0
BITMAP
061000
023000
03E000
000000
C0C180
60C180
60C300
30C600
18C600
1FFC00
1FFC00
18CE00
30C600
30C300
60C300
C0C180
C0C1C0
ENDCHAR
STARTCHAR $04C2
ENCODING 1218
SWIDTH 853 0
DWIDTH 16 0
BBX 14 14 1 0
BITMAP
0840
0CC0
0780
0000
C30C
4318
6318
3330
1FE0
3FF0
7330
6318
C30C
C30C
ENDCHAR
STARTCHAR $04C3
ENCODING 1219
SWIDTH 693 0
DWIDTH 13 0
BBX 11 17 2 -4
BITMAP
C0C0
C0C0
C180
C300
C600
FE00
FE00
C600
C300
C180
C0C0
C0C0
C060
0060
0060
03E0
03C0
ENDCHAR
STARTCHAR $04C4
ENCODING 1220
SWIDTH 586 0
DWIDTH 11 0
BBX 9 14 2 -4
BITMAP
C300
C300
C600
CC00
F800
FC00
C600
C300
C300
C180
0180
0180
0F00
0E00
ENDCHAR
STARTCHAR $04C6
ENCODING 1222
SWIDTH 640 0
DWIDTH 12 0
BBX 12 12 0 -2
BITMAP
1FC0
1FC0
10C0
30C0
30C0
30C0
30C0
30C0
E0F0
E0F0
0020
0060
ENDCHAR
STARTCHAR $04C7
ENCODING 1223
SWIDTH 800 0
DWIDTH 15 0
BBX 11 17 2 -4
BITMAP
C060
C060
C060
C060
C060
C060
FFE0
FFE0
C060
C060
C060
C060
C060
0060
0060
03E0
03C0
ENDCHAR
STARTCHAR $04C8
ENCODING 1224
SWIDTH 693 0
DWIDTH 13 0
BBX 9 14 2 -4
BITMAP
C180
C180
C180
C180
FF80
FF80
C180
C180
C180
C180
0180
0180
0F80
0F00
ENDCHAR
STARTCHAR $04C9
ENCODING 1225
SWIDTH 853 0
DWIDTH 16 0
BBX 13 16 2 -3
BITMAP
C060
C060
C060
C060
C060
FFE0
FFE0
C060
C060
C060
C060
C078
C078
0018
0010
0010
ENDCHAR
STARTCHAR $04CA
ENCODING 1226
SWIDTH 693 0
DWIDTH 13 0
BBX 11 12 2 -2
BITMAP
C180
C180
C180
C180
FF80
FF80
C180
C180
C1E0
C1C0
00C0
00C0
ENDCHAR
STARTCHAR $04CB
ENCODING 1227
SWIDTH 746 0
DWIDTH 14 0
BBX 11 16 1 -3
BITMAP
C060
C060
C060
C060
C060
E060
7FE0
3F60
0060
0060
0060
01E0
01E0
0100
0100
0100
ENDCHAR
STARTCHAR $04CC
ENCODING 1228
SWIDTH 586 0
DWIDTH 11 0
BBX 9 12 1 -2
BITMAP
C180
C180
C180
C180
C380
7F80
0180
0180
0780
0780
0600
0600
ENDCHAR
STARTCHAR $04CD
ENCODING 1229
SWIDTH 1013 0
DWIDTH 19 0
BBX 16 16 2 -3
BITMAP
C00C
C00C
E01C
F03C
F03C
D86C
C84C
CCCC
C78C
C78C
C30C
C00F
C00F
0002
0002
0006
ENDCHAR
STARTCHAR $04CE
ENCODING 1230
SWIDTH 853 0
DWIDTH 16 0
BBX 13 12 2 -2
BITMAP
C060
C060
E0E0
B1A0
B120
9B20
8A20
8E20
8438
8038
0010
0010
ENDCHAR
STARTCHAR $04CF
ENCODING 1231
SWIDTH 266 0
DWIDTH 5 0
BBX 2 14 2 0
BITMAP
C0
C0
C0
C0
C0
C0
C0
C0
C0
C0
C0
C0
C0
C0
ENDCHAR
STARTCHAR $04D0
ENCODING 1232
SWIDTH 746 0
DWIDTH 14 0
BBX 14 17 0 0
BITMAP
0840
0C40
0780
0000
0300
0780
0780
04C0
0CC0
0C60
1860
1860
3030
3FF0
6018
6018
C00C
ENDCHAR
STARTCHAR $04D1
ENCODING 1233
SWIDTH 586 0
DWIDTH 11 0
BBX 9 14 1 0
BITMAP
6200
2200
3C00
0000
3E00
FF00
0300
0180
7F80
E180
C180
C380
E780
7D80
ENDCHAR
STARTCHAR $04D2
ENCODING 1234
SWIDTH 746 0
DWIDTH 14 0
BBX 14 16 0 0
BITMAP
04C0
04C0
0000
0300
0780
0780
04C0
0CC0
0C60
1860
1860
3030
3FF0
6018
6018
C00C
ENDCHAR
STARTCHAR $04D3
ENCODING 1235
SWIDTH 586 0
DWIDTH 11 0
BBX 9 14 1 0
BITMAP
2600
3600
0000
0000
3E00
FF00
0300
0180
7F80
E180
C180
C380
E780
7D80
ENDCHAR
STARTCHAR $04D4
ENCODING 1236
SWIDTH 1066 0
DWIDTH 20 0
BBX 19 13 0 0
BITMAP
00FFC0
01FFC0
036000
036000
066000
047FC0
0C7FC0
186000
1FE000
3FE000
206000
607FE0
C07FE0
ENDCHAR
STARTCHAR $04D5
ENCODING 1237
SWIDTH 1013 0
DWIDTH 19 0
BBX 17 10 1 0
BITMAP
3E3C00
FFFE00
038300
018180
7FFF80
E18000
C18000
C3C000
E6FF00
7C3E00
ENDCHAR
STARTCHAR $04D6
ENCODING 1238
SWIDTH 640 0
DWIDTH 12 0
BBX 10 17 2 0
BITMAP
6100
2300
3E00
0000
FF80
FF80
C000
C000
C000
FF80
FF80
C000
C000
C000
C000
FFC0
FFC0
ENDCHAR
STARTCHAR $04D7
ENCODING 1239
SWIDTH 640 0
DWIDTH 12 0
BBX 10 14 1 0
BITMAP
2300
2300
1E00
0000
3E00
7F00
C180
C0C0
FFC0
C000
C000
6000
7F80
1F00
ENDCHAR
STARTCHAR $04D8
ENCODING 1240
SWIDTH 800 0
DWIDTH 15 0
BBX 13 13 1 0
BITMAP
0F80
3FE0
2070
0018
0018
0018
FFF8
C018
C018
E018
7070
3FE0
0F80
ENDCHAR
STARTCHAR $04D9
ENCODING 1241
SWIDTH 640 0
DWIDTH 12 0
BBX 10 10 1 0
BITMAP
3E00
7F00
4180
00C0
00C0
FFC0
C0C0
4180
7F80
1E00
ENDCHAR
STARTCHAR $04DA
ENCODING 1242
SWIDTH 800 0
DWIDTH 15 0
BBX 13 16 1 0
BITMAP
0C80
0C80
0000
0F80
3FE0
2070
0018
0018
0018
FFF8
C018
C018
E018
7070
3FE0
0F80
ENDCHAR
STARTCHAR $04DB
ENCODING 1243
SWIDTH 640 0
DWIDTH 12 0
BBX 10 14 1 0
BITMAP
3300
3300
0000
0000
3E00
7F00
4180
00C0
00C0
FFC0
C0C0
4180
7F80
1E00
ENDCHAR
STARTCHAR $04DC
ENCODING 1244
SWIDTH 1013 0
DWIDTH 19 0
BBX 18 16 1 0
BITMAP
032000
032000
000000
C0C180
60C180
60C300
30C600
18C600
1FFC00
1FFC00
18CE00
30C600
30C300
60C300
C0C180
C0C1C0
ENDCHAR
STARTCHAR $04DD
ENCODING 1245
SWIDTH 853 0
DWIDTH 16 0
BBX 14 14 1 0
BITMAP
0C80
0CC0
0000
0000
C30C
4318
6318
3330
1FE0
3FF0
7330
6318
C30C
C30C
ENDCHAR
STARTCHAR $04DE
ENCODING 1246
SWIDTH 640 0
DWIDTH 12 0
BBX 10 16 1 0
BITMAP
3300
3300
0000
7E00
FF80
0180
0180
0180
3F00
3F00
0180
00C0
00C0
81C0
FF80
3E00
ENDCHAR
STARTCHAR $04DF
ENCODING 1247
SWIDTH 533 0
DWIDTH 10 0
BBX 8 14 1 0
BITMAP
64
66
00
00
7C
FF
03
03
3C
07
03
03
FF
7C
ENDCHAR
STARTCHAR $04E0
ENCODING 1248
SWIDTH 640 0
DWIDTH 12 0
BBX 10 13 1 0
BITMAP
FF80
FF80
0300
0600
0C00
0800
1F00
0180
00C0
00C0
8180
FF80
7E00
ENDCHAR
STARTCHAR $04E1
ENCODING 1249
SWIDTH 533 0
DWIDTH 10 0
BBX 9 14 0 -4
BITMAP
FF80
FF80
0300
0600
0C00
0C00
1E00
0700
0180
0180
0180
8180
FF00
3E00
ENDCHAR
STARTCHAR $04E2
ENCODING 1250
SWIDTH 800 0
DWIDTH 15 0
BBX 11 16 2 0
BITMAP
1F80
0000
0000
C060
C0E0
C0E0
C1A0
C320
C720
C620
CC20
D820
F020
F020
E020
C020
ENDCHAR
STARTCHAR $04E3
ENCODING 1251
SWIDTH 693 0
DWIDTH 13 0
BBX 9 13 2 0
BITMAP
7E00
0000
0000
C180
C380
C380
C780
CD80
D980
F180
E180
E180
C180
ENDCHAR
STARTCHAR $04E4
ENCODING 1252
SWIDTH 800 0
DWIDTH 15 0
BBX 11 16 2 0
BITMAP
1900
1900
0000
C060
C0E0
C0E0
C1A0
C320
C720
C620
CC20
D820
F020
F020
E020
C020
ENDCHAR
STARTCHAR $04E5
ENCODING 1253
SWIDTH 693 0
DWIDTH 13 0
BBX 9 14 2 0
BITMAP
2600
2600
0000
0000
C180
C380
C380
C780
CD80
D980
F180
E180
E180
C180
ENDCHAR
STARTCHAR $04E6
ENCODING 1254
SWIDTH 853 0
DWIDTH 16 0
BBX 14 16 1 0
BITMAP
0CC0
0CC0
0000
0FC0
3FE0
7038
6018
C00C
C00C
C00C
C00C
C00C
6018
7038
3FF0
0FC0
ENDCHAR
STARTCHAR $04E7
ENCODING 1255
SWIDTH 640 0
DWIDTH 12 0
BBX 10 14 1 0
BITMAP
3300
3300
0000
0000
1E00
7F80
E1C0
C0C0
C0C0
C0C0
C0C0
E1C0
7F80
1E00
ENDCHAR
STARTCHAR $04E8
ENCODING 1256
SWIDTH 853 0
DWIDTH 16 0
BBX 14 13 1 0
BITMAP
0FC0
3FF0
7038
6018
C00C
C00C
FFFC
C00C
C00C
6018
7030
3FE0
0FC0
ENDCHAR
STARTCHAR $04E9
ENCODING 1257
SWIDTH 640 0
DWIDTH 12 0
BBX 10 10 1 0
BITMAP
1F00
7380
C0C0
C0C0
FFC0
C040
C0C0
60C0
7380
1E00
ENDCHAR
STARTCHAR $04EA
ENCODING 1258
SWIDTH 853 0
DWIDTH 16 0
BBX 14 16 1 0
BITMAP
0CC0
0CC0
0000
0FC0
3FF0
7038
6018
C00C
C00C
FFFC
C00C
C00C
6018
7030
3FE0
0FC0
ENDCHAR
STARTCHAR $04EB
ENCODING 1259
SWIDTH 640 0
DWIDTH 12 0
BBX 10 14 1 0
BITMAP
1300
3300
0000
0000
1F00
7380
C0C0
C0C0
FFC0
C040
C0C0
60C0
7380
1E00
ENDCHAR
STARTCHAR $04EC
ENCODING 1260
SWIDTH 693 0
DWIDTH 13 0
BBX 11 16 1 0
BITMAP
3300
3300
0000
3E00
FF80
C1C0
00E0
0060
1FE0
1FE0
0060
0060
00E0
C1C0
FF80
3E00
ENDCHAR
STARTCHAR $04ED
ENCODING 1261
SWIDTH 586 0
DWIDTH 11 0
BBX 9 14 1 0
BITMAP
6400
6600
0000
0000
7C00
EF00
8300
0180
3F80
0180
0180
8300
EE00
7C00
ENDCHAR
STARTCHAR $04EE
ENCODING 1262
SWIDTH 693 0
DWIDTH 13 0
BBX 12 16 1 0
BITMAP
3F00
0000
0000
C030
C060
6040
60C0
3180
3180
1B00
1B00
0E00
0400
0C00
7800
7000
ENDCHAR
STARTCHAR $04EF
ENCODING 1263
SWIDTH 586 0
DWIDTH 11 0
BBX 10 17 0 -4
BITMAP
3F00
0000
0000
C040
60C0
60C0
2180
3180
3100
1B00
1A00
0E00
0E00
0C00
0C00
F800
F000
ENDCHAR
STARTCHAR $04F0
ENCODING 1264
SWIDTH 693 0
DWIDTH 13 0
BBX 12 16 1 0
BITMAP
1300
1300
0000
C030
C060
6040
60C0
3180
3180
1B00
1B00
0E00
0400
0C00
7800
7000
ENDCHAR
STARTCHAR $04F1
ENCODING 1265
SWIDTH 586 0
DWIDTH 11 0
BBX 10 18 0 -4
BITMAP
1300
3300
0000
0000
C040
60C0
60C0
2180
3180
3100
1B00
1A00
0E00
0E00
0C00
0C00
F800
F000
ENDCHAR
STARTCHAR $04F2
ENCODING 1266
SWIDTH 693 0
DWIDTH 13 0
BBX 12 16 1 0
BITMAP
0D80
1900
0000
C030
C060
6040
60C0
3180
3180
1B00
1B00
0E00
0400
0C00
7800
7000
ENDCHAR
STARTCHAR $04F3
ENCODING 1267
SWIDTH 586 0
DWIDTH 11 0
BBX 10 18 0 -4
BITMAP
0D80
1900
0200
0000
C040
60C0
60C0
2180
3180
3100
1B00
1A00
0E00
0E00
0C00
0C00
F800
F000
ENDCHAR
STARTCHAR $04F4
ENCODING 1268
SWIDTH 746 0
DWIDTH 14 0
BBX 11 16 1 0
BITMAP
1300
1300
0000
C060
C060
C060
C060
C060
C060
60E0
7FE0
1E60
0060
0060
0060
0060
ENDCHAR
STARTCHAR $04F5
ENCODING 1269
SWIDTH 586 0
DWIDTH 11 0
BBX 9 14 1 0
BITMAP
2600
2600
0000
0000
C180
C180
C180
C180
C180
7F80
0180
0180
0180
0180
ENDCHAR
STARTCHAR $04F6
ENCODING 1270
SWIDTH 586 0
DWIDTH 11 0
BBX 9 16 2 -3
BITMAP
FF80
FF80
C000
C000
C000
C000
C000
C000
C000
C000
C000
F000
F000
3000
3000
3000
ENDCHAR
STARTCHAR $04F7
ENCODING 1271
SWIDTH 480 0
DWIDTH 9 0
BBX 7 12 2 -2
BITMAP
FE
FE
C0
C0
C0
C0
C0
C0
E0
E0
60
60
ENDCHAR
STARTCHAR $04F8
ENCODING 1272
SWIDTH 1013 0
DWIDTH 19 0
BBX 15 16 2 0
BITMAP
04C0
04C0
0000
C006
C006
C006
C006
C006
FF86
C0C6
C066
C066
C066
C0C6
C3C6
FF06
ENDCHAR
STARTCHAR $04F9
ENCODING 1273
SWIDTH 800 0
DWIDTH 15 0
BBX 11 14 2 0
BITMAP
1900
1900
0000
0000
C020
C020
C020
C020
FE20
C320
C320
C320
C720
FC20
ENDCHAR
STARTCHAR $04FA
ENCODING 1274
SWIDTH 640 0
DWIDTH 12 0
BBX 10 17 1 -4
BITMAP
3FC0
3FC0
2000
2000
2000
2000
FF80
2000
2000
2000
2000
3800
3800
1800
1800
F800
F000
ENDCHAR
STARTCHAR $04FB
ENCODING 1275
SWIDTH 480 0
DWIDTH 9 0
BBX 9 14 0 -4
BITMAP
3F80
3F80
3000
3000
3000
7F00
3000
3000
3C00
3C00
0C00
0800
5800
F000
ENDCHAR
STARTCHAR $04FC
ENCODING 1276
SWIDTH 693 0
DWIDTH 13 0
BBX 11 17 1 -4
BITMAP
C060
60C0
7180
3300
1B00
0E00
0E00
1E00
1B00
3180
60C0
C0C0
C060
0060
0060
03E0
03C0
ENDCHAR
STARTCHAR $04FD
ENCODING 1277
SWIDTH 533 0
DWIDTH 10 0
BBX 9 14 1 -4
BITMAP
C300
6300
6600
3C00
1800
1C00
3E00
6600
C300
C180
0180
0180
0F80
0F00
ENDCHAR
STARTCHAR $04FE
ENCODING 1278
SWIDTH 693 0
DWIDTH 13 0
BBX 11 13 1 0
BITMAP
C0E0
60C0
3180
3B00
1B00
0E00
7FC0
1F00
1B00
3180
61C0
60C0
C060
ENDCHAR
STARTCHAR $04FF
ENCODING 1279
SWIDTH 586 0
DWIDTH 11 0
BBX 9 10 1 0
BITMAP
C180
6300
3600
3C00
7F00
1C00
3600
6600
C300
C180
ENDCHAR
STARTCHAR $0510
ENCODING 1296
SWIDTH 640 0
DWIDTH 12 0
BBX 10 13 1 0
BITMAP
1F80
7FC0
6000
6000
6000
3F00
3F00
6000
C000
C000
E040
7FC0
1F00
ENDCHAR
STARTCHAR $0511
ENCODING 1297
SWIDTH 533 0
DWIDTH 10 0
BBX 9 10 1 0
BITMAP
3E00
7F00
C000
4000
3C00
E000
C000
C000
7F80
3E00
ENDCHAR
STARTCHAR $0512
ENCODING 1298
SWIDTH 800 0
DWIDTH 15 0
BBX 13 17 0 -4
BITMAP
1FF8
1FF8
1818
1818
1818
1818
1818
1818
1818
1818
3018
F018
E018
0018
0018
00F0
00E0
ENDCHAR
STARTCHAR $0513
ENCODING 1299
SWIDTH 640 0
DWIDTH 12 0
BBX 10 14 0 -4
BITMAP
1FC0
1FC0
10C0
30C0
30C0
30C0
30C0
30C0
E0C0
E0C0
00C0
00C0
07C0
0780
ENDCHAR
STARTCHAR $051A
ENCODING 1306
SWIDTH 853 0
DWIDTH 16 0
BBX 14 15 1 -2
BITMAP
0FC0
3FE0
7038
6018
C00C
C00C
C00C
C00C
C00C
6018
7038
3FE0
0FC0
01C4
00FC
ENDCHAR
STARTCHAR $051B
ENCODING 1307
SWIDTH 693 0
DWIDTH 13 0
BBX 10 14 1 -4
BITMAP
1EC0
7FC0
E1C0
C0C0
C0C0
C0C0
C0C0
E1C0
7FC0
1EC0
00C0
00C0
00C0
00C0
ENDCHAR
STARTCHAR $051C
ENCODING 1308
SWIDTH 1066 0
DWIDTH 20 0
BBX 19 13 1 0
BITMAP
C0C060
C0E040
C0E0C0
61E0C0
61B080
613180
233180
331900
361B00
161B00
1E0E00
1C0E00
0C0E00
ENDCHAR
STARTCHAR $051D
ENCODING 1309
SWIDTH 960 0
DWIDTH 18 0
BBX 17 10 0 0
BITMAP
C0C180
61C180
61E100
216300
332300
333200
123600
1E1E00
1C1C00
0C0C00
ENDCHAR
STARTCHAR $0524
ENCODING 1316
SWIDTH 853 0
DWIDTH 16 0
BBX 13 16 2 -3
BITMAP
FFE0
FFE0
C060
C060
C060
C060
C060
C060
C060
C060
C060
C078
C078
0008
0008
0008
ENDCHAR
STARTCHAR $0525
ENCODING 1317
SWIDTH 693 0
DWIDTH 13 0
BBX 11 12 2 -2
BITMAP
FF80
FF80
C180
C180
C180
C180
C180
C180
C1E0
C1E0
0060
0060
ENDCHAR
STARTCHAR $0526
ENCODING 1318
SWIDTH 800 0
DWIDTH 15 0
BBX 13 16 2 -3
BITMAP
C000
C000
C000
C000
CE00
FF80
E0C0
C060
C060
C060
C060
C078
C078
0018
0018
0018
ENDCHAR
STARTCHAR $0527
ENCODING 1319
SWIDTH 693 0
DWIDTH 13 0
BBX 11 16 2 -2
BITMAP
C000
C000
C000
C000
DE00
FF00
C180
C180
C180
C180
C180
C180
C1E0
C1E0
0060
0060
ENDCHAR
STARTCHAR $0528
ENCODING 1320
SWIDTH 800 0
DWIDTH 15 0
BBX 14 17 -1 -4
BITMAP
180C
180C
180C
180C
180C
180C
1FFC
1FFC
180C
180C
180C
180C
180C
1800
1800
F800
F000
ENDCHAR
STARTCHAR $0529
ENCODING 1321
SWIDTH 693 0
DWIDTH 13 0
BBX 13 14 -2 -4
BITMAP
0C18
0C18
0C18
0C18
0FF8
0FF8
0C18
0C18
0C18
0C18
0C00
0800
7800
F000
ENDCHAR
STARTCHAR $052E
ENCODING 1326
SWIDTH 800 0
DWIDTH 15 0
BBX 15 16 0 -3
BITMAP
1FF8
1FF8
1818
1818
1818
1818
1818
1818
1818
1818
3018
F01E
E01E
0006
0006
0006
ENDCHAR
STARTCHAR $052F
ENCODING 1327
SWIDTH 640 0
DWIDTH 12 0
BBX 12 12 0 -2
BITMAP
1FC0
1FC0
10C0
30C0
30C0
30C0
30C0
30C0
E0F0
E0F0
0030
0030
ENDCHAR
STARTCHAR $1E08
ENCODING 7688
SWIDTH 746 0
DWIDTH 14 0
BBX 11 20 1 -4
BITMAP
0180
0300
0000
0FC0
3FE0
7020
6000
C000
C000
C000
C000
C000
6000
7020
3FE0
0FC0
0200
0300
0100
0700
ENDCHAR
STARTCHAR $1E09
ENCODING 7689
SWIDTH 586 0
DWIDTH 11 0
BBX 9 18 1 -4
BITMAP
0600
0C00
0000
0000
1E00
7F80
E100
C000
C000
C000
C000
E100
7F80
3E00
0800
0C00
0400
1C00
ENDCHAR
STARTCHAR $1E0C
ENCODING 7692
SWIDTH 800 0
DWIDTH 15 0
BBX 13 17 2 -4
BITMAP
FF00
FFC0
C060
C030
C030
C018
C018
C018
C030
C030
C060
FFC0
FF00
0000
0000
0C00
0C00
ENDCHAR
STARTCHAR $1E0D
ENCODING 7693
SWIDTH 693 0
DWIDTH 13 0
BBX 10 18 1 -4
BITMAP
00C0
00C0
00C0
00C0
3EC0
7FC0
E1C0
C0C0
C0C0
C0C0
C0C0
E1C0
7FC0
3EC0
0000
0000
0400
0400
ENDCHAR
STARTCHAR $1E0E
ENCODING 7694
SWIDTH 800 0
DWIDTH 15 0
BBX 13 16 2 -3
BITMAP
FF00
FFC0
C060
C030
C030
C018
C018
C018
C030
C030
C060
FFC0
FF00
0000
0000
3F00
ENDCHAR
STARTCHAR $1E0F
ENCODING 7695
SWIDTH 693 0
DWIDTH 13 0
BBX 10 17 1 -3
BITMAP
00C0
00C0
00C0
00C0
3EC0
7FC0
E1C0
C0C0
C0C0
C0C0
C0C0
E1C0
7FC0
3EC0
0000
0000
3F80
ENDCHAR
STARTCHAR $1E14
ENCODING 7700
SWIDTH 693 0
DWIDTH 13 0
BBX 9 19 2 0
BITMAP
3000
0800
0000
3F00
0000
0000
FF80
FF80
C000
C000
C000
FF00
FF00
C000
C000
C000
C000
FF80
FF80
ENDCHAR
STARTCHAR $1E15
ENCODING 7701
SWIDTH 586 0
DWIDTH 11 0
BBX 10 16 1 0
BITMAP
3000
0C00
0000
3F00
0000
0000
3E00
7F00
C180
C0C0
FFC0
C000
C000
E000
7F80
1F00
ENDCHAR
STARTCHAR $1E16
ENCODING 7702
SWIDTH 693 0
DWIDTH 13 0
BBX 9 19 2 0
BITMAP
0600
0C00
0000
3F00
0000
0000
FF80
FF80
C000
C000
C000
FF00
FF00
C000
C000
C000
C000
FF80
FF80
ENDCHAR
STARTCHAR $1E17
ENCODING 7703
SWIDTH 586 0
DWIDTH 11 0
BBX 10 16 1 0
BITMAP
0600
0C00
0000
3F00
0000
0000
3E00
7F00
C180
C0C0
FFC0
C000
C000
E000
7F80
1F00
ENDCHAR
STARTCHAR $1E1C
ENCODING 7708
SWIDTH 693 0
DWIDTH 13 0
BBX 9 21 2 -4
BITMAP
2300
2200
1E00
0000
FF80
FF80
C000
C000
C000
FF00
FF00
C000
C000
C000
C000
FF80
FF80
0800
0C00
0600
1C00
ENDCHAR
STARTCHAR $1E1D
ENCODING 7709
SWIDTH 586 0
DWIDTH 11 0
BBX 10 18 1 -4
BITMAP
2100
2300
1E00
0000
3E00
7F00
C180
C0C0
FFC0
C000
C000
E000
7F80
1F00
0800
0C00
0600
1C00
ENDCHAR
STARTCHAR $1E20
ENCODING 7712
SWIDTH 746 0
DWIDTH 14 0
BBX 12 17 1 0
BITMAP
0FC0
0000
0000
0000
0FC0
3FF0
7020
6000
C000
C000
C030
C030
C030
6030
7030
3FF0
0FC0
ENDCHAR
STARTCHAR $1E21
ENCODING 7713
SWIDTH 693 0
DWIDTH 13 0
BBX 10 17 1 -4
BITMAP
3F00
0000
0000
3EC0
7FC0
E0C0
C0C0
C0C0
C0C0
C0C0
61C0
3FC0
0CC0
00C0
40C0
FF80
3F00
ENDCHAR
STARTCHAR $1E24
ENCODING 7716
SWIDTH 800 0
DWIDTH 15 0
BBX 11 17 2 -4
BITMAP
C060
C060
C060
C060
C060
FFE0
FFE0
C060
C060
C060
C060
C060
C060
0000
0000
0400
0400
ENDCHAR
STARTCHAR $1E25
ENCODING 7717
SWIDTH 693 0
DWIDTH 13 0
BBX 9 18 2 -4
BITMAP
C000
C000
C000
C000
DE00
FF00
C180
C180
C180
C180
C180
C180
C180
C180
0000
0000
0800
0800
ENDCHAR
STARTCHAR $1E2A
ENCODING 7722
SWIDTH 800 0
DWIDTH 15 0
BBX 11 17 2 -4
BITMAP
C060
C060
C060
C060
C060
FFE0
FFE0
C060
C060
C060
C060
C060
C060
0000
0000
1100
0E00
ENDCHAR
STARTCHAR $1E2B
ENCODING 7723
SWIDTH 693 0
DWIDTH 13 0
BBX 9 18 2 -4
BITMAP
C000
C000
C000
C000
DE00
FF00
C180
C180
C180
C180
C180
C180
C180
C180
0000
0000
2200
1C00
ENDCHAR
STARTCHAR $1E2E
ENCODING 7726
SWIDTH 320 0
DWIDTH 6 0
BBX 5 19 0 0
BITMAP
18
30
00
C8
C8
00
30
30
30
30
30
30
30
30
30
30
30
30
30
ENDCHAR
STARTCHAR $1E2F
ENCODING 7727
SWIDTH 266 0
DWIDTH 5 0
BBX 5 16 0 0
BITMAP
18
20
00
D8
C8
00
30
30
30
30
30
30
30
30
30
30
ENDCHAR
STARTCHAR $1E36
ENCODING 7734
SWIDTH 586 0
DWIDTH 11 0
BBX 9 17 2 -4
BITMAP
C000
C000
C000
C000
C000
C000
C000
C000
C000
C000
C000
FF80
FF80
0000
0000
0800
0C00
ENDCHAR
STARTCHAR $1E37
ENCODING 7735
SWIDTH 266 0
DWIDTH 5 0
BBX 2 18 2 -4
BITMAP
C0
C0
C0
C0
C0
C0
C0
C0
C0
C0
C0
C0
C0
C0
00
00
80
80
ENDCHAR
STARTCHAR $1E3A
ENCODING 7738
SWIDTH 586 0
DWIDTH 11 0
BBX 9 16 2 -3
BITMAP
C000
C000
C000
C000
C000
C000
C000
C000
C000
C000
C000
FF80
FF80
0000
0000
3F00
ENDCHAR
STARTCHAR $1E3B
ENCODING 7739
SWIDTH 266 0
DWIDTH 5 0
BBX 6 17 0 -3
BITMAP
30
30
30
30
30
30
30
30
30
30
30
30
30
30
00
00
FC
ENDCHAR
STARTCHAR $1E42
ENCODING 7746
SWIDTH 960 0
DWIDTH 18 0
BBX 14 17 2 -4
BITMAP
C00C
C01C
E01C
F03C
F03C
D86C
C84C
CCCC
C78C
C78C
C30C
C00C
C00C
0000
0000
0300
0300
ENDCHAR
STARTCHAR $1E43
ENCODING 7747
SWIDTH 1066 0
DWIDTH 20 0
BBX 16 14 2 -4
BITMAP
9E3C
FF7E
C1C3
C183
C183
C183
C183
C183
C183
C183
0000
0000
0180
0180
ENDCHAR
STARTCHAR $1E44
ENCODING 7748
SWIDTH 800 0
DWIDTH 15 0
BBX 11 17 2 0
BITMAP
0600
0600
0000
0000
C060
E060
F060
F060
D860
CC60
CE60
C760
C360
C1E0
C0E0
C0E0
C060
ENDCHAR
STARTCHAR $1E45
ENCODING 7749
SWIDTH 693 0
DWIDTH 13 0
BBX 9 14 2 0
BITMAP
1800
1800
0000
0000
9E00
BF00
C180
C180
C180
C180
C180
C180
C180
C180
ENDCHAR
STARTCHAR $1E46
ENCODING 7750
SWIDTH 800 0
DWIDTH 15 0
BBX 11 17 2 -4
BITMAP
C060
E060
F060
F060
D860
CC60
CE60
C760
C360
C1E0
C0E0
C0E0
C060
0000
0000
0400
0400
ENDCHAR
STARTCHAR $1E47
ENCODING 7751
SWIDTH 693 0
DWIDTH 13 0
BBX 9 14 2 -4
BITMAP
9E00
BF00
C180
C180
C180
C180
C180
C180
C180
C180
0000
0000
0800
0800
ENDCHAR
STARTCHAR $1E48
ENCODING 7752
SWIDTH 800 0
DWIDTH 15 0
BBX 11 16 2 -3
BITMAP
C060
E060
F060
F060
D860
CC60
CE60
C760
C360
C1E0
C0E0
C0E0
C060
0000
0000
1F80
ENDCHAR
STARTCHAR $1E49
ENCODING 7753
SWIDTH 693 0
DWIDTH 13 0
BBX 9 13 2 -3
BITMAP
9E00
BF00
C180
C180
C180
C180
C180
C180
C180
C180
0000
0000
7E00
ENDCHAR
STARTCHAR $1E4C
ENCODING 7756
SWIDTH 853 0
DWIDTH 16 0
BBX 14 19 1 0
BITMAP
0180
0300
0000
0E40
0980
0000
0FC0
3FE0
7030
6018
C00C
C00C
C00C
C00C
C00C
6018
7030
3FE0
0FC0
ENDCHAR
STARTCHAR $1E4D
ENCODING 7757
SWIDTH 640 0
DWIDTH 12 0
BBX 10 16 1 0
BITMAP
0600
0C00
0000
3900
2700
0000
1E00
7F80
E180
C0C0
C0C0
C0C0
C0C0
E180
7F80
1E00
ENDCHAR
STARTCHAR $1E4E
ENCODING 7758
SWIDTH 853 0
DWIDTH 16 0
BBX 14 19 1 0
BITMAP
0C80
0C80
0000
0E40
0980
0000
0FC0
3FE0
7030
6018
C00C
C00C
C00C
C00C
C00C
6018
7030
3FE0
0FC0
ENDCHAR
STARTCHAR $1E4F
ENCODING 7759
SWIDTH 640 0
DWIDTH 12 0
BBX 10 16 1 0
BITMAP
1200
3200
0000
3900
2700
0000
1E00
7F80
E180
C0C0
C0C0
C0C0
C0C0
E180
7F80
1E00
ENDCHAR
STARTCHAR $1E50
ENCODING 7760
SWIDTH 853 0
DWIDTH 16 0
BBX 14 19 1 0
BITMAP
0600
0300
0000
0000
0FC0
0000
0FC0
3FE0
7030
6018
C00C
C00C
C00C
C00C
C00C
6018
7030
3FE0
0FC0
ENDCHAR
STARTCHAR $1E51
ENCODING 7761
SWIDTH 640 0
DWIDTH 12 0
BBX 10 16 1 0
BITMAP
1800
0C00
0000
3F00
0000
0000
1E00
7F80
E180
C0C0
C0C0
C0C0
C0C0
E180
7F80
1E00
ENDCHAR
STARTCHAR $1E52
ENCODING 7762
SWIDTH 853 0
DWIDTH 16 0
BBX 14 19 1 0
BITMAP
0180
0300
0000
0000
0FC0
0000
0FC0
3FE0
7030
6018
C00C
C00C
C00C
C00C
C00C
6018
7030
3FE0
0FC0
ENDCHAR
STARTCHAR $1E53
ENCODING 7763
SWIDTH 640 0
DWIDTH 12 0
BBX 10 16 1 0
BITMAP
0600
0C00
0000
3F00
0000
0000
1E00
7F80
E180
C0C0
C0C0
C0C0
C0C0
E180
7F80
1E00
ENDCHAR
STARTCHAR $1E5A
ENCODING 7770
SWIDTH 746 0
DWIDTH 14 0
BBX 11 17 2 -4
BITMAP
FF00
FF80
C0C0
C040
C060
C040
C0C0
FF80
FF00
C300
C180
C0C0
C0C0
0000
0000
0C00
0C00
ENDCHAR
STARTCHAR $1E5B
ENCODING 7771
SWIDTH 426 0
DWIDTH 8 0
BBX 5 14 2 -4
BITMAP
98
B8
C0
C0
C0
C0
C0
C0
C0
C0
00
00
80
80
ENDCHAR
STARTCHAR $1E5E
ENCODING 7774
SWIDTH 746 0
DWIDTH 14 0
BBX 11 16 2 -3
BITMAP
FF00
FF80
C0C0
C040
C060
C040
C0C0
FF80
FF00
C300
C180
C0C0
C0C0
0000
0000
3F00
ENDCHAR
STARTCHAR $1E5F
ENCODING 7775
SWIDTH 426 0
DWIDTH 8 0
BBX 7 13 0 -3
BITMAP
26
2E
30
30
30
30
30
30
30
30
00
00
FC
ENDCHAR
STARTCHAR $1E60
ENCODING 7776
SWIDTH 640 0
DWIDTH 12 0
BBX 10 16 1 0
BITMAP
0C00
0C00
0000
3F00
7F80
C080
C000
C000
6000
3E00
0F80
01C0
00C0
80C0
FF80
3F00
ENDCHAR
STARTCHAR $1E61
ENCODING 7777
SWIDTH 480 0
DWIDTH 9 0
BBX 8 14 1 0
BITMAP
18
18
00
00
7E
FE
C0
C0
F0
3E
03
03
FE
7C
ENDCHAR
STARTCHAR $1E62
ENCODING 7778
SWIDTH 640 0
DWIDTH 12 0
BBX 10 17 1 -4
BITMAP
3F00
7F80
C080
C000
C000
6000
3E00
0F80
01C0
00C0
80C0
FF80
3F00
0000
0000
0C00
0C00
ENDCHAR
STARTCHAR $1E63
ENCODING 7779
SWIDTH 480 0
DWIDTH 9 0
BBX 8 14 1 -4
BITMAP
7E
FE
C0
C0
F0
3E
03
03
FE
7C
00
00
10
10
ENDCHAR
STARTCHAR $1E64
ENCODING 7780
SWIDTH 640 0
DWIDTH 12 0
BBX 10 19 1 0
BITMAP
0C00
0C00
0000
0600
0C00
0000
3F00
7F80
C080
C000
C000
6000
3E00
0F80
01C0
00C0
80C0
FF80
3F00
ENDCHAR
STARTCHAR $1E65
ENCODING 7781
SWIDTH 480 0
DWIDTH 9 0
BBX 8 16 1 0
BITMAP
10
10
00
0C
10
00
7E
FE
C0
C0
F0
3E
03
03
FE
7C
ENDCHAR
STARTCHAR $1E66
ENCODING 7782
SWIDTH 640 0
DWIDTH 12 0
BBX 10 19 1 0
BITMAP
0C00
0C00
0000
3300
0E00
0000
3F00
7F80
C080
C000
C000
6000
3E00
0F80
01C0
00C0
80C0
FF80
3F00
ENDCHAR
STARTCHAR $1E67
ENCODING 7783
SWIDTH 480 0
DWIDTH 9 0
BBX 8 16 1 0
BITMAP
10
10
00
64
38
00
7E
FE
C0
C0
F0
3E
03
03
FE
7C
ENDCHAR
STARTCHAR $1E68
ENCODING 7784
SWIDTH 640 0
DWIDTH 12 0
BBX 10 20 1 -4
BITMAP
0C00
0C00
0000
3F00
7F80
C080
C000
C000
6000
3E00
0F80
01C0
00C0
80C0
FF80
3F00
0000
0000
0C00
0C00
ENDCHAR
STARTCHAR $1E69
ENCODING 7785
SWIDTH 480 0
DWIDTH 9 0
BBX 8 18 1 -4
BITMAP
18
18
00
00
7E
FE
C0
C0
F0
3E
03
03
FE
7C
00
00
10
10
ENDCHAR
STARTCHAR $1E6C
ENCODING 7788
SWIDTH 586 0
DWIDTH 11 0
BBX 11 17 0 -4
BITMAP
FFE0
FFE0
0400
0400
0400
0400
0400
0400
0400
0400
0400
0400
0400
0000
0000
0400
0400
ENDCHAR
STARTCHAR $1E6D
ENCODING 7789
SWIDTH 426 0
DWIDTH 8 0
BBX 7 16 0 -4
BITMAP
30
30
FE
30
30
30
30
30
30
30
3E
1E
00
00
0C
0C
ENDCHAR
STARTCHAR $1E6E
ENCODING 7790
SWIDTH 586 0
DWIDTH 11 0
BBX 11 16 0 -3
BITMAP
FFE0
FFE0
0400
0400
0400
0400
0400
0400
0400
0400
0400
0400
0400
0000
0000
3F80
ENDCHAR
STARTCHAR $1E6F
ENCODING 7791
SWIDTH 426 0
DWIDTH 8 0
BBX 8 15 0 -3
BITMAP
30
30
FE
30
30
30
30
30
30
30
3E
1E
00
00
3F
ENDCHAR
STARTCHAR $1E78
ENCODING 7800
SWIDTH 800 0
DWIDTH 15 0
BBX 11 19 2 0
BITMAP
0300
0400
0000
1D00
2700
0000
C060
C060
C060
C060
C060
C060
C060
C060
C060
C060
60C0
7FC0
1F00
ENDCHAR
STARTCHAR $1E79
ENCODING 7801
SWIDTH 693 0
DWIDTH 13 0
BBX 9 16 2 0
BITMAP
0600
0800
0000
3A00
4E00
0000
8180
8180
8180
8180
8180
8180
C180
C380
FF80
3D80
ENDCHAR
STARTCHAR $1E7A
ENCODING 7802
SWIDTH 800 0
DWIDTH 15 0
BBX 11 19 2 0
BITMAP
1300
1B00
0000
3F00
0000
0000
C060
C060
C060
C060
C060
C060
C060
C060
C060
C060
60C0
7FC0
1F00
ENDCHAR
STARTCHAR $1E7B
ENCODING 7803
SWIDTH 693 0
DWIDTH 13 0
BBX 9 16 2 0
BITMAP
2600
2600
0000
7E00
0000
0000
8180
8180
8180
8180
8180
8180
C180
C380
FF80
3D80
ENDCHAR
STARTCHAR $1E80
ENCODING 7808
SWIDTH 1120 0
DWIDTH 21 0
BBX 19 16 1 0
BITMAP
018000
004000
000000
C06020
C0E060
C0E060
60B040
61B0C0
6190C0
331880
331980
330980
1E0F00
1E0F00
1E0700
0C0600
ENDCHAR
STARTCHAR $1E81
ENCODING 7809
SWIDTH 906 0
DWIDTH 17 0
BBX 17 14 0 0
BITMAP
030000
018000
000000
000000
C08180
41C100
61C300
636200
236600
322600
163400
1C3C00
1C1C00
0C1800
ENDCHAR
STARTCHAR $1E82
ENCODING 7810
SWIDTH 1120 0
DWIDTH 21 0
BBX 19 16 1 0
BITMAP
003000
004000
000000
C06020
C0E060
C0E060
60B040
61B0C0
6190C0
331880
331980
330980
1E0F00
1E0F00
1E0700
0C0600
ENDCHAR
STARTCHAR $1E83
ENCODING 7811
SWIDTH 906 0
DWIDTH 17 0
BBX 17 14 0 0
BITMAP
006000
00C000
010000
000000
C08180
41C100
61C300
636200
236600
322600
163400
1C3C00
1C1C00
0C1800
ENDCHAR
STARTCHAR $1E84
ENCODING 7812
SWIDTH 1120 0
DWIDTH 21 0
BBX 19 16 1 0
BITMAP
01B000
01B000
000000
C06020
C0E060
C0E060
60B040
61B0C0
6190C0
331880
331980
330980
1E0F00
1E0F00
1E0700
0C0600
ENDCHAR
STARTCHAR $1E85
ENCODING 7813
SWIDTH 906 0
DWIDTH 17 0
BBX 17 14 0 0
BITMAP
026000
026000
000000
000000
C08180
41C100
61C300
636200
236600
322600
163400
1C3C00
1C1C00
0C1800
ENDCHAR
STARTCHAR $1E8E
ENCODING 7822
SWIDTH 640 0
DWIDTH 12 0
BBX 12 17 0 0
BITMAP
0600
0600
0000
0000
C030
6060
6060
30C0
1880
1980
0F00
0700
0600
0600
0600
0600
0600
ENDCHAR
STARTCHAR $1E8F
ENCODING 7823
SWIDTH 533 0
DWIDTH 10 0
BBX 10 18 0 -4
BITMAP
0C00
0C00
0000
0000
C040
40C0
6080
6180
3180
3300
1B00
1A00
0E00
0C00
0C00
0C00
F800
F000
ENDCHAR
STARTCHAR $1E92
ENCODING 7826
SWIDTH 640 0
DWIDTH 12 0
BBX 11 17 1 -4
BITMAP
FFE0
FFC0
01C0
0180
0300
0600
0C00
1800
3800
3000
6000
FFE0
FFE0
0000
0000
0400
0400
ENDCHAR
STARTCHAR $1E93
ENCODING 7827
SWIDTH 533 0
DWIDTH 10 0
BBX 8 14 1 -4
BITMAP
FF
03
06
0C
18
30
30
60
C0
FF
00
00
18
18
ENDCHAR
STARTCHAR $1E97
ENCODING 7831
SWIDTH 426 0
DWIDTH 8 0
BBX 7 16 0 0
BITMAP
C8
C8
00
00
30
30
FE
30
30
30
30
30
30
30
3E
1E
ENDCHAR
STARTCHAR $1E9E
ENCODING 7838
SWIDTH 746 0
DWIDTH 14 0
BBX 11 13 2 0
BITMAP
1F80
7FC0
60C0
C180
C300
C600
C7C0
C060
C060
C060
C060
CFE0
CF80
ENDCHAR
STARTCHAR $1EA0
ENCODING 7840
SWIDTH 746 0
DWIDTH 14 0
BBX 14 17 0 -4
BITMAP
0300
0700
0780
0C80
0CC0
18C0
1860
3060
3030
3FF0
6018
6018
C00C
0000
0000
0300
0300
ENDCHAR
STARTCHAR $1EA1
ENCODING 7841
SWIDTH 586 0
DWIDTH 11 0
BBX 9 14 1 -4
BITMAP
3E00
FF00
0300
0180
7F80
E180
C180
C380
E780
7D80
0000
0000
0800
0800
ENDCHAR
STARTCHAR $1EA2
ENCODING 7842
SWIDTH 746 0
DWIDTH 14 0
BBX 14 18 0 0
BITMAP
0700
0080
0080
0100
0000
0300
0700
0780
0C80
0CC0
18C0
1860
3060
3030
3FF0
6018
6018
C00C
ENDCHAR
STARTCHAR $1EA3
ENCODING 7843
SWIDTH 586 0
DWIDTH 11 0
BBX 9 15 1 0
BITMAP
1C00
0400
0400
0000
0000
3E00
FF00
0300
0180
7F80
E180
C180
C380
E780
7D80
ENDCHAR
STARTCHAR $1EA4
ENCODING 7844
SWIDTH 746 0
DWIDTH 14 0
BBX 14 18 0 0
BITMAP
0030
0060
0700
0CC0
0000
0300
0700
0780
0C80
0CC0
18C0
1860
3060
3030
3FF0
6018
6018
C00C
ENDCHAR
STARTCHAR $1EA5
ENCODING 7845
SWIDTH 586 0
DWIDTH 11 0
BBX 10 15 1 0
BITMAP
00C0
0180
1C00
2200
0000
3E00
FF00
0300
0180
7F80
E180
C180
C380
E780
7D80
ENDCHAR
STARTCHAR $1EA6
ENCODING 7846
SWIDTH 746 0
DWIDTH 14 0
BBX 14 18 0 0
BITMAP
00C0
0060
0700
0CC0
0000
0300
0700
0780
0C80
0CC0
18C0
1860
3060
3030
3FF0
6018
6018
C00C
ENDCHAR
STARTCHAR $1EA7
ENCODING 7847
SWIDTH 586 0
DWIDTH 11 0
BBX 9 15 1 0
BITMAP
0600
0100
1C00
2200
0000
3E00
FF00
0300
0180
7F80
E180
C180
C380
E780
7D80
ENDCHAR
STARTCHAR $1EA8
ENCODING 7848
SWIDTH 746 0
DWIDTH 14 0
BBX 14 18 0 0
BITMAP
00C0
0020
0700
0CC0
0000
0300
0700
0780
0C80
0CC0
18C0
1860
3060
3030
3FF0
6018
6018
C00C
ENDCHAR
STARTCHAR $1EA9
ENCODING 7849
SWIDTH 586 0
DWIDTH 11 0
BBX 9 15 1 0
BITMAP
0300
0100
1C00
2200
0000
3E00
FF00
0300
0180
7F80
E180
C180
C380
E780
7D80
ENDCHAR
STARTCHAR $1EAA
ENCODING 7850
SWIDTH 746 0
DWIDTH 14 0
BBX 14 19 0 0
BITMAP
0E40
0980
0000
0700
0CC0
0000
0300
0700
0780
0C80
0CC0
18C0
1860
3060
3030
3FF0
6018
6018
C00C
ENDCHAR
STARTCHAR $1EAB
ENCODING 7851
SWIDTH 586 0
DWIDTH 11 0
BBX 9 16 1 0
BITMAP
3B00
4E00
0000
1C00
2200
0000
3E00
FF00
0300
0180
7F80
E180
C180
C380
E780
7D80
ENDCHAR
STARTCHAR $1EAC
ENCODING 7852
SWIDTH 746 0
DWIDTH 14 0
BBX 14 20 0 -4
BITMAP
0780
0CC0
0000
0300
0700
0780
0C80
0CC0
18C0
1860
3060
3030
3FF0
6018
6018
C00C
0000
0000
0300
0300
ENDCHAR
STARTCHAR $1EAD
ENCODING 7853
SWIDTH 586 0
DWIDTH 11 0
BBX 9 18 1 -4
BITMAP
1C00
3600
0000
0000
3E00
FF00
0300
0180
7F80
E180
C180
C380
E780
7D80
0000
0000
0800
0800
ENDCHAR
STARTCHAR $1EAE
ENCODING 7854
SWIDTH 746 0
DWIDTH 14 0
BBX 14 18 0 0
BITMAP
0180
0300
0840
0780
0000
0300
0700
0780
0C80
0CC0
18C0
1860
3060
3030
3FF0
6018
6018
C00C
ENDCHAR
STARTCHAR $1EAF
ENCODING 7855
SWIDTH 586 0
DWIDTH 11 0
BBX 9 16 1 0
BITMAP
0600
0800
0000
2200
3C00
0000
3E00
FF00
0300
0180
7F80
E180
C180
C380
E780
7D80
ENDCHAR
STARTCHAR $1EB0
ENCODING 7856
SWIDTH 746 0
DWIDTH 14 0
BBX 14 18 0 0
BITMAP
0600
0300
0840
0780
0000
0300
0700
0780
0C80
0CC0
18C0
1860
3060
3030
3FF0
6018
6018
C00C
ENDCHAR
STARTCHAR $1EB1
ENCODING 7857
SWIDTH 586 0
DWIDTH 11 0
BBX 9 16 1 0
BITMAP
3000
1800
0000
2200
3C00
0000
3E00
FF00
0300
0180
7F80
E180
C180
C380
E780
7D80
ENDCHAR
STARTCHAR $1EB2
ENCODING 7858
SWIDTH 746 0
DWIDTH 14 0
BBX 14 19 0 0
BITMAP
0300
0100
0100
08C0
0780
0000
0300
0700
0780
0C80
0CC0
18C0
1860
3060
3030
3FF0
6018
6018
C00C
ENDCHAR
STARTCHAR $1EB3
ENCODING 7859
SWIDTH 586 0
DWIDTH 11 0
BBX 9 16 1 0
BITMAP
1800
0400
0C00
2200
3C00
0000
3E00
FF00
0300
0180
7F80
E180
C180
C380
E780
7D80
ENDCHAR
STARTCHAR $1EB4
ENCODING 7860
SWIDTH 746 0
DWIDTH 14 0
BBX 14 18 0 0
BITMAP
0E40
0980
0840
0780
0000
0300
0700
0780
0C80
0CC0
18C0
1860
3060
3030
3FF0
6018
6018
C00C
ENDCHAR
STARTCHAR $1EB5
ENCODING 7861
SWIDTH 586 0
DWIDTH 11 0
BBX 9 16 1 0
BITMAP
3B00
6E00
0000
2200
3C00
0000
3E00
FF00
0300
0180
7F80
E180
C180
C380
E780
7D80
ENDCHAR
STARTCHAR $1EB6
ENCODING 7862
SWIDTH 746 0
DWIDTH 14 0
BBX 14 21 0 -4
BITMAP
0840
08C0
0780
0000
0300
0700
0780
0C80
0CC0
18C0
1860
3060
3030
3FF0
6018
6018
C00C
0000
0000
0300
0300
ENDCHAR
STARTCHAR $1EB7
ENCODING 7863
SWIDTH 586 0
DWIDTH 11 0
BBX 9 18 1 -4
BITMAP
6200
2200
1C00
0000
3E00
FF00
0300
0180
7F80
E180
C180
C380
E780
7D80
0000
0000
0800
0800
ENDCHAR
STARTCHAR $1EB8
ENCODING 7864
SWIDTH 693 0
DWIDTH 13 0
BBX 9 17 2 -4
BITMAP
FF80
FF80
C000
C000
C000
FF00
FF00
C000
C000
C000
C000
FF80
FF80
0000
0000
0C00
0C00
ENDCHAR
STARTCHAR $1EB9
ENCODING 7865
SWIDTH 586 0
DWIDTH 11 0
BBX 10 14 1 -4
BITMAP
3E00
7F00
C180
C0C0
FFC0
C000
C000
E000
7F80
1F00
0000
0000
0C00
0C00
ENDCHAR
STARTCHAR $1EBA
ENCODING 7866
SWIDTH 693 0
DWIDTH 13 0
BBX 9 18 2 0
BITMAP
1C00
0400
0400
0400
0000
FF80
FF80
C000
C000
C000
FF00
FF00
C000
C000
C000
C000
FF80
FF80
ENDCHAR
STARTCHAR $1EBB
ENCODING 7867
SWIDTH 586 0
DWIDTH 11 0
BBX 10 15 1 0
BITMAP
1C00
0600
0600
0400
0000
3E00
7F00
C180
C0C0
FFC0
C000
C000
E000
7F80
1F00
ENDCHAR
STARTCHAR $1EBC
ENCODING 7868
SWIDTH 693 0
DWIDTH 13 0
BBX 9 17 2 0
BITMAP
2000
3900
6600
0000
FF80
FF80
C000
C000
C000
FF00
FF00
C000
C000
C000
C000
FF80
FF80
ENDCHAR
STARTCHAR $1EBD
ENCODING 7869
SWIDTH 586 0
DWIDTH 11 0
BBX 10 14 1 0
BITMAP
2000
3900
2600
0000
3E00
7F00
C180
C0C0
FFC0
C000
C000
E000
7F80
1F00
ENDCHAR
STARTCHAR $1EBE
ENCODING 7870
SWIDTH 693 0
DWIDTH 13 0
BBX 10 18 2 0
BITMAP
00C0
0180
1C00
3200
0000
FF80
FF80
C000
C000
C000
FF00
FF00
C000
C000
C000
C000
FF80
FF80
ENDCHAR
STARTCHAR $1EBF
ENCODING 7871
SWIDTH 586 0
DWIDTH 11 0
BBX 10 15 1 0
BITMAP
00C0
0180
1C00
3300
0000
3E00
7F00
C180
C0C0
FFC0
C000
C000
E000
7F80
1F00
ENDCHAR
STARTCHAR $1EC0
ENCODING 7872
SWIDTH 693 0
DWIDTH 13 0
BBX 9 18 2 0
BITMAP
0600
0100
1C80
3200
0000
FF80
FF80
C000
C000
C000
FF00
FF00
C000
C000
C000
C000
FF80
FF80
ENDCHAR
STARTCHAR $1EC1
ENCODING 7873
SWIDTH 586 0
DWIDTH 11 0
BBX 10 15 1 0
BITMAP
0300
0180
1C00
3300
0000
3E00
7F00
C180
C0C0
FFC0
C000
C000
E000
7F80
1F00
ENDCHAR
STARTCHAR $1EC2
ENCODING 7874
SWIDTH 693 0
DWIDTH 13 0
BBX 9 18 2 0
BITMAP
0300
0100
1D00
3200
0000
FF80
FF80
C000
C000
C000
FF00
FF00
C000
C000
C000
C000
FF80
FF80
ENDCHAR
STARTCHAR $1EC3
ENCODING 7875
SWIDTH 586 0
DWIDTH 11 0
BBX 10 15 1 0
BITMAP
0300
0080
1D00
3300
0000
3E00
7F00
C180
C0C0
FFC0
C000
C000
E000
7F80
1F00
ENDCHAR
STARTCHAR $1EC4
ENCODING 7876
SWIDTH 693 0
DWIDTH 13 0
BBX 9 19 2 0
BITMAP
3900
2E00
0000
1C00
3200
0000
FF80
FF80
C000
C000
C000
FF00
FF00
C000
C000
C000
C000
FF80
FF80
ENDCHAR
STARTCHAR $1EC5
ENCODING 7877
SWIDTH 586 0
DWIDTH 11 0
BBX 10 16 1 0
BITMAP
3900
2E00
0000
1C00
3300
0000
3E00
7F00
C180
C0C0
FFC0
C000
C000
E000
7F80
1F00
ENDCHAR
STARTCHAR $1EC6
ENCODING 7878
SWIDTH 693 0
DWIDTH 13 0
BBX 9 20 2 -4
BITMAP
1C00
2200
0000
FF80
FF80
C000
C000
C000
FF00
FF00
C000
C000
C000
C000
FF80
FF80
0000
0000
0C00
0C00
ENDCHAR
STARTCHAR $1EC7
ENCODING 7879
SWIDTH 586 0
DWIDTH 11 0
BBX 10 18 1 -4
BITMAP
1C00
3600
0100
0000
3E00
7F00
C180
C0C0
FFC0
C000
C000
E000
7F80
1F00
0000
0000
0C00
0C00
ENDCHAR
STARTCHAR $1EC8
ENCODING 7880
SWIDTH 320 0
DWIDTH 6 0
BBX 4 18 1 0
BITMAP
E0
10
10
20
00
60
60
60
60
60
60
60
60
60
60
60
60
60
ENDCHAR
STARTCHAR $1EC9
ENCODING 7881
SWIDTH 266 0
DWIDTH 5 0
BBX 3 15 1 0
BITMAP
E0
20
20
00
00
60
60
60
60
60
60
60
60
60
60
ENDCHAR
STARTCHAR $1ECA
ENCODING 7882
SWIDTH 320 0
DWIDTH 6 0
BBX 2 17 2 -4
BITMAP
C0
C0
C0
C0
C0
C0
C0
C0
C0
C0
C0
C0
C0
00
00
C0
C0
ENDCHAR
STARTCHAR $1ECB
ENCODING 7883
SWIDTH 266 0
DWIDTH 5 0
BBX 3 18 1 -4
BITMAP
E0
60
00
00
60
60
60
60
60
60
60
60
60
60
00
00
40
40
ENDCHAR
STARTCHAR $1ECC
ENCODING 7884
SWIDTH 853 0
DWIDTH 16 0
BBX 14 17 1 -4
BITMAP
0FC0
3FE0
7030
6018
C00C
C00C
C00C
C00C
C00C
6018
7030
3FE0
0FC0
0000
0000
0300
0300
ENDCHAR
STARTCHAR $1ECD
ENCODING 7885
SWIDTH 640 0
DWIDTH 12 0
BBX 10 14 1 -4
BITMAP
1E00
7F80
E180
C0C0
C0C0
C0C0
C0C0
E180
7F80
1E00
0000
0000
0C00
0C00
ENDCHAR
STARTCHAR $1ECE
ENCODING 7886
SWIDTH 853 0
DWIDTH 16 0
BBX 14 18 1 0
BITMAP
0700
0080
0080
0100
0000
0FC0
3FE0
7030
6018
C00C
C00C
C00C
C00C
C00C
6018
7030
3FE0
0FC0
ENDCHAR
STARTCHAR $1ECF
ENCODING 7887
SWIDTH 640 0
DWIDTH 12 0
BBX 10 15 1 0
BITMAP
1C00
0200
0200
0400
0000
1E00
7F80
E180
C0C0
C0C0
C0C0
C0C0
E180
7F80
1E00
ENDCHAR
STARTCHAR $1ED0
ENCODING 7888
SWIDTH 853 0
DWIDTH 16 0
BBX 14 18 1 0
BITMAP
0030
0060
0300
0CC0
0000
0FC0
3FE0
7030
6018
C00C
C00C
C00C
C00C
C00C
6018
7030
3FE0
0FC0
ENDCHAR
STARTCHAR $1ED1
ENCODING 7889
SWIDTH 640 0
DWIDTH 12 0
BBX 10 15 1 0
BITMAP
0040
0080
1D00
3300
0000
1E00
7F80
E180
C0C0
C0C0
C0C0
C0C0
E180
7F80
1E00
ENDCHAR
STARTCHAR $1ED2
ENCODING 7890
SWIDTH 853 0
DWIDTH 16 0
BBX 14 18 1 0
BITMAP
00C0
0060
0300
0CC0
0000
0FC0
3FE0
7030
6018
C00C
C00C
C00C
C00C
C00C
6018
7030
3FE0
0FC0
ENDCHAR
STARTCHAR $1ED3
ENCODING 7891
SWIDTH 640 0
DWIDTH 12 0
BBX 10 15 1 0
BITMAP
0300
0180
1C00
3300
0000
1E00
7F80
E180
C0C0
C0C0
C0C0
C0C0
E180
7F80
1E00
ENDCHAR
STARTCHAR $1ED4
ENCODING 7892
SWIDTH 853 0
DWIDTH 16 0
BBX 14 18 1 0
BITMAP
00E0
0020
0340
0CC0
0000
0FC0
3FE0
7030
6018
C00C
C00C
C00C
C00C
C00C
6018
7030
3FE0
0FC0
ENDCHAR
STARTCHAR $1ED5
ENCODING 7893
SWIDTH 640 0
DWIDTH 12 0
BBX 10 15 1 0
BITMAP
0380
0080
1C00
3300
0000
1E00
7F80
E180
C0C0
C0C0
C0C0
C0C0
E180
7F80
1E00
ENDCHAR
STARTCHAR $1ED6
ENCODING 7894
SWIDTH 853 0
DWIDTH 16 0
BBX 14 19 1 0
BITMAP
0640
0FC0
0980
0300
0CC0
0000
0FC0
3FE0
7030
6018
C00C
C00C
C00C
C00C
C00C
6018
7030
3FE0
0FC0
ENDCHAR
STARTCHAR $1ED7
ENCODING 7895
SWIDTH 640 0
DWIDTH 12 0
BBX 10 16 1 0
BITMAP
3900
2700
0000
1C00
3300
0000
1E00
7F80
E180
C0C0
C0C0
C0C0
C0C0
E180
7F80
1E00
ENDCHAR
STARTCHAR $1ED8
ENCODING 7896
SWIDTH 853 0
DWIDTH 16 0
BBX 14 20 1 -4
BITMAP
0780
0CC0
0000
0FC0
3FE0
7030
6018
C00C
C00C
C00C
C00C
C00C
6018
7030
3FE0
0FC0
0000
0000
0300
0300
ENDCHAR
STARTCHAR $1ED9
ENCODING 7897
SWIDTH 640 0
DWIDTH 12 0
BBX 10 18 1 -4
BITMAP
0C00
1200
2100
0000
1E00
7F80
E180
C0C0
C0C0
C0C0
C0C0
E180
7F80
1E00
0000
0000
0C00
0C00
ENDCHAR
STARTCHAR $1EDA
ENCODING 7898
SWIDTH 853 0
DWIDTH 16 0
BBX 14 16 1 0
BITMAP
01C8
030C
000C
0FF8
3FE0
7030
6018
C00C
C00C
C00C
C00C
C00C
6018
7030
3FE0
0FC0
ENDCHAR
STARTCHAR $1EDB
ENCODING 7899
SWIDTH 640 0
DWIDTH 12 0
BBX 10 14 1 0
BITMAP
0300
04C0
0840
00C0
1F80
7F80
E180
C0C0
C0C0
C0C0
C0C0
E180
7F80
1E00
ENDCHAR
STARTCHAR $1EDC
ENCODING 7900
SWIDTH 853 0
DWIDTH 16 0
BBX 14 16 1 0
BITMAP
0E08
030C
000C
0FF8
3FE0
7030
6018
C00C
C00C
C00C
C00C
C00C
6018
7030
3FE0
0FC0
ENDCHAR
STARTCHAR $1EDD
ENCODING 7901
SWIDTH 640 0
DWIDTH 12 0
BBX 10 14 1 0
BITMAP
3000
18C0
0440
00C0
1F80
7F80
E180
C0C0
C0C0
C0C0
C0C0
E180
7F80
1E00
ENDCHAR
STARTCHAR $1EDE
ENCODING 7902
SWIDTH 853 0
DWIDTH 16 0
BBX 14 18 1 0
BITMAP
0700
0080
0088
010C
000C
0FF8
3FE0
7030
6018
C00C
C00C
C00C
C00C
C00C
6018
7030
3FE0
0FC0
ENDCHAR
STARTCHAR $1EDF
ENCODING 7903
SWIDTH 640 0
DWIDTH 12 0
BBX 10 15 1 0
BITMAP
1C00
0200
0240
0440
0040
1F80
7F80
E180
C0C0
C0C0
C0C0
C0C0
E180
7F80
1E00
ENDCHAR
STARTCHAR $1EE0
ENCODING 7904
SWIDTH 853 0
DWIDTH 16 0
BBX 14 16 1 1
BITMAP
0E48
098C
000C
0FF8
3FE0
7030
6018
C00C
C00C
C00C
C00C
C00C
6018
7030
3FE0
0FC0
ENDCHAR
STARTCHAR $1EE1
ENCODING 7905
SWIDTH 640 0
DWIDTH 12 0
BBX 10 13 1 1
BITMAP
3900
2640
0040
1F80
7F80
E180
C0C0
C0C0
C0C0
C0C0
E180
7F80
1E00
ENDCHAR
STARTCHAR $1EE2
ENCODING 7906
SWIDTH 853 0
DWIDTH 16 0
BBX 14 20 1 -4
BITMAP
0008
000C
0008
0FF8
3FF0
7038
6018
C00C
C00C
C00C
C00C
C00C
6018
7030
3FE0
0FC0
0000
0000
0300
0300
ENDCHAR
STARTCHAR $1EE3
ENCODING 7907
SWIDTH 640 0
DWIDTH 12 0
BBX 10 17 1 -4
BITMAP
0040
0040
0040
1F80
7F80
E180
C0C0
C0C0
C0C0
C0C0
E180
7F80
1E00
0000
0000
0C00
0C00
ENDCHAR
STARTCHAR $1EE4
ENCODING 7908
SWIDTH 800 0
DWIDTH 15 0
BBX 11 17 2 -4
BITMAP
C060
C060
C060
C060
C060
C060
C060
C060
C060
C060
60C0
7FC0
1F00
0000
0000
0400
0400
ENDCHAR
STARTCHAR $1EE5
ENCODING 7909
SWIDTH 693 0
DWIDTH 13 0
BBX 9 14 2 -4
BITMAP
8180
8180
8180
8180
8180
8180
C180
C380
FF80
3D80
0000
0000
0800
1800
ENDCHAR
STARTCHAR $1EE6
ENCODING 7910
SWIDTH 800 0
DWIDTH 15 0
BBX 11 18 2 0
BITMAP
0E00
0200
0200
0600
0000
C060
C060
C060
C060
C060
C060
C060
C060
C060
C060
60C0
7FC0
1F00
ENDCHAR
STARTCHAR $1EE7
ENCODING 7911
SWIDTH 693 0
DWIDTH 13 0
BBX 9 15 2 0
BITMAP
1C00
0400
0400
0800
0000
8180
8180
8180
8180
8180
8180
C180
C380
FF80
3D80
ENDCHAR
STARTCHAR $1EE8
ENCODING 7912
SWIDTH 800 0
DWIDTH 15 0
BBX 13 16 2 0
BITMAP
0308
0408
0018
C070
C060
C060
C060
C060
C060
C060
C060
C060
C060
60C0
7FC0
1F00
ENDCHAR
STARTCHAR $1EE9
ENCODING 7913
SWIDTH 693 0
DWIDTH 13 0
BBX 11 14 2 0
BITMAP
0600
0C40
1060
0060
81C0
8180
8180
8180
8180
8180
C180
C380
FF80
3D80
ENDCHAR
STARTCHAR $1EEA
ENCODING 7914
SWIDTH 800 0
DWIDTH 15 0
BBX 13 16 2 0
BITMAP
1808
0C08
0018
C070
C060
C060
C060
C060
C060
C060
C060
C060
C060
60C0
7FC0
1F00
ENDCHAR
STARTCHAR $1EEB
ENCODING 7915
SWIDTH 693 0
DWIDTH 13 0
BBX 11 14 2 0
BITMAP
3000
1840
0060
0060
81C0
8180
8180
8180
8180
8180
C180
C380
FF80
3D80
ENDCHAR
STARTCHAR $1EEC
ENCODING 7916
SWIDTH 800 0
DWIDTH 15 0
BBX 13 18 2 0
BITMAP
0E00
0200
0218
0608
0018
C070
C060
C060
C060
C060
C060
C060
C060
C060
C060
60C0
7FC0
1F00
ENDCHAR
STARTCHAR $1EED
ENCODING 7917
SWIDTH 693 0
DWIDTH 13 0
BBX 11 15 2 0
BITMAP
1C00
0400
0440
0860
0060
81C0
8180
8180
8180
8180
8180
C180
C380
FF80
3D80
ENDCHAR
STARTCHAR $1EEE
ENCODING 7918
SWIDTH 800 0
DWIDTH 15 0
BBX 13 17 2 0
BITMAP
1000
3D00
2308
0018
C070
C060
C060
C060
C060
C060
C060
C060
C060
C060
60C0
7FC0
1F00
ENDCHAR
STARTCHAR $1EEF
ENCODING 7919
SWIDTH 693 0
DWIDTH 13 0
BBX 11 14 2 0
BITMAP
2000
7A00
4640
0060
81C0
8180
8180
8180
8180
8180
C180
C380
FF80
3D80
ENDCHAR
STARTCHAR $1EF0
ENCODING 7920
SWIDTH 800 0
DWIDTH 15 0
BBX 13 20 2 -4
BITMAP
0018
0008
0018
C070
C060
C060
C060
C060
C060
C060
C060
C060
C060
60C0
7FC0
1F00
0000
0000
0400
0400
ENDCHAR
STARTCHAR $1EF1
ENCODING 7921
SWIDTH 693 0
DWIDTH 13 0
BBX 11 17 2 -4
BITMAP
0040
0060
0060
81C0
8180
8180
8180
8180
8180
C180
C380
FF80
3D80
0000
0000
0800
1800
ENDCHAR
STARTCHAR $1EF2
ENCODING 7922
SWIDTH 640 0
DWIDTH 12 0
BBX 12 16 0 0
BITMAP
1C00
0600
0000
C030
6060
6060
30C0
1880
1980
0F00
0700
0600
0600
0600
0600
0600
ENDCHAR
STARTCHAR $1EF3
ENCODING 7923
SWIDTH 533 0
DWIDTH 10 0
BBX 10 18 0 -4
BITMAP
3000
1800
0400
0000
C040
40C0
6080
6180
3180
3300
1B00
1A00
0E00
0C00
0C00
0C00
F800
F000
ENDCHAR
STARTCHAR $1EF4
ENCODING 7924
SWIDTH 640 0
DWIDTH 12 0
BBX 12 17 0 -4
BITMAP
C030
6060
6060
30C0
1880
1980
0F00
0700
0600
0600
0600
0600
0600
0000
0000
0600
0600
ENDCHAR
STARTCHAR $1EF5
ENCODING 7925
SWIDTH 533 0
DWIDTH 10 0
BBX 10 14 0 -4
BITMAP
C040
40C0
6080
6180
3180
3300
1B00
1A00
0E00
0C00
0C00
0C00
F900
F180
ENDCHAR
STARTCHAR $1EF6
ENCODING 7926
SWIDTH 640 0
DWIDTH 12 0
BBX 12 18 0 0
BITMAP
0E00
0100
0100
0200
0000
C030
6060
6060
30C0
1880
1980
0F00
0700
0600
0600
0600
0600
0600
ENDCHAR
STARTCHAR $1EF7
ENCODING 7927
SWIDTH 533 0
DWIDTH 10 0
BBX 10 19 0 -4
BITMAP
1C00
0200
0200
0400
0000
C040
40C0
6080
6180
3180
3300
1B00
1A00
0E00
0C00
0C00
0C00
F800
F000
ENDCHAR
STARTCHAR $1EF8
ENCODING 7928
SWIDTH 640 0
DWIDTH 12 0
BBX 12 16 0 1
BITMAP
1C80
1380
0000
C030
6060
6060
30C0
1880
1980
0F00
0700
0600
0600
0600
0600
0600
ENDCHAR
STARTCHAR $1EF9
ENCODING 7929
SWIDTH 533 0
DWIDTH 10 0
BBX 10 17 0 -3
BITMAP
3900
2700
0000
C040
40C0
6080
6180
3180
3300
1B00
1A00
0E00
0C00
0C00
0C00
F800
F000
ENDCHAR
STARTCHAR $2007
ENCODING 8199
SWIDTH 693 0
DWIDTH 13 0
BBX 0 0 0 0
BITMAP
ENDCHAR
STARTCHAR $2008
ENCODING 8200
SWIDTH 213 0
DWIDTH 4 0
BBX 0 0 0 0
BITMAP
ENDCHAR
STARTCHAR $2009
ENCODING 8201
SWIDTH 160 0
DWIDTH 3 0
BBX 0 0 0 0
BITMAP
ENDCHAR
STARTCHAR $200A
ENCODING 8202
SWIDTH 106 0
DWIDTH 2 0
BBX 0 0 0 0
BITMAP
ENDCHAR
STARTCHAR $200B
ENCODING 8203
SWIDTH 0 0
DWIDTH 0 0
BBX 0 0 0 0
BITMAP
ENDCHAR
STARTCHAR $2010
ENCODING 8208
SWIDTH 373 0
DWIDTH 7 0
BBX 5 2 1 4
BITMAP
F8
F8
ENDCHAR
STARTCHAR $2012
ENCODING 8210
SWIDTH 693 0
DWIDTH 13 0
BBX 11 1 1 6
BITMAP
FFE0
ENDCHAR
STARTCHAR $2013
ENCODING 8211
SWIDTH 480 0
DWIDTH 9 0
BBX 9 1 0 5
BITMAP
FF80
ENDCHAR
STARTCHAR $2014
ENCODING 8212
SWIDTH 1013 0
DWIDTH 19 0
BBX 19 1 0 5
BITMAP
FFFFE0
ENDCHAR
STARTCHAR $2015
ENCODING 8213
SWIDTH 1013 0
DWIDTH 19 0
BBX 19 1 0 5
BITMAP
FFFFE0
ENDCHAR
STARTCHAR $2018
ENCODING 8216
SWIDTH 213 0
DWIDTH 4 0
BBX 2 5 1 9
BITMAP
40
40
C0
C0
C0
ENDCHAR
STARTCHAR $2019
ENCODING 8217
SWIDTH 213 0
DWIDTH 4 0
BBX 2 5 1 9
BITMAP
C0
C0
40
C0
80
ENDCHAR
STARTCHAR $201A
ENCODING 8218
SWIDTH 213 0
DWIDTH 4 0
BBX 2 5 1 -3
BITMAP
C0
C0
40
C0
80
ENDCHAR
STARTCHAR $201C
ENCODING 8220
SWIDTH 426 0
DWIDTH 8 0
BBX 6 5 1 9
BITMAP
4C
48
C8
DC
CC
ENDCHAR
STARTCHAR $201D
ENCODING 8221
SWIDTH 426 0
DWIDTH 8 0
BBX 6 5 1 9
BITMAP
CC
DC
4C
C8
88
ENDCHAR
STARTCHAR $201E
ENCODING 8222
SWIDTH 426 0
DWIDTH 8 0
BBX 6 5 1 -3
BITMAP
CC
CC
4C
C8
88
ENDCHAR
STARTCHAR $2020
ENCODING 8224
SWIDTH 586 0
DWIDTH 11 0
BBX 9 17 1 -4
BITMAP
1800
1800
1800
1800
FF80
FF80
1800
1800
1800
1800
1800
1800
1800
1800
1800
1800
1800
ENDCHAR
STARTCHAR $2021
ENCODING 8225
SWIDTH 586 0
DWIDTH 11 0
BBX 9 17 1 -4
BITMAP
1800
1800
1800
1800
FF80
FF80
1800
1800
1800
1800
1800
FF80
FF80
1800
1800
1800
1800
ENDCHAR
STARTCHAR $2022
ENCODING 8226
SWIDTH 320 0
DWIDTH 6 0
BBX 4 3 1 4
BITMAP
60
F0
E0
ENDCHAR
STARTCHAR $2026
ENCODING 8230
SWIDTH 693 0
DWIDTH 13 0
BBX 11 3 1 0
BITMAP
4440
CE60
CC60
ENDCHAR
STARTCHAR $2030
ENCODING 8240
SWIDTH 1226 0
DWIDTH 23 0
BBX 21 13 1 0
BITMAP
703000
C82000
8C4000
84C000
8C8000
C90000
7378F0
06CD90
048508
0C8508
188508
10CD90
2078F0
ENDCHAR
STARTCHAR $2032
ENCODING 8242
SWIDTH 213 0
DWIDTH 4 0
BBX 2 5 1 8
BITMAP
C0
C0
C0
C0
C0
ENDCHAR
STARTCHAR $2033
ENCODING 8243
SWIDTH 373 0
DWIDTH 7 0
BBX 5 5 1 8
BITMAP
C8
C8
C8
C8
C8
ENDCHAR
STARTCHAR $2039
ENCODING 8249
SWIDTH 320 0
DWIDTH 6 0
BBX 4 7 1 1
BITMAP
30
60
40
C0
40
60
30
ENDCHAR
STARTCHAR $203A
ENCODING 8250
SWIDTH 320 0
DWIDTH 6 0
BBX 4 7 1 1
BITMAP
C0
60
20
30
60
40
C0
ENDCHAR
STARTCHAR $2044
ENCODING 8260
SWIDTH 160 0
DWIDTH 3 0
BBX 9 13 -3 0
BITMAP
0080
0180
0100
0200
0600
0400
0800
1800
1000
2000
6000
C000
8000
ENDCHAR
STARTCHAR $2052
ENCODING 8274
SWIDTH 533 0
DWIDTH 10 0
BBX 8 13 1 0
BITMAP
42
E6
04
0C
08
08
18
10
10
30
20
27
62
ENDCHAR
STARTCHAR $2070
ENCODING 8304
SWIDTH 426 0
DWIDTH 8 0
BBX 7 8 1 6
BITMAP
78
CC
84
86
86
84
CC
78
ENDCHAR
STARTCHAR $2074
ENCODING 8308
SWIDTH 426 0
DWIDTH 8 0
BBX 8 8 0 6
BITMAP
08
18
30
24
44
FF
04
04
ENDCHAR
STARTCHAR $2075
ENCODING 8309
SWIDTH 426 0
DWIDTH 8 0
BBX 6 8 1 6
BITMAP
7C
C0
C0
F8
0C
04
8C
F8
ENDCHAR
STARTCHAR $2076
ENCODING 8310
SWIDTH 426 0
DWIDTH 8 0
BBX 6 8 1 6
BITMAP
3C
C0
80
B8
C4
84
C4
78
ENDCHAR
STARTCHAR $2077
ENCODING 8311
SWIDTH 426 0
DWIDTH 8 0
BBX 6 8 1 6
BITMAP
FC
84
0C
08
18
10
30
20
ENDCHAR
STARTCHAR $2078
ENCODING 8312
SWIDTH 426 0
DWIDTH 8 0
BBX 7 8 1 6
BITMAP
78
84
84
FC
84
86
84
78
ENDCHAR
STARTCHAR $2079
ENCODING 8313
SWIDTH 426 0
DWIDTH 8 0
BBX 6 8 1 6
BITMAP
78
8C
84
8C
74
04
0C
F8
ENDCHAR
STARTCHAR $2080
ENCODING 8320
SWIDTH 426 0
DWIDTH 8 0
BBX 7 8 1 -2
BITMAP
78
CC
84
86
86
84
CC
78
ENDCHAR
STARTCHAR $2081
ENCODING 8321
SWIDTH 426 0
DWIDTH 8 0
BBX 5 8 2 -2
BITMAP
E0
20
20
20
20
20
20
F8
ENDCHAR
STARTCHAR $2082
ENCODING 8322
SWIDTH 426 0
DWIDTH 8 0
BBX 6 8 1 -2
BITMAP
F8
8C
0C
08
18
20
40
FC
ENDCHAR
STARTCHAR $2083
ENCODING 8323
SWIDTH 426 0
DWIDTH 8 0
BBX 6 8 1 -2
BITMAP
FC
08
10
38
0C
04
8C
F8
ENDCHAR
STARTCHAR $2084
ENCODING 8324
SWIDTH 426 0
DWIDTH 8 0
BBX 8 8 0 -2
BITMAP
08
18
30
24
44
FF
04
04
ENDCHAR
STARTCHAR $2085
ENCODING 8325
SWIDTH 426 0
DWIDTH 8 0
BBX 6 8 1 -2
BITMAP
7C
C0
C0
F8
0C
04
8C
F8
ENDCHAR
STARTCHAR $2086
ENCODING 8326
SWIDTH 426 0
DWIDTH 8 0
BBX 6 8 1 -2
BITMAP
3C
C0
80
B8
C4
84
C4
78
ENDCHAR
STARTCHAR $2087
ENCODING 8327
SWIDTH 426 0
DWIDTH 8 0
BBX 6 8 1 -2
BITMAP
FC
84
0C
08
18
10
30
20
ENDCHAR
STARTCHAR $2088
ENCODING 8328
SWIDTH 426 0
DWIDTH 8 0
BBX 7 8 1 -2
BITMAP
78
84
84
78
84
86
84
78
ENDCHAR
STARTCHAR $2089
ENCODING 8329
SWIDTH 426 0
DWIDTH 8 0
BBX 6 8 1 -2
BITMAP
78
8C
84
8C
74
04
0C
F0
ENDCHAR
STARTCHAR $20A1
ENCODING 8353
SWIDTH 746 0
DWIDTH 14 0
BBX 11 17 1 -2
BITMAP
0160
0240
0FC0
3FE0
72A0
6480
C480
C480
CD00
C900
C900
6900
7A20
3FE0
1FC0
1600
3400
ENDCHAR
STARTCHAR $20A3
ENCODING 8355
SWIDTH 640 0
DWIDTH 12 0
BBX 11 13 1 0
BITMAP
7FE0
7FE0
6000
6000
6000
6000
7FC0
7FC0
6000
6000
FF00
6000
6000
ENDCHAR
STARTCHAR $20A4
ENCODING 8356
SWIDTH 640 0
DWIDTH 12 0
BBX 11 13 1 0
BITMAP
0FC0
1FE0
3000
3000
2000
FF00
2000
FF00
2000
2000
2000
FFE0
FFE0
ENDCHAR
STARTCHAR $20A6
ENCODING 8358
SWIDTH 906 0
DWIDTH 17 0
BBX 15 13 1 0
BITMAP
3018
3018
3818
3C18
2E18
FFFE
2318
FFFE
20D8
2078
2078
2038
2018
ENDCHAR
STARTCHAR $20A7
ENCODING 8359
SWIDTH 1653 0
DWIDTH 31 0
BBX 28 13 2 0
BITMAP
FF000000
FF820000
C0C20000
C04FC3E0
C06207F0
C0420C00
C0C20C00
FF8207C0
FF0200F0
C0020030
C0020030
C003EFF0
C001E7E0
ENDCHAR
STARTCHAR $20A9
ENCODING 8361
SWIDTH 1173 0
DWIDTH 22 0
BBX 21 13 1 0
BITMAP
C06010
C07030
60F030
60F060
60D860
FFFFF8
3188C0
FFFFF8
1B0C80
1B0780
0A0780
0E0700
0E0300
ENDCHAR
STARTCHAR $20AB
ENCODING 8363
SWIDTH 693 0
DWIDTH 13 0
BBX 12 16 1 -2
BITMAP
00C0
00C0
0FF0
00C0
3EC0
7FC0
E1C0
C0C0
C0C0
C0C0
C0C0
E1C0
7FC0
3EC0
0000
FFC0
ENDCHAR
STARTCHAR $20AC
ENCODING 8364
SWIDTH 800 0
DWIDTH 15 0
BBX 13 13 1 0
BITMAP
03E0
0FF8
1C18
3000
3000
FFC0
6000
FFC0
3000
3000
1C18
0FF8
03E0
ENDCHAR
STARTCHAR $20AD
ENCODING 8365
SWIDTH 640 0
DWIDTH 12 0
BBX 11 13 1 0
BITMAP
6060
60C0
6180
6300
6600
6E00
FFC0
6C00
6600
6300
6180
60C0
6060
ENDCHAR
STARTCHAR $20AE
ENCODING 8366
SWIDTH 693 0
DWIDTH 13 0
BBX 11 13 1 0
BITMAP
FFE0
FFE0
0C00
0C00
0D80
0E00
1C80
6F80
0E00
3C00
6C00
0C00
0C00
ENDCHAR
STARTCHAR $20B1
ENCODING 8369
SWIDTH 853 0
DWIDTH 16 0
BBX 14 13 1 0
BITMAP
3F80
3FE0
2070
FFFC
2030
FFFC
2070
3FE0
3FC0
2000
2000
2000
2000
ENDCHAR
STARTCHAR $20B2
ENCODING 8370
SWIDTH 746 0
DWIDTH 14 0
BBX 12 18 1 -2
BITMAP
0200
0200
03C0
1FE0
3230
6200
C200
C200
C200
C230
C230
C230
6230
7230
3FF0
0FC0
0200
0200
ENDCHAR
STARTCHAR $20B4
ENCODING 8372
SWIDTH 800 0
DWIDTH 15 0
BBX 12 13 2 0
BITMAP
1F00
7FC0
00C0
0060
00C0
FFF0
0000
FFF0
6000
6000
6040
3FE0
1F80
ENDCHAR
STARTCHAR $20B5
ENCODING 8373
SWIDTH 746 0
DWIDTH 14 0
BBX 11 17 1 -2
BITMAP
0200
0200
0FC0
3FE0
7220
6200
C200
C200
C200
C200
C200
6200
7220
3FE0
0FC0
0200
0200
ENDCHAR
STARTCHAR $20B8
ENCODING 8376
SWIDTH 746 0
DWIDTH 14 0
BBX 11 13 1 0
BITMAP
FFE0
0000
0000
FFE0
0600
0600
0600
0600
0600
0600
0600
0600
0600
ENDCHAR
STARTCHAR $20B9
ENCODING 8377
SWIDTH 746 0
DWIDTH 14 0
BBX 12 13 1 0
BITMAP
FFF0
0380
0180
FFF0
00C0
00C0
0180
7F00
7E00
0700
0300
0180
00C0
ENDCHAR
STARTCHAR $20BA
ENCODING 8378
SWIDTH 693 0
DWIDTH 13 0
BBX 12 13 1 0
BITMAP
2000
2100
2600
3800
6300
AE00
3830
6020
A060
2060
20C0
3F80
3E00
ENDCHAR
STARTCHAR $20BC
ENCODING 8380
SWIDTH 906 0
DWIDTH 17 0
BBX 13 15 2 0
BITMAP
0200
0200
0F80
3FE0
7230
6210
C218
C218
C218
C218
C218
C218
C218
C018
C018
ENDCHAR
STARTCHAR $20BD
ENCODING 8381
SWIDTH 746 0
DWIDTH 14 0
BBX 12 13 1 0
BITMAP
7FC0
7FE0
6070
6030
6030
6030
6060
7FE0
7F00
6000
FF00
6000
6000
ENDCHAR
STARTCHAR $2113
ENCODING 8467
SWIDTH 480 0
DWIDTH 9 0
BBX 7 13 1 0
BITMAP
0C
12
32
22
24
24
68
70
60
C0
42
64
38
ENDCHAR
STARTCHAR $2116
ENCODING 8470
SWIDTH 1226 0
DWIDTH 23 0
BBX 20 13 2 0
BITMAP
C063C0
E06620
E06430
F06430
D86620
CC63C0
CE6000
C66000
C367E0
C1E000
C0E000
C0E000
C06000
ENDCHAR
STARTCHAR $2122
ENCODING 8482
SWIDTH 1013 0
DWIDTH 19 0
BBX 17 8 0 5
BITMAP
FEC080
10C180
10E180
10F280
10D680
10CC80
10C880
10C080
ENDCHAR
STARTCHAR $2126
ENCODING 8486
SWIDTH 906 0
DWIDTH 17 0
BBX 17 13 0 0
BITMAP
03E000
0FF800
181C00
300600
300600
200600
600600
200600
300600
300600
180C00
FE3F80
FE3F80
ENDCHAR
STARTCHAR $212A
ENCODING 8490
SWIDTH 693 0
DWIDTH 13 0
BBX 11 13 2 0
BITMAP
C0E0
C1C0
C180
C300
C600
CC00
DC00
FE00
E700
C380
C180
C0C0
C060
ENDCHAR
STARTCHAR $212B
ENCODING 8491
SWIDTH 746 0
DWIDTH 14 0
BBX 14 18 0 0
BITMAP
0700
0480
0480
0300
0000
0300
0700
0780
0C80
0CC0
18C0
1860
3060
3030
3FF0
6018
6018
C00C
ENDCHAR
STARTCHAR $212E
ENCODING 8494
SWIDTH 906 0
DWIDTH 17 0
BBX 15 13 1 0
BITMAP
0FC0
3030
6008
600C
E00C
E00E
FFF0
E000
E000
6000
2008
1010
0FE0
ENDCHAR
STARTCHAR $2153
ENCODING 8531
SWIDTH 1013 0
DWIDTH 19 0
BBX 16 13 2 0
BITMAP
E018
2030
2020
2040
20C0
20BF
2103
FB06
0204
040F
0C01
0821
101E
ENDCHAR
STARTCHAR $2154
ENCODING 8532
SWIDTH 1013 0
DWIDTH 19 0
BBX 17 13 1 0
BITMAP
F80C00
8C1800
0C1000
082000
186000
205F80
408180
FD8300
010200
020780
060080
041080
080F00
ENDCHAR
STARTCHAR $215B
ENCODING 8539
SWIDTH 1013 0
DWIDTH 19 0
BBX 17 13 2 0
BITMAP
E01800
203000
202000
204000
20C000
209E00
213100
FB2180
023100
041E00
0C2180
082180
101F00
ENDCHAR
STARTCHAR $215C
ENCODING 8540
SWIDTH 1013 0
DWIDTH 19 0
BBX 18 13 1 0
BITMAP
FC0C00
081800
101000
382000
046000
044F00
8C9880
F990C0
011880
020F00
0610C0
0410C0
080F80
ENDCHAR
STARTCHAR $215D
ENCODING 8541
SWIDTH 1013 0
DWIDTH 19 0
BBX 18 13 1 0
BITMAP
7C0C00
C01800
C01000
F82000
0C6000
044F00
8C9880
F990C0
011880
020F00
0610C0
0410C0
080F80
ENDCHAR
STARTCHAR $215E
ENCODING 8542
SWIDTH 1013 0
DWIDTH 19 0
BBX 18 13 1 0
BITMAP
FC0C00
841800
0C1000
082000
106000
304F80
2098C0
019880
010F00
0218C0
061040
0418C0
080F80
ENDCHAR
STARTCHAR $2190
ENCODING 8592
SWIDTH 586 0
DWIDTH 11 0
BBX 8 8 2 1
BITMAP
30
60
40
FF
C0
60
20
30
ENDCHAR
STARTCHAR $2191
ENCODING 8593
SWIDTH 586 0
DWIDTH 11 0
BBX 7 8 2 1
BITMAP
38
7C
D6
10
10
10
10
10
ENDCHAR
STARTCHAR $2192
ENCODING 8594
SWIDTH 586 0
DWIDTH 11 0
BBX 8 8 1 1
BITMAP
04
06
03
FF
03
02
06
0C
ENDCHAR
STARTCHAR $2193
ENCODING 8595
SWIDTH 586 0
DWIDTH 11 0
BBX 8 8 2 1
BITMAP
18
18
18
18
99
FE
3C
18
ENDCHAR
STARTCHAR $2194
ENCODING 8596
SWIDTH 746 0
DWIDTH 14 0
BBX 12 8 1 1
BITMAP
30C0
6040
4060
FFF0
C060
6060
20C0
3080
ENDCHAR
STARTCHAR $2195
ENCODING 8597
SWIDTH 586 0
DWIDTH 11 0
BBX 7 11 2 1
BITMAP
10
7C
D6
92
10
10
10
10
D2
7C
38
ENDCHAR
STARTCHAR $2196
ENCODING 8598
SWIDTH 586 0
DWIDTH 11 0
BBX 7 7 2 2
BITMAP
1C
78
70
F8
DC
8E
06
ENDCHAR
STARTCHAR $2197
ENCODING 8599
SWIDTH 586 0
DWIDTH 11 0
BBX 6 7 3 2
BITMAP
70
BC
1C
34
64
C4
80
ENDCHAR
STARTCHAR $2198
ENCODING 8600
SWIDTH 586 0
DWIDTH 11 0
BBX 6 7 3 2
BITMAP
80
C4
64
34
1C
1C
F8
ENDCHAR
STARTCHAR $2199
ENCODING 8601
SWIDTH 586 0
DWIDTH 11 0
BBX 7 7 2 2
BITMAP
02
86
8C
D8
70
60
7C
ENDCHAR
STARTCHAR $2202
ENCODING 8706
SWIDTH 693 0
DWIDTH 13 0
BBX 11 14 1 0
BITMAP
1800
7F00
0180
00C0
0040
0060
3F60
61E0
40E0
C0E0
C0C0
60C0
7F80
1F00
ENDCHAR
STARTCHAR $2205
ENCODING 8709
SWIDTH 586 0
DWIDTH 11 0
BBX 9 9 1 2
BITMAP
0080
3F80
6300
4700
CD80
D100
6100
6300
9C00
ENDCHAR
STARTCHAR $2206
ENCODING 8710
SWIDTH 746 0
DWIDTH 14 0
BBX 14 13 0 0
BITMAP
0300
0700
0780
0C80
0CC0
18C0
1860
3060
3030
2030
6018
7FF8
FFFC
ENDCHAR
STARTCHAR $220F
ENCODING 8719
SWIDTH 800 0
DWIDTH 15 0
BBX 11 17 2 -4
BITMAP
FFE0
FFE0
C060
C060
C060
C060
C060
C060
C060
C060
C060
C060
C060
C060
C060
C060
C060
ENDCHAR
STARTCHAR $2211
ENCODING 8721
SWIDTH 640 0
DWIDTH 12 0
BBX 11 17 1 -4
BITMAP
FFE0
FFE0
6000
3000
1800
0C00
0E00
0600
0300
0600
0E00
1C00
1800
3000
6000
FFE0
FFE0
ENDCHAR
STARTCHAR $2212
ENCODING 8722
SWIDTH 586 0
DWIDTH 11 0
BBX 9 1 1 6
BITMAP
FF80
ENDCHAR
STARTCHAR $2215
ENCODING 8725
SWIDTH 373 0
DWIDTH 7 0
BBX 7 18 0 -2
BITMAP
02
06
06
04
0C
08
18
18
10
30
30
20
60
60
40
C0
C0
80
ENDCHAR
STARTCHAR $2219
ENCODING 8729
SWIDTH 266 0
DWIDTH 5 0
BBX 3 3 1 5
BITMAP
60
E0
40
ENDCHAR
STARTCHAR $221A
ENCODING 8730
SWIDTH 800 0
DWIDTH 15 0
BBX 14 18 1 -4
BITMAP
000C
000C
0008
0018
0018
0010
0030
F030
1820
1860
1860
0C40
0CC0
04C0
0680
0780
0380
0300
ENDCHAR
STARTCHAR $221E
ENCODING 8734
SWIDTH 906 0
DWIDTH 17 0
BBX 16 7 1 3
BITMAP
7C7C
C6C6
8382
8183
C382
EEEE
3C3C
ENDCHAR
STARTCHAR $222B
ENCODING 8747
SWIDTH 373 0
DWIDTH 7 0
BBX 9 18 -1 -4
BITMAP
0780
0F80
0C00
0C00
0C00
0C00
0C00
0C00
0C00
0C00
0C00
0C00
0C00
0C00
0C00
0C00
7800
F000
ENDCHAR
STARTCHAR $2248
ENCODING 8776
SWIDTH 586 0
DWIDTH 11 0
BBX 9 7 1 3
BITMAP
7080
CD80
8700
0000
7080
D980
8F00
ENDCHAR
STARTCHAR $2260
ENCODING 8800
SWIDTH 586 0
DWIDTH 11 0
BBX 9 11 1 1
BITMAP
0300
0200
0600
FF80
0C00
0800
1800
FF80
3000
2000
6000
ENDCHAR
STARTCHAR $2264
ENCODING 8804
SWIDTH 586 0
DWIDTH 11 0
BBX 9 12 1 0
BITMAP
0180
0780
1E00
F000
E000
7800
0F00
0380
0000
0000
0000
FF80
ENDCHAR
STARTCHAR $2265
ENCODING 8805
SWIDTH 586 0
DWIDTH 11 0
BBX 9 12 1 0
BITMAP
8000
F000
3C00
0780
0380
0F00
7800
E000
0000
0000
0000
FF80
ENDCHAR
STARTCHAR $25A0
ENCODING 9632
SWIDTH 586 0
DWIDTH 11 0
BBX 7 7 2 1
BITMAP
FE
FE
FE
FE
FE
FE
FE
ENDCHAR
STARTCHAR $25A1
ENCODING 9633
SWIDTH 586 0
DWIDTH 11 0
BBX 7 8 2 1
BITMAP
FE
82
82
82
82
82
82
FE
ENDCHAR
STARTCHAR $25B2
ENCODING 9650
SWIDTH 586 0
DWIDTH 11 0
BBX 7 8 2 1
BITMAP
10
10
38
38
7C
7C
FE
FE
ENDCHAR
STARTCHAR $25B3
ENCODING 9651
SWIDTH 586 0
DWIDTH 11 0
BBX 7 8 2 1
BITMAP
10
10
28
28
44
44
82
FE
ENDCHAR
STARTCHAR $25B6
ENCODING 9654
SWIDTH 586 0
DWIDTH 11 0
BBX 8 8 2 1
BITMAP
80
E0
F8
FE
FF
F8
E0
80
ENDCHAR
STARTCHAR $25B7
ENCODING 9655
SWIDTH 586 0
DWIDTH 11 0
BBX 8 8 2 1
BITMAP
80
E0
98
86
87
98
E0
80
ENDCHAR
STARTCHAR $25BC
ENCODING 9660
SWIDTH 586 0
DWIDTH 11 0
BBX 7 8 2 1
BITMAP
FE
FE
7C
7C
38
38
10
10
ENDCHAR
STARTCHAR $25BD
ENCODING 9661
SWIDTH 586 0
DWIDTH 11 0
BBX 7 8 2 1
BITMAP
FE
82
44
44
28
28
10
10
ENDCHAR
STARTCHAR $25C0
ENCODING 9664
SWIDTH 586 0
DWIDTH 11 0
BBX 7 8 2 1
BITMAP
02
0E
3E
FE
FE
3E
0E
02
ENDCHAR
STARTCHAR $25C1
ENCODING 9665
SWIDTH 586 0
DWIDTH 11 0
BBX 7 8 2 1
BITMAP
02
0E
32
C2
C2
32
0E
02
ENDCHAR
STARTCHAR $25C6
ENCODING 9670
SWIDTH 586 0
DWIDTH 11 0
BBX 9 10 1 0
BITMAP
0800
1C00
3E00
7F00
FF80
FF80
7F00
3E00
1C00
0800
ENDCHAR
STARTCHAR $25C7
ENCODING 9671
SWIDTH 586 0
DWIDTH 11 0
BBX 9 10 1 0
BITMAP
0800
1C00
3200
6100
8080
8080
4100
3200
1C00
0800
ENDCHAR
STARTCHAR $25CA
ENCODING 9674
SWIDTH 480 0
DWIDTH 9 0
BBX 7 11 1 0
BITMAP
10
18
28
64
46
82
C2
44
2C
38
10
ENDCHAR
STARTCHAR $27E8
ENCODING 10216
SWIDTH 320 0
DWIDTH 6 0
BBX 4 18 1 -4
BITMAP
10
30
30
20
60
60
40
C0
C0
C0
C0
40
60
60
20
30
30
10
ENDCHAR
STARTCHAR $27E9
ENCODING 10217
SWIDTH 320 0
DWIDTH 6 0
BBX 4 18 1 -4
BITMAP
C0
C0
40
60
60
20
30
30
10
10
30
30
20
60
60
40
C0
C0
ENDCHAR
STARTCHAR A78B
ENCODING 42891
SWIDTH 266 0
DWIDTH 5 0
BBX 1 8 2 5
BITMAP
80
80
80
80
80
80
80
80
ENDCHAR
STARTCHAR A78C
ENCODING 42892
SWIDTH 266 0
DWIDTH 5 0
BBX 1 7 2 5
BITMAP
80
80
80
80
80
80
80
ENDCHAR
STARTCHAR FB01
ENCODING 64257
SWIDTH 693 0
DWIDTH 13 0
BBX 12 14 0 0
BITMAP
1E30
3A30
3000
3000
FE30
3030
3030
3030
3030
3030
3030
3030
3030
3030
ENDCHAR
STARTCHAR FB02
ENCODING 64258
SWIDTH 640 0
DWIDTH 12 0
BBX 10 14 0 0
BITMAP
1EC0
3AC0
30C0
30C0
FEC0
30C0
30C0
30C0
30C0
30C0
30C0
30C0
30C0
30C0
ENDCHAR
ENDFONT
